<svg xmlns="http://www.w3.org/2000/svg" version="1.1" xmlns:xlink="http://www.w3.org/1999/xlink" xmlns:svgjs="http://svgjs.dev/svgjs" viewBox="0 0 800 800"><g shape-rendering="crispEdges"><g><use xlink:href="#SvgjsSymbol1009" x="618.75" y="0" fill="hsl(60, 57%, 71%)"></use><use xlink:href="#SvgjsSymbol1010" x="618.75" y="0" fill="#ffffbc"></use><use xlink:href="#SvgjsSymbol1011" x="618.75" y="0" fill="#acad5c"></use></g><g><use xlink:href="#SvgjsSymbol1009" x="731.25" y="56.25" fill="hsl(60, 57%, 71%)"></use><use xlink:href="#SvgjsSymbol1010" x="731.25" y="56.25" fill="#ffffbc"></use><use xlink:href="#SvgjsSymbol1011" x="731.25" y="56.25" fill="#acad5c"></use></g><g><use xlink:href="#SvgjsSymbol1009" x="450" y="0" fill="hsl(88, 57%, 71%)"></use><use xlink:href="#SvgjsSymbol1010" x="450" y="0" fill="#ebffbc"></use><use xlink:href="#SvgjsSymbol1011" x="450" y="0" fill="#87ad5d"></use></g><g><use xlink:href="#SvgjsSymbol1009" x="562.5" y="56.25" fill="hsl(88, 57%, 71%)"></use><use xlink:href="#SvgjsSymbol1010" x="562.5" y="56.25" fill="#ebffbc"></use><use xlink:href="#SvgjsSymbol1011" x="562.5" y="56.25" fill="#87ad5d"></use></g><g><use xlink:href="#SvgjsSymbol1009" x="675" y="112.5" fill="hsl(88, 57%, 71%)"></use><use xlink:href="#SvgjsSymbol1010" x="675" y="112.5" fill="#ebffbc"></use><use xlink:href="#SvgjsSymbol1011" x="675" y="112.5" fill="#87ad5d"></use></g><g><use xlink:href="#SvgjsSymbol1009" x="281.25" y="0" fill="hsl(157, 57%, 71%)"></use><use xlink:href="#SvgjsSymbol1010" x="281.25" y="0" fill="#befff2"></use><use xlink:href="#SvgjsSymbol1011" x="281.25" y="0" fill="#5aad8f"></use></g><g><use xlink:href="#SvgjsSymbol1009" x="393.75" y="56.25" fill="hsl(157, 57%, 71%)"></use><use xlink:href="#SvgjsSymbol1010" x="393.75" y="56.25" fill="#befff2"></use><use xlink:href="#SvgjsSymbol1011" x="393.75" y="56.25" fill="#5aad8f"></use></g><g><use xlink:href="#SvgjsSymbol1009" x="506.25" y="112.5" fill="hsl(157, 57%, 71%)"></use><use xlink:href="#SvgjsSymbol1010" x="506.25" y="112.5" fill="#befff2"></use><use xlink:href="#SvgjsSymbol1011" x="506.25" y="112.5" fill="#5aad8f"></use></g><g><use xlink:href="#SvgjsSymbol1009" x="618.75" y="168.75" fill="hsl(157, 57%, 71%)"></use><use xlink:href="#SvgjsSymbol1010" x="618.75" y="168.75" fill="#befff2"></use><use xlink:href="#SvgjsSymbol1011" x="618.75" y="168.75" fill="#5aad8f"></use></g><g><use xlink:href="#SvgjsSymbol1009" x="731.25" y="225" fill="hsl(157, 57%, 71%)"></use><use xlink:href="#SvgjsSymbol1010" x="731.25" y="225" fill="#befff2"></use><use xlink:href="#SvgjsSymbol1011" x="731.25" y="225" fill="#5aad8f"></use></g><g><use xlink:href="#SvgjsSymbol1009" x="112.5" y="0" fill="hsl(47, 52%, 63%)"></use><use xlink:href="#SvgjsSymbol1010" x="112.5" y="0" fill="#ffeea0"></use><use xlink:href="#SvgjsSymbol1011" x="112.5" y="0" fill="#9f8c43"></use></g><g><use xlink:href="#SvgjsSymbol1009" x="225" y="56.25" fill="hsl(47, 52%, 63%)"></use><use xlink:href="#SvgjsSymbol1010" x="225" y="56.25" fill="#ffeea0"></use><use xlink:href="#SvgjsSymbol1011" x="225" y="56.25" fill="#9f8c43"></use></g><g><use xlink:href="#SvgjsSymbol1009" x="337.5" y="112.5" fill="hsl(47, 52%, 63%)"></use><use xlink:href="#SvgjsSymbol1010" x="337.5" y="112.5" fill="#ffeea0"></use><use xlink:href="#SvgjsSymbol1011" x="337.5" y="112.5" fill="#9f8c43"></use></g><g><use xlink:href="#SvgjsSymbol1009" x="450" y="168.75" fill="hsl(47, 52%, 63%)"></use><use xlink:href="#SvgjsSymbol1010" x="450" y="168.75" fill="#ffeea0"></use><use xlink:href="#SvgjsSymbol1011" x="450" y="168.75" fill="#9f8c43"></use></g><g><use xlink:href="#SvgjsSymbol1009" x="562.5" y="225" fill="hsl(47, 52%, 63%)"></use><use xlink:href="#SvgjsSymbol1010" x="562.5" y="225" fill="#ffeea0"></use><use xlink:href="#SvgjsSymbol1011" x="562.5" y="225" fill="#9f8c43"></use></g><g><use xlink:href="#SvgjsSymbol1009" x="675" y="281.25" fill="hsl(47, 52%, 63%)"></use><use xlink:href="#SvgjsSymbol1010" x="675" y="281.25" fill="#ffeea0"></use><use xlink:href="#SvgjsSymbol1011" x="675" y="281.25" fill="#9f8c43"></use></g><g><use xlink:href="#SvgjsSymbol1009" x="0" y="0" fill="hsl(274, 43%, 68%)"></use><use xlink:href="#SvgjsSymbol1010" x="0" y="0" fill="#e5baff"></use><use xlink:href="#SvgjsSymbol1011" x="0" y="0" fill="#815c9f"></use></g><g><use xlink:href="#SvgjsSymbol1009" x="112.5" y="56.25" fill="hsl(274, 43%, 68%)"></use><use xlink:href="#SvgjsSymbol1010" x="112.5" y="56.25" fill="#e5baff"></use><use xlink:href="#SvgjsSymbol1011" x="112.5" y="56.25" fill="#815c9f"></use></g><g><use xlink:href="#SvgjsSymbol1009" x="225" y="112.5" fill="hsl(274, 43%, 68%)"></use><use xlink:href="#SvgjsSymbol1010" x="225" y="112.5" fill="#e5baff"></use><use xlink:href="#SvgjsSymbol1011" x="225" y="112.5" fill="#815c9f"></use></g><g><use xlink:href="#SvgjsSymbol1009" x="337.5" y="168.75" fill="hsl(274, 43%, 68%)"></use><use xlink:href="#SvgjsSymbol1010" x="337.5" y="168.75" fill="#e5baff"></use><use xlink:href="#SvgjsSymbol1011" x="337.5" y="168.75" fill="#815c9f"></use></g><g><use xlink:href="#SvgjsSymbol1009" x="450" y="225" fill="hsl(274, 43%, 68%)"></use><use xlink:href="#SvgjsSymbol1010" x="450" y="225" fill="#e5baff"></use><use xlink:href="#SvgjsSymbol1011" x="450" y="225" fill="#815c9f"></use></g><g><use xlink:href="#SvgjsSymbol1009" x="562.5" y="281.25" fill="hsl(274, 43%, 68%)"></use><use xlink:href="#SvgjsSymbol1010" x="562.5" y="281.25" fill="#e5baff"></use><use xlink:href="#SvgjsSymbol1011" x="562.5" y="281.25" fill="#815c9f"></use></g><g><use xlink:href="#SvgjsSymbol1009" x="675" y="337.5" fill="hsl(274, 43%, 68%)"></use><use xlink:href="#SvgjsSymbol1010" x="675" y="337.5" fill="#e5baff"></use><use xlink:href="#SvgjsSymbol1011" x="675" y="337.5" fill="#815c9f"></use></g><g><use xlink:href="#SvgjsSymbol1009" x="787.5" y="393.75" fill="hsl(274, 43%, 68%)"></use><use xlink:href="#SvgjsSymbol1010" x="787.5" y="393.75" fill="#e5baff"></use><use xlink:href="#SvgjsSymbol1011" x="787.5" y="393.75" fill="#815c9f"></use></g><g><use xlink:href="#SvgjsSymbol1009" x="0" y="112.5" fill="hsl(0, 43%, 68%)"></use><use xlink:href="#SvgjsSymbol1010" x="0" y="112.5" fill="#ffbaba"></use><use xlink:href="#SvgjsSymbol1011" x="0" y="112.5" fill="#9d5c5d"></use></g><g><use xlink:href="#SvgjsSymbol1009" x="112.5" y="168.75" fill="hsl(0, 43%, 68%)"></use><use xlink:href="#SvgjsSymbol1010" x="112.5" y="168.75" fill="#ffbaba"></use><use xlink:href="#SvgjsSymbol1011" x="112.5" y="168.75" fill="#9d5c5d"></use></g><g><use xlink:href="#SvgjsSymbol1009" x="225" y="225" fill="hsl(0, 43%, 68%)"></use><use xlink:href="#SvgjsSymbol1010" x="225" y="225" fill="#ffbaba"></use><use xlink:href="#SvgjsSymbol1011" x="225" y="225" fill="#9d5c5d"></use></g><g><use xlink:href="#SvgjsSymbol1009" x="337.5" y="281.25" fill="hsl(0, 43%, 68%)"></use><use xlink:href="#SvgjsSymbol1010" x="337.5" y="281.25" fill="#ffbaba"></use><use xlink:href="#SvgjsSymbol1011" x="337.5" y="281.25" fill="#9d5c5d"></use></g><g><use xlink:href="#SvgjsSymbol1009" x="450" y="337.5" fill="hsl(0, 43%, 68%)"></use><use xlink:href="#SvgjsSymbol1010" x="450" y="337.5" fill="#ffbaba"></use><use xlink:href="#SvgjsSymbol1011" x="450" y="337.5" fill="#9d5c5d"></use></g><g><use xlink:href="#SvgjsSymbol1009" x="562.5" y="393.75" fill="hsl(0, 43%, 68%)"></use><use xlink:href="#SvgjsSymbol1010" x="562.5" y="393.75" fill="#ffbaba"></use><use xlink:href="#SvgjsSymbol1011" x="562.5" y="393.75" fill="#9d5c5d"></use></g><g><use xlink:href="#SvgjsSymbol1009" x="675" y="450" fill="hsl(0, 43%, 68%)"></use><use xlink:href="#SvgjsSymbol1010" x="675" y="450" fill="#ffbaba"></use><use xlink:href="#SvgjsSymbol1011" x="675" y="450" fill="#9d5c5d"></use></g><g><use xlink:href="#SvgjsSymbol1009" x="0" y="168.75" fill="hsl(214, 43%, 68%)"></use><use xlink:href="#SvgjsSymbol1010" x="0" y="168.75" fill="#bbdaff"></use><use xlink:href="#SvgjsSymbol1011" x="0" y="168.75" fill="#5b7a9f"></use></g><g><use xlink:href="#SvgjsSymbol1009" x="112.5" y="225" fill="hsl(214, 43%, 68%)"></use><use xlink:href="#SvgjsSymbol1010" x="112.5" y="225" fill="#bbdaff"></use><use xlink:href="#SvgjsSymbol1011" x="112.5" y="225" fill="#5b7a9f"></use></g><g><use xlink:href="#SvgjsSymbol1009" x="225" y="281.25" fill="hsl(214, 43%, 68%)"></use><use xlink:href="#SvgjsSymbol1010" x="225" y="281.25" fill="#bbdaff"></use><use xlink:href="#SvgjsSymbol1011" x="225" y="281.25" fill="#5b7a9f"></use></g><g><use xlink:href="#SvgjsSymbol1009" x="337.5" y="337.5" fill="hsl(214, 43%, 68%)"></use><use xlink:href="#SvgjsSymbol1010" x="337.5" y="337.5" fill="#bbdaff"></use><use xlink:href="#SvgjsSymbol1011" x="337.5" y="337.5" fill="#5b7a9f"></use></g><g><use xlink:href="#SvgjsSymbol1009" x="450" y="393.75" fill="hsl(214, 43%, 68%)"></use><use xlink:href="#SvgjsSymbol1010" x="450" y="393.75" fill="#bbdaff"></use><use xlink:href="#SvgjsSymbol1011" x="450" y="393.75" fill="#5b7a9f"></use></g><g><use xlink:href="#SvgjsSymbol1009" x="562.5" y="450" fill="hsl(214, 43%, 68%)"></use><use xlink:href="#SvgjsSymbol1010" x="562.5" y="450" fill="#bbdaff"></use><use xlink:href="#SvgjsSymbol1011" x="562.5" y="450" fill="#5b7a9f"></use></g><g><use xlink:href="#SvgjsSymbol1009" x="675" y="506.25" fill="hsl(214, 43%, 68%)"></use><use xlink:href="#SvgjsSymbol1010" x="675" y="506.25" fill="#bbdaff"></use><use xlink:href="#SvgjsSymbol1011" x="675" y="506.25" fill="#5b7a9f"></use></g><g><use xlink:href="#SvgjsSymbol1009" x="56.25" y="281.25" fill="hsl(55, 94%, 54%)"></use><use xlink:href="#SvgjsSymbol1010" x="56.25" y="281.25" fill="#ffff5d"></use><use xlink:href="#SvgjsSymbol1011" x="56.25" y="281.25" fill="#c1b400"></use></g><g><use xlink:href="#SvgjsSymbol1009" x="168.75" y="337.5" fill="hsl(55, 94%, 54%)"></use><use xlink:href="#SvgjsSymbol1010" x="168.75" y="337.5" fill="#ffff5d"></use><use xlink:href="#SvgjsSymbol1011" x="168.75" y="337.5" fill="#c1b400"></use></g><g><use xlink:href="#SvgjsSymbol1009" x="281.25" y="393.75" fill="hsl(55, 94%, 54%)"></use><use xlink:href="#SvgjsSymbol1010" x="281.25" y="393.75" fill="#ffff5d"></use><use xlink:href="#SvgjsSymbol1011" x="281.25" y="393.75" fill="#c1b400"></use></g><g><use xlink:href="#SvgjsSymbol1009" x="393.75" y="450" fill="hsl(55, 94%, 54%)"></use><use xlink:href="#SvgjsSymbol1010" x="393.75" y="450" fill="#ffff5d"></use><use xlink:href="#SvgjsSymbol1011" x="393.75" y="450" fill="#c1b400"></use></g><g><use xlink:href="#SvgjsSymbol1009" x="506.25" y="506.25" fill="hsl(55, 94%, 54%)"></use><use xlink:href="#SvgjsSymbol1010" x="506.25" y="506.25" fill="#ffff5d"></use><use xlink:href="#SvgjsSymbol1011" x="506.25" y="506.25" fill="#c1b400"></use></g><g><use xlink:href="#SvgjsSymbol1009" x="618.75" y="562.5" fill="hsl(55, 94%, 54%)"></use><use xlink:href="#SvgjsSymbol1010" x="618.75" y="562.5" fill="#ffff5d"></use><use xlink:href="#SvgjsSymbol1011" x="618.75" y="562.5" fill="#c1b400"></use></g><g><use xlink:href="#SvgjsSymbol1009" x="0" y="337.5" fill="hsl(89, 73%, 48%)"></use><use xlink:href="#SvgjsSymbol1010" x="0" y="337.5" fill="#b2ff5b"></use><use xlink:href="#SvgjsSymbol1011" x="0" y="337.5" fill="#47a200"></use></g><g><use xlink:href="#SvgjsSymbol1009" x="112.5" y="393.75" fill="hsl(89, 73%, 48%)"></use><use xlink:href="#SvgjsSymbol1010" x="112.5" y="393.75" fill="#b2ff5b"></use><use xlink:href="#SvgjsSymbol1011" x="112.5" y="393.75" fill="#47a200"></use></g><g><use xlink:href="#SvgjsSymbol1009" x="225" y="450" fill="hsl(89, 73%, 48%)"></use><use xlink:href="#SvgjsSymbol1010" x="225" y="450" fill="#b2ff5b"></use><use xlink:href="#SvgjsSymbol1011" x="225" y="450" fill="#47a200"></use></g><g><use xlink:href="#SvgjsSymbol1009" x="337.5" y="506.25" fill="hsl(89, 73%, 48%)"></use><use xlink:href="#SvgjsSymbol1010" x="337.5" y="506.25" fill="#b2ff5b"></use><use xlink:href="#SvgjsSymbol1011" x="337.5" y="506.25" fill="#47a200"></use></g><g><use xlink:href="#SvgjsSymbol1009" x="450" y="562.5" fill="hsl(89, 73%, 48%)"></use><use xlink:href="#SvgjsSymbol1010" x="450" y="562.5" fill="#b2ff5b"></use><use xlink:href="#SvgjsSymbol1011" x="450" y="562.5" fill="#47a200"></use></g><g><use xlink:href="#SvgjsSymbol1009" x="562.5" y="618.75" fill="hsl(89, 73%, 48%)"></use><use xlink:href="#SvgjsSymbol1010" x="562.5" y="618.75" fill="#b2ff5b"></use><use xlink:href="#SvgjsSymbol1011" x="562.5" y="618.75" fill="#47a200"></use></g><g><use xlink:href="#SvgjsSymbol1009" x="675" y="675" fill="hsl(89, 73%, 48%)"></use><use xlink:href="#SvgjsSymbol1010" x="675" y="675" fill="#b2ff5b"></use><use xlink:href="#SvgjsSymbol1011" x="675" y="675" fill="#47a200"></use></g><g><use xlink:href="#SvgjsSymbol1009" x="0" y="393.75" fill="hsl(291, 73%, 48%)"></use><use xlink:href="#SvgjsSymbol1010" x="0" y="393.75" fill="#ef5fff"></use><use xlink:href="#SvgjsSymbol1011" x="0" y="393.75" fill="#8400a2"></use></g><g><use xlink:href="#SvgjsSymbol1009" x="112.5" y="450" fill="hsl(291, 73%, 48%)"></use><use xlink:href="#SvgjsSymbol1010" x="112.5" y="450" fill="#ef5fff"></use><use xlink:href="#SvgjsSymbol1011" x="112.5" y="450" fill="#8400a2"></use></g><g><use xlink:href="#SvgjsSymbol1009" x="225" y="506.25" fill="hsl(291, 73%, 48%)"></use><use xlink:href="#SvgjsSymbol1010" x="225" y="506.25" fill="#ef5fff"></use><use xlink:href="#SvgjsSymbol1011" x="225" y="506.25" fill="#8400a2"></use></g><g><use xlink:href="#SvgjsSymbol1009" x="337.5" y="562.5" fill="hsl(291, 73%, 48%)"></use><use xlink:href="#SvgjsSymbol1010" x="337.5" y="562.5" fill="#ef5fff"></use><use xlink:href="#SvgjsSymbol1011" x="337.5" y="562.5" fill="#8400a2"></use></g><g><use xlink:href="#SvgjsSymbol1009" x="450" y="618.75" fill="hsl(291, 73%, 48%)"></use><use xlink:href="#SvgjsSymbol1010" x="450" y="618.75" fill="#ef5fff"></use><use xlink:href="#SvgjsSymbol1011" x="450" y="618.75" fill="#8400a2"></use></g><g><use xlink:href="#SvgjsSymbol1009" x="562.5" y="675" fill="hsl(291, 73%, 48%)"></use><use xlink:href="#SvgjsSymbol1010" x="562.5" y="675" fill="#ef5fff"></use><use xlink:href="#SvgjsSymbol1011" x="562.5" y="675" fill="#8400a2"></use></g><g><use xlink:href="#SvgjsSymbol1009" x="675" y="731.25" fill="hsl(291, 73%, 48%)"></use><use xlink:href="#SvgjsSymbol1010" x="675" y="731.25" fill="#ef5fff"></use><use xlink:href="#SvgjsSymbol1011" x="675" y="731.25" fill="#8400a2"></use></g><g><use xlink:href="#SvgjsSymbol1009" x="0" y="450" fill="hsl(28, 100%, 38%)"></use><use xlink:href="#SvgjsSymbol1010" x="0" y="450" fill="#fb8939"></use><use xlink:href="#SvgjsSymbol1011" x="0" y="450" fill="#8b2d00"></use></g><g><use xlink:href="#SvgjsSymbol1009" x="112.5" y="506.25" fill="hsl(28, 100%, 38%)"></use><use xlink:href="#SvgjsSymbol1010" x="112.5" y="506.25" fill="#fb8939"></use><use xlink:href="#SvgjsSymbol1011" x="112.5" y="506.25" fill="#8b2d00"></use></g><g><use xlink:href="#SvgjsSymbol1009" x="225" y="562.5" fill="hsl(28, 100%, 38%)"></use><use xlink:href="#SvgjsSymbol1010" x="225" y="562.5" fill="#fb8939"></use><use xlink:href="#SvgjsSymbol1011" x="225" y="562.5" fill="#8b2d00"></use></g><g><use xlink:href="#SvgjsSymbol1009" x="337.5" y="618.75" fill="hsl(28, 100%, 38%)"></use><use xlink:href="#SvgjsSymbol1010" x="337.5" y="618.75" fill="#fb8939"></use><use xlink:href="#SvgjsSymbol1011" x="337.5" y="618.75" fill="#8b2d00"></use></g><g><use xlink:href="#SvgjsSymbol1009" x="450" y="675" fill="hsl(28, 100%, 38%)"></use><use xlink:href="#SvgjsSymbol1010" x="450" y="675" fill="#fb8939"></use><use xlink:href="#SvgjsSymbol1011" x="450" y="675" fill="#8b2d00"></use></g><g><use xlink:href="#SvgjsSymbol1009" x="562.5" y="731.25" fill="hsl(28, 100%, 38%)"></use><use xlink:href="#SvgjsSymbol1010" x="562.5" y="731.25" fill="#fb8939"></use><use xlink:href="#SvgjsSymbol1011" x="562.5" y="731.25" fill="#8b2d00"></use></g></g><symbol id="SvgjsSymbol1000"><polygon points="0,12.5 25,0 50,12.5 25,25"></polygon></symbol><symbol id="SvgjsSymbol1001"><polygon points="0,12.5 25,25 25,50 0,37.5"></polygon></symbol><symbol id="SvgjsSymbol1002"><polygon points="25,25 50,12.5 50,37.5 25,50"></polygon></symbol><g></g><symbol id="SvgjsSymbol1003"><polygon points="0,31.25 62.5,0 125,31.25 62.5,62.5"></polygon></symbol><symbol id="SvgjsSymbol1004"><polygon points="0,31.25 62.5,62.5 62.5,125 0,93.75"></polygon></symbol><symbol id="SvgjsSymbol1005"><polygon points="62.5,62.5 125,31.25 125,93.75 62.5,125"></polygon></symbol><symbol id="SvgjsSymbol1006"><polygon points="0,50 100,0 200,50 100,100"></polygon></symbol><symbol id="SvgjsSymbol1007"><polygon points="0,50 100,100 100,200 0,150"></polygon></symbol><symbol id="SvgjsSymbol1008"><polygon points="100,100 200,50 200,150 100,200"></polygon></symbol><symbol id="SvgjsSymbol1009"><polygon points="0,56.25 112.5,0 225,56.25 112.5,112.5"></polygon></symbol><symbol id="SvgjsSymbol1010"><polygon points="0,56.25 112.5,112.5 112.5,225 0,168.75"></polygon></symbol><symbol id="SvgjsSymbol1011"><polygon points="112.5,112.5 225,56.25 225,168.75 112.5,225"></polygon></symbol></svg>