<svg xmlns="http://www.w3.org/2000/svg" version="1.1" xmlns:xlink="http://www.w3.org/1999/xlink" xmlns:svgjs="http://svgjs.dev/svgjs" viewBox="0 0 1422 800" opacity="1"><defs><linearGradient x1="50%" y1="0%" x2="50%" y2="100%" id="oooscillate-grad"><stop stop-color="hsl(1.4, 100%, 67%)" stop-opacity="1" offset="0%"></stop><stop stop-color="hsl(167, 52%, 78%)" stop-opacity="1" offset="100%"></stop></linearGradient></defs><g stroke-width="3.5" stroke="url(#oooscillate-grad)" fill="none" stroke-linecap="round"><path d="M 0 5439 Q 355.5 -100 711 400 Q 1066.5 900 1422 5439" opacity="0.61"></path><path d="M 0 5390 Q 355.5 -100 711 400 Q 1066.5 900 1422 5390" opacity="0.35"></path><path d="M 0 5341 Q 355.5 -100 711 400 Q 1066.5 900 1422 5341" opacity="0.70"></path><path d="M 0 5292 Q 355.5 -100 711 400 Q 1066.5 900 1422 5292" opacity="0.25"></path><path d="M 0 5243 Q 355.5 -100 711 400 Q 1066.5 900 1422 5243" opacity="0.43"></path><path d="M 0 5194 Q 355.5 -100 711 400 Q 1066.5 900 1422 5194" opacity="0.82"></path><path d="M 0 5145 Q 355.5 -100 711 400 Q 1066.5 900 1422 5145" opacity="0.33"></path><path d="M 0 5096 Q 355.5 -100 711 400 Q 1066.5 900 1422 5096" opacity="0.64"></path><path d="M 0 5047 Q 355.5 -100 711 400 Q 1066.5 900 1422 5047" opacity="0.78"></path><path d="M 0 4998 Q 355.5 -100 711 400 Q 1066.5 900 1422 4998" opacity="0.62"></path><path d="M 0 4949 Q 355.5 -100 711 400 Q 1066.5 900 1422 4949" opacity="0.70"></path><path d="M 0 4900 Q 355.5 -100 711 400 Q 1066.5 900 1422 4900" opacity="0.09"></path><path d="M 0 4851 Q 355.5 -100 711 400 Q 1066.5 900 1422 4851" opacity="0.27"></path><path d="M 0 4802 Q 355.5 -100 711 400 Q 1066.5 900 1422 4802" opacity="0.81"></path><path d="M 0 4753 Q 355.5 -100 711 400 Q 1066.5 900 1422 4753" opacity="0.88"></path><path d="M 0 4704 Q 355.5 -100 711 400 Q 1066.5 900 1422 4704" opacity="0.73"></path><path d="M 0 4655 Q 355.5 -100 711 400 Q 1066.5 900 1422 4655" opacity="0.82"></path><path d="M 0 4606 Q 355.5 -100 711 400 Q 1066.5 900 1422 4606" opacity="0.99"></path><path d="M 0 4557 Q 355.5 -100 711 400 Q 1066.5 900 1422 4557" opacity="0.36"></path><path d="M 0 4508 Q 355.5 -100 711 400 Q 1066.5 900 1422 4508" opacity="0.84"></path><path d="M 0 4459 Q 355.5 -100 711 400 Q 1066.5 900 1422 4459" opacity="0.41"></path><path d="M 0 4410 Q 355.5 -100 711 400 Q 1066.5 900 1422 4410" opacity="0.51"></path><path d="M 0 4361 Q 355.5 -100 711 400 Q 1066.5 900 1422 4361" opacity="0.14"></path><path d="M 0 4312 Q 355.5 -100 711 400 Q 1066.5 900 1422 4312" opacity="0.62"></path><path d="M 0 4263 Q 355.5 -100 711 400 Q 1066.5 900 1422 4263" opacity="0.67"></path><path d="M 0 4214 Q 355.5 -100 711 400 Q 1066.5 900 1422 4214" opacity="0.85"></path><path d="M 0 4165 Q 355.5 -100 711 400 Q 1066.5 900 1422 4165" opacity="0.47"></path><path d="M 0 4116 Q 355.5 -100 711 400 Q 1066.5 900 1422 4116" opacity="0.99"></path><path d="M 0 4067 Q 355.5 -100 711 400 Q 1066.5 900 1422 4067" opacity="0.33"></path><path d="M 0 4018 Q 355.5 -100 711 400 Q 1066.5 900 1422 4018" opacity="0.73"></path><path d="M 0 3969 Q 355.5 -100 711 400 Q 1066.5 900 1422 3969" opacity="0.24"></path><path d="M 0 3920 Q 355.5 -100 711 400 Q 1066.5 900 1422 3920" opacity="0.54"></path><path d="M 0 3871 Q 355.5 -100 711 400 Q 1066.5 900 1422 3871" opacity="0.80"></path><path d="M 0 3822 Q 355.5 -100 711 400 Q 1066.5 900 1422 3822" opacity="0.80"></path><path d="M 0 3773 Q 355.5 -100 711 400 Q 1066.5 900 1422 3773" opacity="0.43"></path><path d="M 0 3724 Q 355.5 -100 711 400 Q 1066.5 900 1422 3724" opacity="0.37"></path><path d="M 0 3675 Q 355.5 -100 711 400 Q 1066.5 900 1422 3675" opacity="0.25"></path><path d="M 0 3626 Q 355.5 -100 711 400 Q 1066.5 900 1422 3626" opacity="0.85"></path><path d="M 0 3577 Q 355.5 -100 711 400 Q 1066.5 900 1422 3577" opacity="0.71"></path><path d="M 0 3528 Q 355.5 -100 711 400 Q 1066.5 900 1422 3528" opacity="0.48"></path><path d="M 0 3479 Q 355.5 -100 711 400 Q 1066.5 900 1422 3479" opacity="0.86"></path><path d="M 0 3430 Q 355.5 -100 711 400 Q 1066.5 900 1422 3430" opacity="0.27"></path><path d="M 0 3381 Q 355.5 -100 711 400 Q 1066.5 900 1422 3381" opacity="0.88"></path><path d="M 0 3332 Q 355.5 -100 711 400 Q 1066.5 900 1422 3332" opacity="0.88"></path><path d="M 0 3283 Q 355.5 -100 711 400 Q 1066.5 900 1422 3283" opacity="0.99"></path><path d="M 0 3234 Q 355.5 -100 711 400 Q 1066.5 900 1422 3234" opacity="0.64"></path><path d="M 0 3185 Q 355.5 -100 711 400 Q 1066.5 900 1422 3185" opacity="0.56"></path><path d="M 0 3136 Q 355.5 -100 711 400 Q 1066.5 900 1422 3136" opacity="0.32"></path><path d="M 0 3087 Q 355.5 -100 711 400 Q 1066.5 900 1422 3087" opacity="0.28"></path><path d="M 0 3038 Q 355.5 -100 711 400 Q 1066.5 900 1422 3038" opacity="0.42"></path><path d="M 0 2989 Q 355.5 -100 711 400 Q 1066.5 900 1422 2989" opacity="0.14"></path><path d="M 0 2940 Q 355.5 -100 711 400 Q 1066.5 900 1422 2940" opacity="0.12"></path><path d="M 0 2891 Q 355.5 -100 711 400 Q 1066.5 900 1422 2891" opacity="0.93"></path><path d="M 0 2842 Q 355.5 -100 711 400 Q 1066.5 900 1422 2842" opacity="0.70"></path><path d="M 0 2793 Q 355.5 -100 711 400 Q 1066.5 900 1422 2793" opacity="0.86"></path><path d="M 0 2744 Q 355.5 -100 711 400 Q 1066.5 900 1422 2744" opacity="0.93"></path><path d="M 0 2695 Q 355.5 -100 711 400 Q 1066.5 900 1422 2695" opacity="0.25"></path><path d="M 0 2646 Q 355.5 -100 711 400 Q 1066.5 900 1422 2646" opacity="0.28"></path><path d="M 0 2597 Q 355.5 -100 711 400 Q 1066.5 900 1422 2597" opacity="0.23"></path><path d="M 0 2548 Q 355.5 -100 711 400 Q 1066.5 900 1422 2548" opacity="0.08"></path><path d="M 0 2499 Q 355.5 -100 711 400 Q 1066.5 900 1422 2499" opacity="0.58"></path><path d="M 0 2450 Q 355.5 -100 711 400 Q 1066.5 900 1422 2450" opacity="0.88"></path><path d="M 0 2401 Q 355.5 -100 711 400 Q 1066.5 900 1422 2401" opacity="0.12"></path><path d="M 0 2352 Q 355.5 -100 711 400 Q 1066.5 900 1422 2352" opacity="0.26"></path><path d="M 0 2303 Q 355.5 -100 711 400 Q 1066.5 900 1422 2303" opacity="0.74"></path><path d="M 0 2254 Q 355.5 -100 711 400 Q 1066.5 900 1422 2254" opacity="0.84"></path><path d="M 0 2205 Q 355.5 -100 711 400 Q 1066.5 900 1422 2205" opacity="0.35"></path><path d="M 0 2156 Q 355.5 -100 711 400 Q 1066.5 900 1422 2156" opacity="0.77"></path><path d="M 0 2107 Q 355.5 -100 711 400 Q 1066.5 900 1422 2107" opacity="0.24"></path><path d="M 0 2058 Q 355.5 -100 711 400 Q 1066.5 900 1422 2058" opacity="0.92"></path><path d="M 0 2009 Q 355.5 -100 711 400 Q 1066.5 900 1422 2009" opacity="0.99"></path><path d="M 0 1960 Q 355.5 -100 711 400 Q 1066.5 900 1422 1960" opacity="1.00"></path><path d="M 0 1911 Q 355.5 -100 711 400 Q 1066.5 900 1422 1911" opacity="0.10"></path><path d="M 0 1862 Q 355.5 -100 711 400 Q 1066.5 900 1422 1862" opacity="0.22"></path><path d="M 0 1813 Q 355.5 -100 711 400 Q 1066.5 900 1422 1813" opacity="0.09"></path><path d="M 0 1764 Q 355.5 -100 711 400 Q 1066.5 900 1422 1764" opacity="0.98"></path><path d="M 0 1715 Q 355.5 -100 711 400 Q 1066.5 900 1422 1715" opacity="0.75"></path><path d="M 0 1666 Q 355.5 -100 711 400 Q 1066.5 900 1422 1666" opacity="0.31"></path><path d="M 0 1617 Q 355.5 -100 711 400 Q 1066.5 900 1422 1617" opacity="0.43"></path><path d="M 0 1568 Q 355.5 -100 711 400 Q 1066.5 900 1422 1568" opacity="0.18"></path><path d="M 0 1519 Q 355.5 -100 711 400 Q 1066.5 900 1422 1519" opacity="0.31"></path><path d="M 0 1470 Q 355.5 -100 711 400 Q 1066.5 900 1422 1470" opacity="0.57"></path><path d="M 0 1421 Q 355.5 -100 711 400 Q 1066.5 900 1422 1421" opacity="0.34"></path><path d="M 0 1372 Q 355.5 -100 711 400 Q 1066.5 900 1422 1372" opacity="0.18"></path><path d="M 0 1323 Q 355.5 -100 711 400 Q 1066.5 900 1422 1323" opacity="0.64"></path><path d="M 0 1274 Q 355.5 -100 711 400 Q 1066.5 900 1422 1274" opacity="0.07"></path><path d="M 0 1225 Q 355.5 -100 711 400 Q 1066.5 900 1422 1225" opacity="0.89"></path><path d="M 0 1176 Q 355.5 -100 711 400 Q 1066.5 900 1422 1176" opacity="0.38"></path><path d="M 0 1127 Q 355.5 -100 711 400 Q 1066.5 900 1422 1127" opacity="0.34"></path><path d="M 0 1078 Q 355.5 -100 711 400 Q 1066.5 900 1422 1078" opacity="0.34"></path><path d="M 0 1029 Q 355.5 -100 711 400 Q 1066.5 900 1422 1029" opacity="0.95"></path><path d="M 0 980 Q 355.5 -100 711 400 Q 1066.5 900 1422 980" opacity="0.74"></path><path d="M 0 931 Q 355.5 -100 711 400 Q 1066.5 900 1422 931" opacity="0.74"></path><path d="M 0 882 Q 355.5 -100 711 400 Q 1066.5 900 1422 882" opacity="0.16"></path><path d="M 0 833 Q 355.5 -100 711 400 Q 1066.5 900 1422 833" opacity="0.71"></path><path d="M 0 784 Q 355.5 -100 711 400 Q 1066.5 900 1422 784" opacity="0.57"></path><path d="M 0 735 Q 355.5 -100 711 400 Q 1066.5 900 1422 735" opacity="0.21"></path><path d="M 0 686 Q 355.5 -100 711 400 Q 1066.5 900 1422 686" opacity="0.62"></path><path d="M 0 637 Q 355.5 -100 711 400 Q 1066.5 900 1422 637" opacity="0.38"></path><path d="M 0 588 Q 355.5 -100 711 400 Q 1066.5 900 1422 588" opacity="0.84"></path><path d="M 0 539 Q 355.5 -100 711 400 Q 1066.5 900 1422 539" opacity="0.19"></path><path d="M 0 490 Q 355.5 -100 711 400 Q 1066.5 900 1422 490" opacity="0.74"></path><path d="M 0 441 Q 355.5 -100 711 400 Q 1066.5 900 1422 441" opacity="0.40"></path><path d="M 0 392 Q 355.5 -100 711 400 Q 1066.5 900 1422 392" opacity="0.93"></path><path d="M 0 343 Q 355.5 -100 711 400 Q 1066.5 900 1422 343" opacity="0.95"></path><path d="M 0 294 Q 355.5 -100 711 400 Q 1066.5 900 1422 294" opacity="0.67"></path><path d="M 0 245 Q 355.5 -100 711 400 Q 1066.5 900 1422 245" opacity="0.74"></path><path d="M 0 196 Q 355.5 -100 711 400 Q 1066.5 900 1422 196" opacity="0.47"></path><path d="M 0 147 Q 355.5 -100 711 400 Q 1066.5 900 1422 147" opacity="0.28"></path><path d="M 0 98 Q 355.5 -100 711 400 Q 1066.5 900 1422 98" opacity="0.34"></path></g></svg>