<svg xmlns="http://www.w3.org/2000/svg" version="1.1" xmlns:xlink="http://www.w3.org/1999/xlink" xmlns:svgjs="http://svgjs.dev/svgjs" viewBox="0 0 1422 800" width="1422" height="800" opacity="1"><g transform="scale(3.3) rotate(0) translate(0 0) skewX(0) skewY(0)" transform-origin="711 400"><rect width="2844" height="1600" x="-711" y="-400" fill="url(#rrreplicate-pattern1)"></rect><rect width="2844" height="1600" x="-711" y="-400" fill="url(#rrreplicate-pattern2)"></rect><rect width="2844" height="1600" x="-711" y="-400" fill="url(#rrreplicate-pattern3)"></rect></g><defs><pattern id="rrreplicate-pattern1" width="516" height="516" patternUnits="userSpaceOnUse" patternTransform="rotate(26)" stroke-width="4" fill="none" stroke="#7c8cce" stroke-opacity="0.48">
      <line x1="32.25" y1="0" x2="32.25" y2="516"></line><line x1="96.75" y1="0" x2="96.75" y2="516"></line><line x1="161.25" y1="0" x2="161.25" y2="516"></line><line x1="225.75" y1="0" x2="225.75" y2="516"></line><line x1="290.25" y1="0" x2="290.25" y2="516"></line><line x1="354.75" y1="0" x2="354.75" y2="516"></line><line x1="419.25" y1="0" x2="419.25" y2="516"></line><line x1="483.75" y1="0" x2="483.75" y2="516"></line>
      </pattern><pattern id="rrreplicate-pattern2" width="516" height="516" patternUnits="userSpaceOnUse" patternTransform="rotate(30)" stroke-opacity="0.67" stroke-width="4" fill="none" stroke="#238968">
      <line x1="129" y1="0" x2="129" y2="516"></line><line x1="387" y1="0" x2="387" y2="516"></line>
      </pattern><pattern id="rrreplicate-pattern3" width="516" height="516" patternUnits="userSpaceOnUse" patternTransform="rotate(312)" stroke-opacity="1" stroke-width="1.8" fill="none" stroke="#ffe200">
      <line x1="43" y1="0" x2="43" y2="516"></line><line x1="129" y1="0" x2="129" y2="516"></line><line x1="215" y1="0" x2="215" y2="516"></line><line x1="301" y1="0" x2="301" y2="516"></line><line x1="387" y1="0" x2="387" y2="516"></line><line x1="473" y1="0" x2="473" y2="516"></line>
      </pattern></defs></svg>