<svg xmlns="http://www.w3.org/2000/svg" version="1.1" xmlns:xlink="http://www.w3.org/1999/xlink" xmlns:svgjs="http://svgjs.dev/svgjs" viewBox="0 0 800 800"><g><circle r="100" cx="0" cy="0" fill="hsl(38, 69%, 66%)"></circle><circle r="100" cx="0" cy="200" fill="hsl(55, 69%, 66%)"></circle><circle r="100" cx="0" cy="400" fill="hsl(52, 69%, 66%)"></circle><circle r="100" cx="0" cy="600" fill="hsl(42, 69%, 66%)"></circle><circle r="100" cx="0" cy="800" fill="hsl(56, 69%, 66%)"></circle><circle r="100" cx="200" cy="0" fill="hsl(24, 69%, 66%)"></circle><circle r="100" cx="200" cy="200" fill="hsl(39, 69%, 66%)"></circle><circle r="100" cx="200" cy="400" fill="hsl(56, 69%, 66%)"></circle><circle r="100" cx="200" cy="600" fill="hsl(29, 69%, 66%)"></circle><circle r="100" cx="200" cy="800" fill="hsl(25, 69%, 66%)"></circle><circle r="100" cx="400" cy="0" fill="hsl(10, 69%, 66%)"></circle><circle r="100" cx="400" cy="200" fill="hsl(26, 69%, 66%)"></circle><circle r="100" cx="400" cy="400" fill="hsl(34, 69%, 66%)"></circle><circle r="100" cx="400" cy="600" fill="hsl(33, 69%, 66%)"></circle><circle r="100" cx="400" cy="800" fill="hsl(30, 69%, 66%)"></circle><circle r="100" cx="600" cy="0" fill="hsl(55, 69%, 66%)"></circle><circle r="100" cx="600" cy="200" fill="hsl(49, 69%, 66%)"></circle><circle r="100" cx="600" cy="400" fill="hsl(50, 69%, 66%)"></circle><circle r="100" cx="600" cy="600" fill="hsl(32, 69%, 66%)"></circle><circle r="100" cx="600" cy="800" fill="hsl(45, 69%, 66%)"></circle><circle r="100" cx="800" cy="0" fill="hsl(1, 69%, 66%)"></circle><circle r="100" cx="800" cy="200" fill="hsl(38, 69%, 66%)"></circle><circle r="100" cx="800" cy="400" fill="hsl(37, 69%, 66%)"></circle><circle r="100" cx="800" cy="600" fill="hsl(38, 69%, 66%)"></circle><circle r="100" cx="800" cy="800" fill="hsl(40, 69%, 66%)"></circle></g><g transform="matrix(1,0,0,1,-100,0)"><circle r="100" cx="0" cy="100" fill="hsl(15, 69%, 66%)"></circle><circle r="100" cx="0" cy="300" fill="hsl(15, 69%, 66%)"></circle><circle r="100" cx="0" cy="500" fill="hsl(13, 69%, 66%)"></circle><circle r="100" cx="0" cy="700" fill="hsl(28, 69%, 66%)"></circle><circle r="100" cx="200" cy="100" fill="hsl(60, 69%, 66%)"></circle><circle r="100" cx="200" cy="300" fill="hsl(47, 69%, 66%)"></circle><circle r="100" cx="200" cy="500" fill="hsl(53, 69%, 66%)"></circle><circle r="100" cx="200" cy="700" fill="hsl(13, 69%, 66%)"></circle><circle r="100" cx="400" cy="100" fill="hsl(33, 69%, 66%)"></circle><circle r="100" cx="400" cy="300" fill="hsl(60, 69%, 66%)"></circle><circle r="100" cx="400" cy="500" fill="hsl(47, 69%, 66%)"></circle><circle r="100" cx="400" cy="700" fill="hsl(62, 69%, 66%)"></circle><circle r="100" cx="600" cy="100" fill="hsl(16, 69%, 66%)"></circle><circle r="100" cx="600" cy="300" fill="hsl(35, 69%, 66%)"></circle><circle r="100" cx="600" cy="500" fill="hsl(54, 69%, 66%)"></circle><circle r="100" cx="600" cy="700" fill="hsl(46, 69%, 66%)"></circle><circle r="100" cx="800" cy="100" fill="hsl(52, 69%, 66%)"></circle><circle r="100" cx="800" cy="300" fill="hsl(12, 69%, 66%)"></circle><circle r="100" cx="800" cy="500" fill="hsl(57, 69%, 66%)"></circle><circle r="100" cx="800" cy="700" fill="hsl(61, 69%, 66%)"></circle></g></svg>