<svg xmlns="http://www.w3.org/2000/svg" version="1.1" xmlns:xlink="http://www.w3.org/1999/xlink" xmlns:svgjs="http://svgjs.dev/svgjs" viewBox="0 0 800 800"><defs><filter id="ssspot-filter" x="-20%" y="-20%" width="140%" height="140%" filterUnits="objectBoundingBox" primitiveUnits="userSpaceOnUse" color-interpolation-filters="sRGB">
	<feTurbulence type="turbulence" baseFrequency="0.022 0.218" numOctaves="2" seed="49" stitchTiles="stitch" x="0%" y="0%" width="100%" height="100%" result="turbulence"></feTurbulence>
	<feGaussianBlur stdDeviation="0 3" x="0%" y="0%" width="100%" height="100%" in="turbulence" edgeMode="duplicate" result="blur"></feGaussianBlur>
	<feDisplacementMap in="SourceGraphic" in2="blur" scale="32" xChannelSelector="R" yChannelSelector="B" x="0%" y="0%" width="100%" height="100%" result="displacementMap"></feDisplacementMap>
</filter></defs><rect width="100%" height="100%" fill="hsl(32, 100%, 89%)"></rect><g fill="hsl(32, 50%, 66%)" filter="url(#ssspot-filter)"><circle r="6.4619810076934066" cx="724.078225235696" cy="126.28469222009139" opacity="0.19231043156870145"></circle><circle r="9.273564041940972" cx="45.375612397621246" cy="373.5237161470793" opacity="0.8082520584595712"></circle><circle r="7.184559694365292" cx="506.9640847753768" cy="781.7304903826398" opacity="0.6285008010898783"></circle><circle r="5.816234177199474" cx="562.6525235955766" cy="488.8919934322623" opacity="0.7007918486626199"></circle><circle r="6.543702070291953" cx="548.018000521465" cy="273.27669262574466" opacity="0.6653039691895006"></circle><circle r="6.595045229123998" cx="352.72399965631627" cy="680.1928121508829" opacity="0.8272062348746322"></circle><circle r="5.837218574541853" cx="268.50499689923925" cy="48.73977823263525" opacity="0.7970307888257684"></circle><circle r="5.948537562561633" cx="681.9429762744447" cy="313.6316713041953" opacity="0.10980218151216495"></circle><circle r="5.02131694711295" cx="130.0995922715525" cy="247.07617722952153" opacity="0.34071720854179577"></circle><circle r="5.473672110618588" cx="87.18787503805464" cy="341.518660129314" opacity="0.21256878783503413"></circle><circle r="7.555439712133749" cx="352.25335176551096" cy="200.68586163868568" opacity="0.6759546764432988"></circle><circle r="2.8616120279111406" cx="610.8185067198555" cy="398.2307502955037" opacity="0.4240316365718435"></circle><circle r="8.170009670835068" cx="471.61037016183855" cy="418.6389996783877" opacity="0.48511735699407077"></circle><circle r="5.913643590505955" cx="781.3097927269712" cy="405.56758192166825" opacity="0.6225990592844971"></circle><circle r="8.75782378353172" cx="160.33188099524702" cy="522.8086007172407" opacity="0.30273928052498555"></circle><circle r="4.918320361869111" cx="182.082210118051" cy="736.1367214139499" opacity="0.9260882745287271"></circle><circle r="6.618375841968037" cx="783.371506076963" cy="298.87367731742034" opacity="0.6681210234646715"></circle><circle r="3.7945907946754955" cx="429.99459939778484" cy="446.4527463639499" opacity="0.7956966581498077"></circle><circle r="5.903206014004034" cx="737.6809816501949" cy="634.839681337144" opacity="0.6790862801018749"></circle><circle r="6.2200968045791685" cx="571.551170870786" cy="397.7217712184364" opacity="0.7221491437604932"></circle><circle r="5.113684680914388" cx="351.6395744468063" cy="167.44295960478294" opacity="0.8613369681246978"></circle><circle r="4.757316769375371" cx="725.2159125255066" cy="188.54669136935578" opacity="0.34535482507082177"></circle><circle r="8.656819646064829" cx="564.4784140762849" cy="640.6760089354294" opacity="0.5044272254204698"></circle><circle r="5.743599943014878" cx="281.31628641431666" cy="478.01068148005925" opacity="0.956244597787455"></circle><circle r="6.673704646380665" cx="492.5282253691461" cy="501.3939884656318" opacity="0.20225747064829327"></circle><circle r="5.925850322334675" cx="392.12146552448564" cy="584.8350028317524" opacity="0.6580435412014105"></circle><circle r="4.236097178087814" cx="671.6997342189385" cy="344.7967860314384" opacity="0.3905423906111869"></circle><circle r="4.9129293996809675" cx="108.56288135427145" cy="689.2425505188224" opacity="0.9221438235726912"></circle><circle r="9.22782859095237" cx="490.32311451244266" cy="382.6248558246255" opacity="0.14355553953619962"></circle><circle r="6.6841574828069295" cx="215.26157995200913" cy="283.99844759534494" opacity="0.9285911070768323"></circle><circle r="4.964744491343724" cx="214.56441361910115" cy="361.1738226860122" opacity="0.3523539328972727"></circle><circle r="4.775085389177763" cx="123.87371137251819" cy="278.6007477429997" opacity="0.5574333381924766"></circle><circle r="9.38265591517773" cx="106.6595991478423" cy="517.1777434962077" opacity="0.5646095437640616"></circle><circle r="9.288460562282872" cx="554.6606777870961" cy="79.73703150528505" opacity="0.2807135452830294"></circle><circle r="4.35267859097305" cx="141.86307474348055" cy="48.1691271799827" opacity="0.8494545187724126"></circle><circle r="7.714048017486384" cx="558.4244224898139" cy="783.8325046596042" opacity="0.14252825316583365"></circle><circle r="5.676829041656453" cx="385.1902874722589" cy="632.1606012744882" opacity="0.25521119189286623"></circle><circle r="4.462676962766344" cx="599.8396252385154" cy="511.0373005976763" opacity="0.10797778489971353"></circle><circle r="7.242444792261497" cx="392.67630167006024" cy="320.00935642936577" opacity="0.7450409136480696"></circle><circle r="6.27302833425689" cx="100.08523444803207" cy="83.00685469584788" opacity="0.9451892573058807"></circle><circle r="5.698031513518585" cx="96.65304390688665" cy="572.2165109824421" opacity="0.6495675942703708"></circle><circle r="4.878450265684455" cx="270.72212267799625" cy="395.1693033885246" opacity="0.38039178175039134"></circle><circle r="2.7808963876991015" cx="601.775395061707" cy="378.86712098436493" opacity="0.6193789001540905"></circle><circle r="6.740320347044545" cx="408.9480497326602" cy="467.6773373785456" opacity="0.23960459188356617"></circle><circle r="7.95746699591621" cx="644.7274660628232" cy="16.549241364441993" opacity="0.5510414894546037"></circle><circle r="5.041627555205047" cx="40.87504935416564" cy="331.82630153823686" opacity="0.15556641972616497"></circle><circle r="5.885960010385089" cx="674.5403135475027" cy="554.2595534081531" opacity="0.11418657069985676"></circle><circle r="6.022032628556819" cx="735.5318662363917" cy="522.5582924967588" opacity="0.9592056857714658"></circle><circle r="3.8952458534020877" cx="155.44933029075554" cy="152.95696858379108" opacity="0.4287582855294564"></circle><circle r="4.730667705164922" cx="448.32878765324307" cy="507.32281297343536" opacity="0.7558924841857518"></circle><circle r="8.439738729168214" cx="724.3590594809232" cy="256.45286041352716" opacity="0.8994775294758368"></circle><circle r="6.455973232938702" cx="394.8387585085506" cy="197.0686070345628" opacity="0.8863103012452395"></circle><circle r="8.409616538425254" cx="598.5425275146379" cy="660.8217188874529" opacity="0.25885588187491015"></circle><circle r="7.302797930046988" cx="265.47221249674885" cy="612.0068094977041" opacity="0.6540484240543353"></circle><circle r="4.832887622387139" cx="64.09085878995052" cy="10.581611757074418" opacity="0.7357380762282776"></circle><circle r="7.635061725904759" cx="429.5922656487128" cy="685.8133103572582" opacity="0.2153740875166439"></circle><circle r="4.195761759290697" cx="726.0841502177589" cy="720.109357622599" opacity="0.9900179470037725"></circle><circle r="5.178182559543384" cx="148.2985548066779" cy="779.1746726959157" opacity="0.11351522124145969"></circle><circle r="7.421002925610327" cx="12.156869346955041" cy="66.38082064653423" opacity="0.29453809462318825"></circle><circle r="5.827667973910955" cx="263.1663475809816" cy="114.48497924238733" opacity="0.12940087733645217"></circle><circle r="9.917145497363599" cx="146.6857282419278" cy="704.8902879196153" opacity="0.5432376664942934"></circle><circle r="6.423077523961924" cx="517.9485231685052" cy="67.88990752584822" opacity="0.743136224007108"></circle><circle r="5.283355753643105" cx="196.86892603597568" cy="318.36342341073896" opacity="0.590872881795336"></circle><circle r="6.3031888373585065" cx="13.949411134060762" cy="734.4128467007018" opacity="0.605797691020064"></circle><circle r="8.216628575524531" cx="67.91390557338647" cy="695.9349168555782" opacity="0.10080640266919474"></circle><circle r="6.57937979096262" cx="629.7502726757889" cy="121.81127925757347" opacity="0.6539100858304485"></circle><circle r="6.11000360463944" cx="632.0524058124504" cy="183.8279419219143" opacity="0.12610425542718928"></circle><circle r="7.914262437028931" cx="546.2127472802015" cy="550.6253436268785" opacity="0.7058362986307402"></circle><circle r="4.686840096570882" cx="462.7036078718029" cy="653.7837855882332" opacity="0.3768256111009207"></circle><circle r="3.867933002812634" cx="696.8346914471944" cy="210.0225203003321" opacity="0.25867452230003496"></circle><circle r="7.247641813420732" cx="384.1763980229611" cy="66.1293575437484" opacity="0.8438971714363624"></circle><circle r="8.759762332324902" cx="670.484097168105" cy="596.6804386054488" opacity="0.4649777611130138"></circle><circle r="7.327102094198267" cx="351.70471485352283" cy="565.1335867709979" opacity="0.9361823401749226"></circle><circle r="6.842446851420455" cx="515.4146312247178" cy="461.6281301988689" opacity="0.20502175489020513"></circle><circle r="7.455015842129695" cx="47.768284410051976" cy="290.3516980085324" opacity="0.6874068515009951"></circle><circle r="3.9345682591964732" cx="141.66815660100215" cy="78.38229458463329" opacity="0.9391088080302304"></circle><circle r="5.043808910686172" cx="12.425744678503023" cy="426.89712342859025" opacity="0.23065428522984177"></circle><circle r="6.439954684004526" cx="353.64339748864387" cy="398.8831884025867" opacity="0.93535125792423"></circle><circle r="9.165405724867536" cx="244.69552665455228" cy="310.3826216230775" opacity="0.716151967194553"></circle><circle r="6.848436869199578" cx="778.5143765093965" cy="549.4441310852801" opacity="0.728851742683958"></circle><circle r="3.975122971499718" cx="520.643584517654" cy="643.4159256871347" opacity="0.5183694849888771"></circle><circle r="3.439916250311044" cx="467.1073759645871" cy="11.654934710523905" opacity="0.954505347609064"></circle><circle r="6.38710703305815" cx="391.52991312325" cy="744.4026397015426" opacity="0.17128519988007318"></circle><circle r="3.8953364487724067" cx="756.2234842727335" cy="482.98739580423023" opacity="0.7513725053801986"></circle><circle r="6.690665713282447" cx="462.57461520603135" cy="298.37397195520083" opacity="0.5692516886333001"></circle><circle r="2.8254862002200976" cx="422.13427355381" cy="338.131870519672" opacity="0.6600154491007318"></circle><circle r="8.671687655073775" cx="14.730648768365617" cy="493.0762716429153" opacity="0.2517271699293867"></circle><circle r="6.642586604657542" cx="464.5441761325441" cy="67.0075393909754" opacity="0.14578483573492246"></circle><circle r="3.83045427121587" cx="341.37330451440636" cy="19.389449984808536" opacity="0.6335884724629756"></circle><circle r="7.522760832160719" cx="31.653191392869594" cy="701.6775012729088" opacity="0.45599561604121797"></circle><circle r="8.200953829121707" cx="488.6821110460574" cy="265.86288638933473" opacity="0.1357906882040916"></circle><circle r="5.619019483062035" cx="10.260606296040187" cy="21.209727573265166" opacity="0.6042096392463349"></circle><circle r="4.141468481456603" cx="241.17114222374403" cy="349.0838961908067" opacity="0.9520822304191742"></circle><circle r="6.641081921187432" cx="528.515024364657" cy="669.3851809035878" opacity="0.148679526080837"></circle><circle r="5.863094111892095" cx="536.1479517741601" cy="498.74564040219275" opacity="0.2528719832334128"></circle><circle r="5.918737843449012" cx="622.2661207336" cy="463.7818115830731" opacity="0.7795263158754661"></circle><circle r="7.938762606367611" cx="601.8187009848805" cy="778.5966840162007" opacity="0.6333833454073385"></circle><circle r="6.974030666581273" cx="35.951808020928816" cy="184.32567131919367" opacity="0.30550875931098265"></circle><circle r="4.366529368020689" cx="628.5629933942184" cy="74.5097451118857" opacity="0.3811016158727273"></circle><circle r="4.003807877453244" cx="83.45404413618773" cy="175.5050897749005" opacity="0.6457413896574483"></circle><circle r="6.228201991797993" cx="685.0896139163331" cy="241.18487804295623" opacity="0.8021300006838292"></circle><circle r="7.515587173815005" cx="279.0009577944304" cy="206.91175978567136" opacity="0.3598769846425366"></circle><circle r="4.06299952734999" cx="654.3727999039166" cy="377.6867282888938" opacity="0.9672598933680674"></circle><circle r="5.305728029861819" cx="693.3135460760601" cy="761.0669960676825" opacity="0.18611377802744622"></circle><circle r="5.438402146821403" cx="698.0808863341945" cy="697.7031048802982" opacity="0.6094664025699571"></circle><circle r="4.242103806623488" cx="551.0346218337556" cy="385.00603911751057" opacity="0.15013401253189265"></circle><circle r="5.85190432885474" cx="701.0328411704335" cy="151.49727994316873" opacity="0.3919242754441299"></circle><circle r="6.842912381756452" cx="681.0696014550313" cy="65.17774368234018" opacity="0.4231740470302302"></circle><circle r="5.493123988163668" cx="293.29753725021334" cy="273.641811837176" opacity="0.4881031981631603"></circle><circle r="4.9733878849666215" cx="206.01256470241955" cy="707.9258716489873" opacity="0.7433137604296521"></circle><circle r="6.859768240900493" cx="693.2914880801977" cy="523.8323627335606" opacity="0.3681268318396844"></circle><circle r="9.984412455348586" cx="127.91814390719067" cy="556.6145884176237" opacity="0.3365564437997946"></circle><circle r="2.8261822194272863" cx="586.9463338136244" cy="349.1209217159009" opacity="0.6542524889549599"></circle><circle r="6.44839055869139" cx="76.29316754705368" cy="543.385886303194" opacity="0.7227808310086158"></circle><circle r="5.3894261851414145" cx="349.21981360302016" cy="130.7227331533819" opacity="0.5516018734334985"></circle><circle r="4.979632045320439" cx="122.95850457183788" cy="102.26735418889561" opacity="0.43124684788225554"></circle><circle r="5.356436611231244" cx="691.6785235821413" cy="787.9074059353339" opacity="0.30066287394571345"></circle><circle r="6.3556363842404275" cx="228.73574991305657" cy="130.11397439880224" opacity="0.9411677120738235"></circle><circle r="4.779873839355782" cx="228.9734002277668" cy="457.16487347945565" opacity="0.5703029678177319"></circle><circle r="5.515200507871752" cx="503.2993225910165" cy="135.58982228772047" opacity="0.952815748742915"></circle><circle r="7.5246835771315315" cx="637.7890464021247" cy="669.0183705871563" opacity="0.22125151714259003"></circle><circle r="6.046681522441465" cx="391.8445547735805" cy="664.0265181729178" opacity="0.22053748231298786"></circle><circle r="6.620817432813076" cx="324.25256711605556" cy="345.44112146346237" opacity="0.9647755926836656"></circle><circle r="5.770891935016409" cx="548.1554200381662" cy="355.6222204484233" opacity="0.8153950672230734"></circle><circle r="8.0822246883563" cx="491.80819464218905" cy="734.6910705927365" opacity="0.5403454981817293"></circle><circle r="10.439979692271873" cx="199.60648834143407" cy="538.5476424516926" opacity="0.31773831658048945"></circle><circle r="5.835604164812421" cx="331.1031416225555" cy="224.5744355528025" opacity="0.8525519074653554"></circle><circle r="9.304321451857039" cx="564.5492171774498" cy="693.3924826141266" opacity="0.5819803952856265"></circle><circle r="5.283848810221123" cx="423.39031846711606" cy="294.65776455337607" opacity="0.4752753667292875"></circle><circle r="4.064518155890826" cx="43.54382893896288" cy="25.405553790481157" opacity="0.1495848976678569"></circle><circle r="5.402074747185191" cx="316.2367172026246" cy="664.5378652483234" opacity="0.3458921176073215"></circle><circle r="9.988267062334764" cx="230.37559175294314" cy="748.7818877950152" opacity="0.13975319076344472"></circle><circle r="4.587102759881414" cx="364.37963655224746" cy="47.34982261804064" opacity="0.33150791724800927"></circle><circle r="4.715389314912699" cx="575.5698135321538" cy="143.83053666459904" opacity="0.42480637041431635"></circle><circle r="6.094925690140036" cx="556.5352327914424" cy="327.7139339822366" opacity="0.3963295501171731"></circle><circle r="7.284229174840954" cx="656.305507348363" cy="459.8906405083463" opacity="0.702199268085414"></circle><circle r="8.742259187432545" cx="781.2735064926335" cy="595.5730839392932" opacity="0.8026188574765859"></circle><circle r="3.458331340763337" cx="9.822421897893623" cy="682.7781457418113" opacity="0.6959675837361043"></circle><circle r="5.46899838989207" cx="465.01902741183943" cy="329.4792863616212" opacity="0.7599074223893924"></circle><circle r="6.479682815784587" cx="91.94255815412589" cy="24.143600788745676" opacity="0.3516080853225333"></circle><circle r="6.305031911992305" cx="533.3394814313687" cy="751.2608411533878" opacity="0.3656616415805035"></circle><circle r="4.4925013939675456" cx="728.1932020165318" cy="691.5701586167768" opacity="0.3730855153362187"></circle><circle r="4.415500949346353" cx="288.4999250328469" cy="787.9034217322395" opacity="0.8275611444329865"></circle><circle r="5.019186499764707" cx="276.95775672594243" cy="19.707162867989634" opacity="0.625590663137525"></circle><circle r="6.176478602491326" cx="268.13164117630805" cy="354.6284058464439" opacity="0.5758055655556938"></circle><circle r="5.407336947870115" cx="591.2071060488449" cy="483.35730991285965" opacity="0.12857567644215104"></circle><circle r="5.657640213088785" cx="750.6258881080528" cy="711.1124616621094" opacity="0.41852334431864624"></circle><circle r="3.160187307232492" cx="638.6402038328885" cy="485.33560032936623" opacity="0.15170744684405948"></circle><circle r="5.6048223384267075" cx="647.5381697723411" cy="50.01990576144708" opacity="0.7253357863635909"></circle><circle r="4.914981660242461" cx="342.03453008542414" cy="286.3470404084178" opacity="0.6068853184470642"></circle><circle r="5.742755165948904" cx="619.2291370760626" cy="223.31905600238832" opacity="0.38857184637554854"></circle><circle r="4.889466143601121" cx="588.7107200846024" cy="293.75998972833077" opacity="0.2683558066742947"></circle><circle r="5.131695990396907" cx="664.4280445581428" cy="188.75080243971803" opacity="0.9894463454029105"></circle><circle r="5.520187584443862" cx="630.8435553164634" cy="510.00234038751336" opacity="0.3699897945511126"></circle><circle r="5.039074290409151" cx="596.5846516981458" cy="597.6071647897576" opacity="0.7842026433607489"></circle><circle r="6.679129040834228" cx="226.56193992489435" cy="588.5756741014083" opacity="0.2823611316399325"></circle><circle r="4.04906832201076" cx="178.86055160923618" cy="375.023963373321" opacity="0.6717470343631691"></circle><circle r="4.224544596309413" cx="611.9264192299327" cy="539.4551075914766" opacity="0.9990117558209084"></circle><circle r="6.139232680652675" cx="451.8088568041097" cy="477.6671024243064" opacity="0.9782420298431987"></circle><circle r="7.0817919698584335" cx="693.7302366267724" cy="19.072040662544243" opacity="0.9734175837362421"></circle><circle r="6.492954857341937" cx="314.8398615309894" cy="313.80302797547756" opacity="0.9534313289475922"></circle><circle r="7.64800805963462" cx="87.85358395581133" cy="727.2214258692675" opacity="0.26391185137644324"></circle><circle r="6.992710601381113" cx="279.2102471759992" cy="750.6651162387689" opacity="0.3044106822717647"></circle><circle r="4.613796281704238" cx="379.14007356722055" cy="489.32584889167003" opacity="0.9639131317462092"></circle><circle r="4.842115910720696" cx="231.9099859190522" cy="23.307594872055247" opacity="0.10786667010327233"></circle><circle r="4.66820431833785" cx="321.02644409835193" cy="259.31556242620263" opacity="0.8902110057415658"></circle><circle r="4.540725256378554" cx="562.4292663675587" cy="591.4758176749197" opacity="0.8207252826315637"></circle><circle r="4.134333683411942" cx="386.67384021250774" cy="380.51232795386693" opacity="0.7851865474369212"></circle><circle r="4.3346829869392165" cx="318.87256571552547" cy="568.3126710707944" opacity="0.5473462412766081"></circle><circle r="8.732303051053238" cx="698.9087348504007" cy="449.9891068862889" opacity="0.5689732003835085"></circle><circle r="4.668604515269499" cx="751.1430418998924" cy="166.9750320313222" opacity="0.318554616902805"></circle><circle r="5.506222661330844" cx="84.42023817604475" cy="488.2553615268759" opacity="0.3756471974258344"></circle><circle r="3.397833329130083" cx="373.68461621853356" cy="28.813979852282362" opacity="0.7606926478762066"></circle><circle r="7.013838209076672" cx="330.0008674707572" cy="375.3039629794353" opacity="0.7082556891260988"></circle><circle r="4.795194963008878" cx="709.6435633368748" cy="407.47822690019296" opacity="0.2985346572265376"></circle><circle r="5.179676659787643" cx="71.89338250222345" cy="262.3053147460323" opacity="0.6085468026603363"></circle><circle r="4.9502237721281706" cx="164.00559049545697" cy="201.6733224814389" opacity="0.429352903779309"></circle><circle r="6.338197127423035" cx="240.73445935287273" cy="783.389500281138" opacity="0.9482820153276141"></circle><circle r="5.899195672726124" cx="108.20995830750564" cy="760.8583666517978" opacity="0.32099348643999515"></circle><circle r="6.457875400806852" cx="17.555523289700385" cy="154.846832534991" opacity="0.5162763750041188"></circle><circle r="7.753073326188725" cx="749.7478221329928" cy="567.0523668005226" opacity="0.558412434089513"></circle><circle r="5.932814624855974" cx="422.1812760267698" cy="387.3082570291894" opacity="0.21304425829024107"></circle><circle r="2.839240134535361" cx="106.15907291643686" cy="788.8666233644841" opacity="0.22914516586053554"></circle><circle r="3.4577229363399047" cx="318.8536126886388" cy="13.419988907631026" opacity="0.5955371486424369"></circle><circle r="8.906684631893382" cx="389.71064017556535" cy="145.05592635941653" opacity="0.6865712312735541"></circle><circle r="7.429831217838328" cx="757.5897552910021" cy="443.2421813784865" opacity="0.24795654390603394"></circle><circle r="4.960577871958064" cx="502.2046747062021" cy="104.89506820012951" opacity="0.1716822339402729"></circle><circle r="4.70129923021468" cx="203.72195114481102" cy="412.2606844053008" opacity="0.6429018515873877"></circle><circle r="6.7295677025812894" cx="558.8351392061826" cy="237.31397386876196" opacity="0.4270434602028925"></circle><circle r="7.032647897709904" cx="362.80859723240366" cy="733.819299778104" opacity="0.4134912906071587"></circle><circle r="4.25103746089618" cx="749.411286685141" cy="208.39912475408735" opacity="0.7726100862286228"></circle><circle r="7.231199790473073" cx="561.8698330805049" cy="38.63446110673135" opacity="0.5926340562509401"></circle><circle r="4.767267853383787" cx="244.94892214433645" cy="206.65764282004952" opacity="0.6808671054746247"></circle><circle r="3.2359035032858348" cx="763.7131504155541" cy="142.11358336794024" opacity="0.9432548997854473"></circle><circle r="8.82350441093758" cx="91.92411501282515" cy="299.2110049041813" opacity="0.7348305201318358"></circle><circle r="5.4693813275661824" cx="591.2118733844043" cy="408.3626682110774" opacity="0.7855768378155191"></circle><circle r="4.203912884924559" cx="88.11783736741336" cy="448.12988870031444" opacity="0.5593810082583262"></circle><circle r="9.146075928026555" cx="659.6474917986752" cy="147.48759561850767" opacity="0.44273163663407755"></circle><circle r="7.941917896346876" cx="633.0142403199372" cy="264.44786966378143" opacity="0.6895304563196949"></circle><circle r="6.429477758824212" cx="553.1631290745798" cy="457.8590670683782" opacity="0.5428762517251219"></circle><circle r="8.438717044163527" cx="278.27224892734847" cy="683.4959269038983" opacity="0.6325400678047023"></circle><circle r="7.987989357884966" cx="525.0727371461021" cy="240.21482665623734" opacity="0.30052210883585034"></circle><circle r="6.709907094040251" cx="424.6208066294599" cy="740.7962713816408" opacity="0.2135962239089631"></circle><circle r="9.15336071197311" cx="290.20977541210976" cy="148.02030304370084" opacity="0.7551289651784195"></circle><circle r="4.9571814793364615" cx="474.0862435991601" cy="96.16775128455028" opacity="0.29147298543552147"></circle><circle r="5.818856942605003" cx="507.3815732121312" cy="614.3557939255896" opacity="0.42036762897779933"></circle><circle r="9.61843498455043" cx="391.0438138746942" cy="701.8121272788071" opacity="0.5837853383017314"></circle><circle r="7.707718387098088" cx="771.0445631405942" cy="243.65656842481195" opacity="0.9814925938432052"></circle><circle r="6.456081958038944" cx="548.2714632965192" cy="199.74922912612402" opacity="0.48127671417613616"></circle><circle r="5.846472141500325" cx="392.2189381542148" cy="555.9481266561351" opacity="0.910544619460542"></circle><circle r="9.590854095503891" cx="441.8761127553208" cy="116.51314154052349" opacity="0.13380015480595409"></circle><circle r="8.012211302499146" cx="676.1492690459748" cy="735.102610523599" opacity="0.7541836105439196"></circle><circle r="5.091481313189348" cx="525.204777680057" cy="391.31230288229096" opacity="0.14726581387337423"></circle><circle r="6.57711817901897" cx="408.06567324461435" cy="244.24597864020456" opacity="0.7892965042344469"></circle><circle r="6.235080951710219" cx="174.0130164484934" cy="344.66208199934226" opacity="0.5264276632060617"></circle><circle r="6.060066244828574" cx="599.0175673820088" cy="452.3127804032481" opacity="0.6583306459038941"></circle><circle r="4.417327219905109" cx="226.5475592706339" cy="68.96481854019403" opacity="0.9663771653038633"></circle><circle r="5.719053584670774" cx="638.8983210326821" cy="429.38232421790474" opacity="0.5732223835755427"></circle><circle r="4.883558141735394" cx="102.45219934644624" cy="640.0277039251782" opacity="0.504551470391725"></circle><circle r="3.6865865301429563" cx="487.08887690641393" cy="633.8086118520993" opacity="0.4767898214472247"></circle><circle r="3.6755061191771854" cx="303.3381508249941" cy="224.9491164767455" opacity="0.26402364793300936"></circle><circle r="6.121869908546353" cx="588.5435805014508" cy="262.16439120252636" opacity="0.3881461347088304"></circle><circle r="6.581589587520382" cx="362.3079708186218" cy="529.9481081876207" opacity="0.2688346290362151"></circle><circle r="6.334054140376557" cx="193.4683700527864" cy="126.24429300570385" opacity="0.1125137505152592"></circle><circle r="5.804899242504442" cx="444.29905448695297" cy="594.0779858940244" opacity="0.22521843730152524"></circle><circle r="6.928720361160083" cx="230.88653017259475" cy="653.9443798403045" opacity="0.5120688056332724"></circle><circle r="3.6264238828649087" cx="73.72228980235467" cy="139.60152647104255" opacity="0.756957829944585"></circle><circle r="6.633965858996788" cx="135.19021316839016" cy="211.68568027688804" opacity="0.7428910989472509"></circle><circle r="5.250150077039147" cx="395.35334338411633" cy="523.4110422354493" opacity="0.9796694423692595"></circle><circle r="8.990409748161053" cx="477.4556782551777" cy="457.25385149937546" opacity="0.47943661010039873"></circle><circle r="3.671588546644132" cx="556.47520566125" cy="169.44995568708518" opacity="0.1328759764697347"></circle><circle r="5.71030879710686" cx="784.2398688855309" cy="20.512979106093226" opacity="0.4192539238289896"></circle><circle r="5.526181888340041" cx="638.4253702449253" cy="401.43649193931407" opacity="0.9763225069946557"></circle><circle r="5.150101133100639" cx="431.66298176671046" cy="568.3011990194765" opacity="0.4616162230267802"></circle><circle r="6.000087891241472" cx="663.3645930285869" cy="508.9407119903087" opacity="0.5932575863363649"></circle><circle r="8.330691937519823" cx="132.9799386480835" cy="374.1342317710393" opacity="0.268001748545326"></circle><circle r="5.681962153682866" cx="51.58825558325994" cy="415.02266436300744" opacity="0.9393792081963849"></circle><circle r="5.620543743502986" cx="199.27579766904375" cy="44.01034563163301" opacity="0.7426367913440601"></circle><circle r="4.795013675051882" cx="121.1082008217554" cy="23.683766468915287" opacity="0.41834066594283115"></circle><circle r="7.627295599790374" cx="403.64571953794206" cy="102.06704015975443" opacity="0.4369159136990224"></circle><circle r="4.675317052833697" cx="785.4779898463388" cy="121.98813647634206" opacity="0.3075262200150126"></circle><circle r="8.64610473748364" cx="377.29246041607195" cy="781.2628030098533" opacity="0.12820582907097994"></circle><circle r="8.097468363738297" cx="41.120828692311335" cy="569.321891995416" opacity="0.1523081103354802"></circle><circle r="6.35070867056162" cx="18.63173028423535" cy="398.2628961232748" opacity="0.10241675427015684"></circle><circle r="5.994140583751797" cx="355.7594961170607" cy="315.8018225908595" opacity="0.7803700091549874"></circle><circle r="3.7301057059061904" cx="47.13969660117602" cy="68.03758387495256" opacity="0.4222059484653704"></circle><circle r="3.933834623191029" cx="436.64602658025615" cy="414.80059251788487" opacity="0.853667584395618"></circle><circle r="6.175103836793916" cx="100.35578373194787" cy="191.12039239428765" opacity="0.5927555488296393"></circle><circle r="5.261957480387318" cx="502.7523280767304" cy="302.50492217084775" opacity="0.4360118498260267"></circle><circle r="5.764943415620382" cx="53.18248626082608" cy="513.4592338126798" opacity="0.2984363654021733"></circle><circle r="5.009666582730702" cx="31.528977010509266" cy="44.65879656007567" opacity="0.760975606310566"></circle><circle r="6.908529373015328" cx="62.48760739028892" cy="115.92057607821386" opacity="0.8213733317625402"></circle><circle r="6.076197177414811" cx="692.9325279013667" cy="178.02001634593756" opacity="0.22293234754528535"></circle><circle r="6.726291714447498" cx="173.81337439710475" cy="407.41619679622244" opacity="0.47335947679027734"></circle><circle r="6.015674065896739" cx="593.3754659424302" cy="57.78593851441489" opacity="0.2588052141557791"></circle><circle r="5.040422674786667" cx="456.8735253045271" cy="39.34391979067169" opacity="0.6658009717813185"></circle><circle r="5.90074966416395" cx="361.1617324637962" cy="243.69712972500736" opacity="0.5089993859679443"></circle><circle r="3.6875999932669212" cx="30.87531601035397" cy="9.514179596747521" opacity="0.19881006251431682"></circle><circle r="4.4985011321823185" cx="207.7570610951068" cy="786.1658362673296" opacity="0.33350990195124053"></circle><circle r="4.409552367090711" cx="519.6988319600031" cy="424.5407208177467" opacity="0.3156737151269962"></circle><circle r="7.108680296077298" cx="747.3575269420193" cy="20.5072871915479" opacity="0.924861503916615"></circle><circle r="6.200301965977259" cx="152.0240311122074" cy="115.34248139001997" opacity="0.9199609169623785"></circle><circle r="4.604148500614781" cx="442.8236061336337" cy="333.1169225167905" opacity="0.8390311049999327"></circle><circle r="5.900621101427095" cx="66.08251590281773" cy="41.856365089006815" opacity="0.5278707058385678"></circle><circle r="7.007073014437774" cx="493.2395693752582" cy="225.7844297396777" opacity="0.9849833592966984"></circle><circle r="5.214694956567684" cx="659.5516148558082" cy="695.8298737954585" opacity="0.8743191865370435"></circle><circle r="3.8149456797856187" cx="621.476452622297" cy="372.20551749720136" opacity="0.813978573250903"></circle><circle r="5.252235674506045" cx="420.28527758687426" cy="607.3671568395501" opacity="0.2050965235273421"></circle><circle r="4.749405533321488" cx="454.34203263848417" cy="260.3179428239843" opacity="0.6902023323763484"></circle><circle r="8.130969250331084" cx="282.19185388314963" cy="644.3370221901718" opacity="0.9506455113555695"></circle><circle r="4.89004971439401" cx="169.36936971919684" cy="136.234256872443" opacity="0.3797286418712553"></circle><circle r="5.2003528221479005" cx="377.5439728608746" cy="416.74538228715437" opacity="0.9703034318109853"></circle><circle r="4.200263495953154" cx="383.77872489042437" cy="11.203529296939568" opacity="0.29599139796389506"></circle><circle r="9.932740469508456" cx="357.05874696185515" cy="602.681565041395" opacity="0.609868299426316"></circle><circle r="3.984445855182298" cx="482.72570380282076" cy="672.6802656762272" opacity="0.5771131511265395"></circle><circle r="9.96481493467508" cx="432.2090158533339" cy="166.44313507981448" opacity="0.9345161329678154"></circle><circle r="6.74563545906468" cx="329.91062649988885" cy="742.7956692668596" opacity="0.6060638437788916"></circle><circle r="9.258654416320338" cx="257.4700314945993" cy="271.63693520913364" opacity="0.207947392750642"></circle><circle r="5.376385264270778" cx="729.1669358085742" cy="781.1893817229839" opacity="0.649347729705081"></circle><circle r="5.530830889136691" cx="308.0932634099534" cy="771.5411725328383" opacity="0.46040572564804494"></circle><circle r="6.406987860485543" cx="112.94644765186963" cy="468.1743513098259" opacity="0.43816445970167206"></circle><circle r="6.785689973512214" cx="78.1003927806618" cy="762.1589958312934" opacity="0.1905528489842256"></circle><circle r="11.216798715857607" cx="463.21508325858713" cy="767.7743857463271" opacity="0.6657848579314666"></circle><circle r="6.931709010856289" cx="496.6299331508565" cy="33.88232297859223" opacity="0.15151327899175357"></circle><circle r="4.73086760914224" cx="709.1235083421902" cy="733.0870577437337" opacity="0.6482831451808975"></circle><circle r="4.369733688283532" cx="163.65704874239583" cy="177.34007477457266" opacity="0.2944381510377875"></circle><circle r="6.798836149631969" cx="596.0284592280783" cy="17.5229187152106" opacity="0.11197134924636941"></circle><circle r="6.223235995182717" cx="725.1721132991323" cy="54.31946221031149" opacity="0.5551017157679382"></circle><circle r="4.533731355166735" cx="46.230764565633585" cy="480.2758016015194" opacity="0.9778105320449995"></circle><circle r="6.414421993667684" cx="567.9655444425263" cy="430.9938804277129" opacity="0.7804364798592934"></circle><circle r="7.798289444551637" cx="781.1661183067916" cy="729.7033872658653" opacity="0.9361011546950349"></circle><circle r="6.07049067957323" cx="308.2559922915046" cy="716.3995278385305" opacity="0.9988889894573476"></circle><circle r="6.9094863898576495" cx="596.1980484064924" cy="95.22163530268857" opacity="0.6427865123955551"></circle><circle r="4.156232043555462" cx="358.24351918932786" cy="367.16912879016763" opacity="0.8615707491243876"></circle><circle r="6.535836471286245" cx="41.030734795172165" cy="758.1539980315603" opacity="0.6330392918814449"></circle><circle r="9.963910896942675" cx="779.3471256023637" cy="642.4680064262869" opacity="0.8213852719418064"></circle><circle r="4.869426911792656" cx="80.52208990287969" cy="664.4188027295608" opacity="0.4619846132012446"></circle><circle r="5.161691394019036" cx="283.570768671677" cy="435.0110774779821" opacity="0.9934899795748011"></circle><circle r="5.142824590375931" cx="710.7083555432833" cy="569.2195274550638" opacity="0.5666159572533908"></circle><circle r="6.621603581857748" cx="416.4718018536034" cy="502.8919881013427" opacity="0.9871814072868876"></circle><circle r="7.018225930762066" cx="748.8036354039284" cy="288.50994132328964" opacity="0.9685095244490838"></circle><circle r="8.453246508340218" cx="350.622487593047" cy="646.1916765928123" opacity="0.5772993116237011"></circle><circle r="4.705357439704878" cx="599.95739606387" cy="172.56564545819083" opacity="0.7374619379825862"></circle><circle r="7.160648719900786" cx="89.53916394547457" cy="383.06346799188196" opacity="0.1982499427285407"></circle><circle r="5.577186759187476" cx="475.2557613362103" cy="542.8122268785515" opacity="0.44096662304639545"></circle><circle r="6.773172957904611" cx="506.6724474194517" cy="694.8339276684718" opacity="0.38820757967259956"></circle><circle r="6.241068065070786" cx="786.2131328253543" cy="479.2955140446576" opacity="0.8776956847440318"></circle><circle r="7.841545506396907" cx="295.5365652969272" cy="366.20057092418364" opacity="0.8396508156282337"></circle><circle r="5.332178847925806" cx="421.3778426773113" cy="20.609047797759203" opacity="0.8031518050960664"></circle><circle r="6.752808779950796" cx="365.522175495656" cy="105.42995159501545" opacity="0.5326756406503379"></circle><circle r="4.650987993800463" cx="266.7136949501836" cy="722.8079314560981" opacity="0.8558916753492155"></circle><circle r="5.601035407803546" cx="573.4237623775583" cy="524.5664055147694" opacity="0.13892756249949356"></circle><circle r="8.851908095695158" cx="172.9057552509459" cy="576.7529928977519" opacity="0.3232272116715007"></circle><circle r="4.860974788447591" cx="511.85346862254073" cy="198.11142324804592" opacity="0.9682461395729888"></circle><circle r="6.246140119734518" cx="16.450322717860494" cy="595.0412901011557" opacity="0.5789144049575428"></circle><circle r="4.993990678849952" cx="539.2904665958376" cy="307.7781097430032" opacity="0.5530320484967002"></circle><circle r="7.765543753608836" cx="369.0591477515998" cy="452.6918864412785" opacity="0.29144722880965557"></circle><circle r="4.6218278457992765" cx="106.20690389086761" cy="216.88993164028545" opacity="0.2660216113758186"></circle><circle r="5.661771616698198" cx="437.9397107023265" cy="224.04004086243944" opacity="0.7654971953063898"></circle><circle r="8.021510836257061" cx="14.286662012246595" cy="779.6755962418193" opacity="0.11331974569729564"></circle><circle r="3.892780858038738" cx="518.37833680033" cy="276.5347192729769" opacity="0.7111937897282625"></circle><circle r="6.691792913346683" cx="194.7079272767042" cy="95.99814289872805" opacity="0.8331211270168208"></circle><circle r="5.963912485209619" cx="312.02283584311317" cy="537.8253113407061" opacity="0.7684617547032737"></circle><circle r="5.12625763244697" cx="520.2474756698438" cy="528.6200202928088" opacity="0.860742410917935"></circle><circle r="6.032600611064758" cx="38.725716558629316" cy="93.12131493636558" opacity="0.7495611372786397"></circle><circle r="6.727628869624841" cx="435.3394605799791" cy="538.355559439226" opacity="0.22186760123435947"></circle><circle r="8.132198738848713" cx="136.45894325892368" cy="324.5626922115164" opacity="0.8957021648570106"></circle><circle r="3.0015077457763395" cx="35.64396149094368" cy="670.1751349364627" opacity="0.23573635517265365"></circle><circle r="5.725386914155822" cx="203.12461561726568" cy="13.640402497133929" opacity="0.7629224764734632"></circle><circle r="4.865690384401365" cx="477.0243085425854" cy="589.2425871172802" opacity="0.9221859010893483"></circle><circle r="5.243039189654823" cx="749.6874033084492" cy="752.7172145004272" opacity="0.9714352349970695"></circle><circle r="9.602507494072402" cx="168.4988154210357" cy="282.8769545286623" opacity="0.27483411051490797"></circle><circle r="4.770341567919846" cx="738.9693996207275" cy="400.9170931762323" opacity="0.10867244279199081"></circle><circle r="5.245483673069472" cx="686.2710978212269" cy="486.3615034114195" opacity="0.8772823879711968"></circle><circle r="7.262141930115359" cx="75.33251898427861" cy="615.9472218569388" opacity="0.8910582146711088"></circle><circle r="8.297379220204316" cx="693.2212494443103" cy="628.7531175096468" opacity="0.6650225775159633"></circle><circle r="8.446707046263887" cx="163.88511769756394" cy="17.072902138116753" opacity="0.5208622197357596"></circle><circle r="9.243085341413828" cx="192.0952113061433" cy="623.4644923467034" opacity="0.4455850841851754"></circle><circle r="5.794238349516171" cx="190.93566842844078" cy="155.33023346929716" opacity="0.6148176340230248"></circle><circle r="5.9394609214823655" cx="35.086205806772824" cy="625.9205997945976" opacity="0.9794523043086508"></circle><circle r="7.866836355417091" cx="311.3370775194492" cy="404.2639763480962" opacity="0.41844273298779544"></circle><circle r="5.2298828811897895" cx="13.202855583393603" cy="646.2469065003061" opacity="0.5085385636516935"></circle><circle r="5.588389940358656" cx="51.116199235814875" cy="729.6365277194467" opacity="0.9067544437698404"></circle><circle r="5.7343662153425345" cx="254.10554694776886" cy="78.94096117063982" opacity="0.2930665434889237"></circle><circle r="7.511754280653053" cx="739.0397086668102" cy="667.7288058197939" opacity="0.1330591241010552"></circle><circle r="3.5138368278903913" cx="285.026881466501" cy="74.35734232957637" opacity="0.9742446361623065"></circle><circle r="5.168426109391648" cx="651.4016649444992" cy="299.9605976481581" opacity="0.7240535704717665"></circle><circle r="4.312821894798704" cx="572.2156039540382" cy="115.9075181304121" opacity="0.6342399068449345"></circle><circle r="4.647494469271983" cx="686.5659726677129" cy="665.3714059727458" opacity="0.5888138278563886"></circle><circle r="8.940689556407417" cx="572.8268972479107" cy="744.0305712171659" opacity="0.3657279623345874"></circle><circle r="5.286825779768558" cx="128.03669269478485" cy="159.65020285534223" opacity="0.7853356224398186"></circle><circle r="4.402530629573653" cx="536.1206377159111" cy="605.4458938668132" opacity="0.5497223369118739"></circle><circle r="7.54431134255402" cx="20.859385004917304" cy="538.8333271710404" opacity="0.6611651408233394"></circle><circle r="3.8983802774511522" cx="427.5566437904011" cy="630.8961405412648" opacity="0.653643932630244"></circle><circle r="5.534227082524928" cx="302.6917210331035" cy="39.38774929360653" opacity="0.8634351786227303"></circle><circle r="5.9881526580217805" cx="456.57688885619945" cy="368.8537279738172" opacity="0.32069598106145"></circle><circle r="7.176556252898097" cx="12.428548450444888" cy="354.6714567216985" opacity="0.19142410657264447"></circle><circle r="6.203771994899919" cx="331.0333408421282" cy="436.7164368866083" opacity="0.507969373560765"></circle><circle r="5.68655776313814" cx="735.1691965550461" cy="602.4853568939484" opacity="0.6995233480346521"></circle><circle r="9.752236987416055" cx="229.44427543672026" cy="503.9489241915951" opacity="0.3567905651797054"></circle><circle r="6.195381459181981" cx="330.67244546972495" cy="102.32485588037085" opacity="0.664305674825481"></circle><circle r="9.940461791172314" cx="765.8263311754241" cy="353.23182250645607" opacity="0.18331978318677994"></circle><circle r="5.034617744520492" cx="23.046794606069735" cy="452.17414722323576" opacity="0.42571632279215144"></circle><circle r="6.577189937984285" cx="583.7867244254837" cy="558.268645267384" opacity="0.46245656582765526"></circle><circle r="6.770042966905582" cx="586.6937321190019" cy="218.50980068856788" opacity="0.9855237516927389"></circle><circle r="4.505826477439708" cx="368.3692807333583" cy="344.5864069695085" opacity="0.6790658829147265"></circle><circle r="3.859897464839901" cx="78.18423880768763" cy="70.4768590463427" opacity="0.5760646197628104"></circle><circle r="4.190212719840556" cx="295.2326065318639" cy="10.857670957307153" opacity="0.4297288728191534"></circle><circle r="6.420220858977636" cx="132.92027510664346" cy="441.60035523419134" opacity="0.329493834903584"></circle><circle r="5.190030260189224" cx="90.61367843407945" cy="417.2400438936082" opacity="0.5594154459306135"></circle><circle r="7.742409945638363" cx="672.9605663205116" cy="423.4083498582305" opacity="0.35100747237043706"></circle><circle r="6.743406858415131" cx="235.34834855743009" cy="397.61211153990865" opacity="0.8361846465710026"></circle><circle r="5.618311393722472" cx="61.635170389586776" cy="160.18539138959528" opacity="0.7646885700650065"></circle><circle r="7.690665400504418" cx="456.7948341681435" cy="710.4171226053969" opacity="0.14020240951922283"></circle><circle r="5.146453589652193" cx="785.0142979588968" cy="176.261409267295" opacity="0.5506565319056564"></circle><circle r="2.6468184123907745" cx="299.7302387643377" cy="91.25907310315809" opacity="0.2366369267281592"></circle><circle r="2.819620548050337" cx="41.29780078864933" cy="789.1551557004947" opacity="0.2927130847579682"></circle><circle r="5.224564728879405" cx="70.18579629330699" cy="587.6632109798427" opacity="0.7304334418932364"></circle><circle r="6.335827860122846" cx="132.0001506922725" cy="602.8582587670995" opacity="0.24030102675219386"></circle><circle r="10.758791051982952" cx="190.39302673789024" cy="466.2652625155823" opacity="0.7958892000708229"></circle><circle r="6.454616659663498" cx="333.5665994393186" cy="479.8027433939182" opacity="0.10133616747673213"></circle><circle r="5.464182104359113" cx="433.4391988457261" cy="654.3062277949399" opacity="0.5215026130858404"></circle><circle r="7.225447291870324" cx="639.9695110668099" cy="548.2583583111166" opacity="0.33580887386562464"></circle><circle r="6.132326915096103" cx="634.683692539873" cy="347.7928818518346" opacity="0.7806872860670352"></circle><circle r="5.347274114959281" cx="174.5464572964813" cy="238.35868387830038" opacity="0.8293850580817397"></circle><circle r="8.29410727250151" cx="604.7199002836317" cy="715.3118365742341" opacity="0.675372403493781"></circle><circle r="7.245799544342461" cx="781.4088007428137" cy="687.0098418482819" opacity="0.7841402211640505"></circle><circle r="8.44613809467586" cx="464.5924803166037" cy="202.93814531765256" opacity="0.47966047361046826"></circle><circle r="6.096215380585788" cx="280.93012808406934" cy="572.6756326768921" opacity="0.5820370559128142"></circle><circle r="8.44511753693787" cx="317.51337581004253" cy="610.5967589927753" opacity="0.14422219433080585"></circle><circle r="6.509107182538707" cx="254.60902078515488" cy="167.08888320628012" opacity="0.24262077326748457"></circle><circle r="8.06909967228319" cx="176.12830412201842" cy="64.91813140710501" opacity="0.9559513153104762"></circle><circle r="3.7464460028312647" cx="56.29163876046907" cy="653.9496104390875" opacity="0.466353156876378"></circle><circle r="8.68633721854182" cx="531.027229474602" cy="18.601478680139927" opacity="0.6863567196020163"></circle><circle r="4.579785888694079" cx="343.8783145857477" cy="768.1603589280008" opacity="0.7388799779759735"></circle><circle r="7.679105307191719" cx="519.3855942340272" cy="163.59363657198594" opacity="0.4754493644429947"></circle><circle r="8.97534662068261" cx="779.132081291562" cy="778.6666191068317" opacity="0.5699339857695489"></circle><circle r="10.143667943804374" cx="509.1947917889443" cy="569.5110904955475" opacity="0.5908440382960158"></circle><circle r="3.912555042998186" cx="317.1804627368118" cy="64.09198938961424" opacity="0.24137202086508475"></circle><circle r="5.208458417021207" cx="341.6728002528502" cy="704.38995469532" opacity="0.7558279750362535"></circle><circle r="4.4313991794144485" cx="59.466608674668045" cy="453.5024885770254" opacity="0.9548505064527019"></circle><circle r="7.608389619572628" cx="131.36513253296556" cy="739.3795588143101" opacity="0.2912428062994699"></circle><circle r="4.422955918191976" cx="582.1255866403434" cy="369.89716845284426" opacity="0.9605234665128795"></circle><circle r="5.911068161174423" cx="625.8768325277091" cy="311.09701847985497" opacity="0.5799253654000992"></circle><circle r="6.3639824337448125" cx="17.643949090643662" cy="115.4639641753199" opacity="0.5943742045003843"></circle><circle r="3.5599935325787415" cx="487.8051315237328" cy="335.97151973007004" opacity="0.804332814153465"></circle><circle r="4.258309349773729" cx="661.1540174518228" cy="784.7130883707624" opacity="0.4672283839735617"></circle><circle r="4.772659032274474" cx="397.3713837813962" cy="609.391070269111" opacity="0.3637230508796696"></circle><circle r="6.857308773935155" cx="281.64073643994385" cy="317.57386331535275" opacity="0.8553296239010266"></circle><circle r="5.34389503486615" cx="783.5877041075668" cy="519.1002466482007" opacity="0.5845646020193035"></circle><circle r="3.3900688334148" cx="408.4081430346189" cy="358.4712788287383" opacity="0.2869054827531209"></circle><circle r="7.609018009183263" cx="244.31453261356037" cy="549.1019917037007" opacity="0.9962016610074154"></circle><circle r="5.780680469193079" cx="694.1959284546436" cy="376.49709954681936" opacity="0.9181720185274285"></circle><circle r="3.3908764694064373" cx="255.0148222294849" cy="18.106975983925825" opacity="0.5801872833107315"></circle><circle r="7.477721278094905" cx="422.69221314705226" cy="783.634756186055" opacity="0.2330234055391316"></circle><circle r="6.0720662965187175" cx="350.41927788347334" cy="78.78743352185609" opacity="0.27124600461884796"></circle><circle r="4.69752407701385" cx="630.7503070022952" cy="748.9069555413284" opacity="0.195715955479585"></circle><circle r="5.113963486620076" cx="306.99877845136416" cy="183.7580684834589" opacity="0.8115945994617705"></circle><circle r="7.403686713975918" cx="181.4336786278863" cy="675.1497793079664" opacity="0.9388292630353743"></circle><circle r="7.7041383457409225" cx="210.21923915884722" cy="207.8160162330909" opacity="0.43823569698205933"></circle><circle r="8.543508651396397" cx="634.2356740558827" cy="628.3115169460388" opacity="0.9754956589421794"></circle><circle r="7.118913018767337" cx="328.3476590373574" cy="513.263813482446" opacity="0.7334328163267056"></circle><circle r="7.853746779377905" cx="722.7099982429585" cy="477.410233155064" opacity="0.7556367345037422"></circle><circle r="3.9410490657670243" cx="66.06236058469842" cy="784.8148275963297" opacity="0.21217895779462795"></circle><circle r="8.488594949346666" cx="689.6683109664913" cy="101.63945371458252" opacity="0.27621866606326423"></circle><circle r="5.489155341463395" cx="460.8400072135912" cy="621.4312949474654" opacity="0.7468855050841984"></circle><circle r="5.620144984740081" cx="247.79193129330102" cy="435.2069334826169" opacity="0.3140860484648197"></circle><circle r="6.08925335116222" cx="15.572396582759861" cy="228.5716995169215" opacity="0.9652529968066517"></circle><circle r="5.876459594672189" cx="323.6752153229001" cy="145.55824553819767" opacity="0.7299892989321315"></circle><circle r="4.70835644505885" cx="340.1406371002202" cy="51.43865355928067" opacity="0.585439265726298"></circle><circle r="8.724964758391415" cx="685.8319106231501" cy="278.5521288106906" opacity="0.6123530758078823"></circle><circle r="8.447032924465809" cx="49.26344451385007" cy="228.1684686518229" opacity="0.605504380589751"></circle><circle r="11.184123897280044" cx="143.90990109083256" cy="648.6840435638388" opacity="0.8344205180322688"></circle><circle r="3.9965416485806036" cx="531.0264915807011" cy="717.5154361902893" opacity="0.3176313711643505"></circle><circle r="5.002478661759164" cx="787.5269911589544" cy="211.98053083838377" opacity="0.30461402161181955"></circle><circle r="7.414772523786618" cx="384.95432765524185" cy="277.1647388976457" opacity="0.2642702085710797"></circle><circle r="4.685787207038062" cx="638.5992733987889" cy="776.7155851468056" opacity="0.43278795075415066"></circle><circle r="4.633897368956124" cx="264.9477228101616" cy="780.9145517277935" opacity="0.5912742863523236"></circle><circle r="4.617812023247618" cx="183.55627576811557" cy="771.198116458836" opacity="0.38603392081948407"></circle><circle r="8.143888988098029" cx="147.79384800195947" cy="484.9196451473734" opacity="0.8111528354773769"></circle><circle r="3.76769257977282" cx="402.72885155541394" cy="424.9659358342284" opacity="0.10694503558847511"></circle><circle r="6.6821591858489615" cx="536.2232054122592" cy="116.37855635031856" opacity="0.5807955374289769"></circle><circle r="5.684264630551544" cx="607.7091032413575" cy="425.98644282806725" opacity="0.6269508447710354"></circle><circle r="7.338640903857158" cx="630.8339070632455" cy="584.4434606442734" opacity="0.15912427590657466"></circle><circle r="6.408515258781865" cx="420.15938036848246" cy="61.62074458958551" opacity="0.231169799853872"></circle><circle r="4.723365082035489" cx="643.6240770056235" cy="721.9379370557207" opacity="0.6848999752521235"></circle><circle r="7.050698367417683" cx="781.0490005654254" cy="62.81526523976105" opacity="0.8585986196524854"></circle><circle r="7.118956639351481" cx="208.4230375639233" cy="175.79287707967848" opacity="0.12773040721963885"></circle><circle r="4.257363974278293" cx="14.051878335492907" cy="290.80593062405586" opacity="0.6059796445232317"></circle><circle r="3.8519279459418394" cx="262.44903775579814" cy="238.3108333923279" opacity="0.34458682632126114"></circle><circle r="5.105058759093956" cx="583.6790436106434" cy="320.9830766869402" opacity="0.2793498270838663"></circle><circle r="7.973676875841397" cx="216.19527425741126" cy="246.59045414639408" opacity="0.9984103457815938"></circle><circle r="9.67828329210236" cx="474.9747838542224" cy="159.22459752253616" opacity="0.8025686174111867"></circle><circle r="8.593143828798842" cx="240.15728395723676" cy="699.3128255729556" opacity="0.48859657748382024"></circle><circle r="10.186721204475027" cx="720.4509446881425" cy="326.98183407012965" opacity="0.7660178290371837"></circle><circle r="4.105114435879002" cx="609.8038044840182" cy="334.8912425810057" opacity="0.551187140085322"></circle><circle r="5.597496451211618" cx="147.74881170231887" cy="419.13247037909395" opacity="0.17179445051266778"></circle><circle r="2.521378084785388" cx="335.6997370935849" cy="791.1450519249238" opacity="0.4085412805254346"></circle><circle r="7.184987446405479" cx="652.9516711710648" cy="222.65072745287856" opacity="0.8322915959128154"></circle><circle r="10.113444539597584" cx="755.2216989515538" cy="91.80073111657518" opacity="0.7093682251473737"></circle><circle r="4.537283999115652" cx="106.29934750988382" cy="131.18015095126367" opacity="0.7298227186969222"></circle><circle r="9.984510528838921" cx="277.8519623369265" cy="522.341442938365" opacity="0.34863515677674556"></circle><circle r="6.584530171329869" cx="515.5736543582433" cy="344.5648951949311" opacity="0.1546941518134195"></circle><circle r="5.031968675877877" cx="85.36473391863223" cy="231.74515717044133" opacity="0.7812530864831061"></circle><circle r="3.522053241569885" cx="305.45155104113775" cy="114.30664979530744" opacity="0.7278117667365057"></circle></g></svg>