<svg xmlns="http://www.w3.org/2000/svg" version="1.1" xmlns:xlink="http://www.w3.org/1999/xlink" xmlns:svgjs="http://svgjs.dev/svgjs" viewBox="0 0 800 800"><g fill="hsl(32, 100%, 51%)" transform="matrix(1.6,0,0,1.6,-239.4000000000001,-240.60000000000002)"><circle r="2" cx="405" cy="400" opacity="0.62"></circle><circle r="2" cx="404" cy="404" opacity="0.23"></circle><circle r="2" cx="400" cy="407" opacity="0.39"></circle><circle r="2" cx="395" cy="405" opacity="0.54"></circle><circle r="2" cx="392" cy="400" opacity="0.96"></circle><circle r="2" cx="394" cy="394" opacity="0.38"></circle><circle r="2" cx="400" cy="390" opacity="0.49"></circle><circle r="2.5" cx="407" cy="392" opacity="0.16"></circle><circle r="2.5" cx="411" cy="400" opacity="0.30"></circle><circle r="2.5" cx="409" cy="408" opacity="0.31"></circle><circle r="2.5" cx="401" cy="413" opacity="0.60"></circle><circle r="2.5" cx="391" cy="410" opacity="0.57"></circle><circle r="2.5" cx="386" cy="401" opacity="0.55"></circle><circle r="2.5" cx="389" cy="390" opacity="0.67"></circle><circle r="2.5" cx="399" cy="384" opacity="0.28"></circle><circle r="2.5" cx="411" cy="387" opacity="0.90"></circle><circle r="2.5" cx="417" cy="398" opacity="0.44"></circle><circle r="2.5" cx="414" cy="412" opacity="0.94"></circle><circle r="2.5" cx="402" cy="419" opacity="0.13"></circle><circle r="2.5" cx="387" cy="415" opacity="0.71"></circle><circle r="2.5" cx="380" cy="402" opacity="0.47"></circle><circle r="2.5" cx="383" cy="387" opacity="0.61"></circle><circle r="2.5" cx="397" cy="378" opacity="0.96"></circle><circle r="2.5" cx="414" cy="382" opacity="0.93"></circle><circle r="2.5" cx="424" cy="397" opacity="0.46"></circle><circle r="2.5" cx="419" cy="415" opacity="0.87"></circle><circle r="2.5" cx="404" cy="425" opacity="0.51"></circle><circle r="2.5" cx="384" cy="421" opacity="0.23"></circle><circle r="2.5" cx="373" cy="404" opacity="0.49"></circle><circle r="2.5" cx="378" cy="384" opacity="0.36"></circle><circle r="3" cx="395" cy="372" opacity="0.89"></circle><circle r="3" cx="417" cy="376" opacity="0.66"></circle><circle r="3" cx="430" cy="395" opacity="0.33"></circle><circle r="3" cx="425" cy="418" opacity="0.38"></circle><circle r="3" cx="406" cy="431" opacity="0.85"></circle><circle r="3" cx="382" cy="427" opacity="0.62"></circle><circle r="3" cx="368" cy="406" opacity="0.58"></circle><circle r="3" cx="372" cy="381" opacity="0.67"></circle><circle r="3" cx="393" cy="366" opacity="0.30"></circle><circle r="3" cx="419" cy="370" opacity="0.32"></circle><circle r="3" cx="435" cy="392" opacity="0.48"></circle><circle r="3" cx="431" cy="420" opacity="0.59"></circle><circle r="3" cx="408" cy="437" opacity="0.49"></circle><circle r="3" cx="380" cy="433" opacity="0.95"></circle><circle r="3" cx="362" cy="409" opacity="0.28"></circle><circle r="3" cx="366" cy="379" opacity="0.90"></circle><circle r="3" cx="390" cy="360" opacity="0.93"></circle><circle r="3" cx="421" cy="364" opacity="0.69"></circle><circle r="3" cx="441" cy="389" opacity="0.71"></circle><circle r="3" cx="437" cy="422" opacity="0.31"></circle><circle r="3" cx="412" cy="442" opacity="0.37"></circle><circle r="3" cx="378" cy="439" opacity="0.47"></circle><circle r="3" cx="356" cy="413" opacity="0.11"></circle><circle r="3.5" cx="359" cy="378" opacity="0.68"></circle><circle r="3.5" cx="386" cy="355" opacity="0.39"></circle><circle r="3.5" cx="422" cy="358" opacity="0.41"></circle><circle r="3.5" cx="446" cy="386" opacity="0.53"></circle><circle r="3.5" cx="444" cy="423" opacity="0.47"></circle><circle r="3.5" cx="415" cy="448" opacity="0.33"></circle><circle r="3.5" cx="377" cy="446" opacity="0.15"></circle><circle r="3.5" cx="351" cy="416" opacity="0.70"></circle><circle r="3.5" cx="353" cy="377" opacity="0.90"></circle><circle r="3.5" cx="382" cy="350" opacity="0.26"></circle><circle r="3.5" cx="423" cy="351" opacity="0.66"></circle><circle r="3.5" cx="452" cy="381" opacity="0.32"></circle><circle r="3.5" cx="451" cy="423" opacity="0.63"></circle><circle r="3.5" cx="420" cy="453" opacity="0.28"></circle><circle r="3.5" cx="376" cy="452" opacity="0.78"></circle><circle r="3.5" cx="346" cy="421" opacity="0.22"></circle><circle r="3.5" cx="346" cy="376" opacity="0.36"></circle><circle r="3.5" cx="378" cy="345" opacity="0.30"></circle><circle r="3.5" cx="424" cy="344" opacity="0.10"></circle><circle r="3.5" cx="457" cy="377" opacity="0.63"></circle><circle r="3.5" cx="457" cy="424" opacity="0.37"></circle><circle r="3.5" cx="424" cy="458" opacity="0.18"></circle><circle r="4" cx="376" cy="459" opacity="0.92"></circle><circle r="4" cx="341" cy="426" opacity="0.75"></circle><circle r="4" cx="339" cy="376" opacity="0.32"></circle><circle r="4" cx="373" cy="340" opacity="0.85"></circle><circle r="4" cx="423" cy="338" opacity="0.37"></circle><circle r="4" cx="461" cy="372" opacity="0.93"></circle><circle r="4" cx="464" cy="423" opacity="0.59"></circle><circle r="4" cx="430" cy="462" opacity="0.77"></circle><circle r="4" cx="377" cy="466" opacity="0.65"></circle><circle r="4" cx="337" cy="431" opacity="0.57"></circle><circle r="4" cx="332" cy="377" opacity="0.58"></circle><circle r="4" cx="368" cy="336" opacity="0.72"></circle><circle r="4" cx="423" cy="331" opacity="0.65"></circle><circle r="4" cx="465" cy="366" opacity="0.23"></circle><circle r="4" cx="471" cy="422" opacity="0.47"></circle><circle r="4" cx="435" cy="466" opacity="0.77"></circle><circle r="4" cx="378" cy="473" opacity="0.92"></circle><circle r="4" cx="333" cy="437" opacity="0.64"></circle><circle r="4" cx="326" cy="378" opacity="0.65"></circle><circle r="4" cx="362" cy="332" opacity="0.33"></circle><circle r="4" cx="421" cy="324" opacity="0.49"></circle><circle r="4" cx="469" cy="360" opacity="0.53"></circle><circle r="4" cx="478" cy="421" opacity="0.94"></circle><circle r="4.5" cx="441" cy="470" opacity="0.47"></circle><circle r="4.5" cx="380" cy="480" opacity="0.72"></circle><circle r="4.5" cx="329" cy="443" opacity="0.65"></circle><circle r="4.5" cx="319" cy="380" opacity="0.54"></circle><circle r="4.5" cx="356" cy="328" opacity="0.57"></circle><circle r="4.5" cx="419" cy="317" opacity="0.20"></circle><circle r="4.5" cx="473" cy="354" opacity="0.32"></circle><circle r="4.5" cx="485" cy="419" opacity="0.57"></circle><circle r="4.5" cx="447" cy="474" opacity="0.44"></circle><circle r="4.5" cx="382" cy="487" opacity="0.63"></circle><circle r="4.5" cx="326" cy="449" opacity="0.76"></circle><circle r="4.5" cx="312" cy="382" opacity="0.63"></circle><circle r="4.5" cx="349" cy="325" opacity="0.25"></circle><circle r="4.5" cx="417" cy="310" opacity="0.71"></circle><circle r="4.5" cx="476" cy="347" opacity="0.99"></circle><circle r="4.5" cx="492" cy="416" opacity="0.77"></circle><circle r="4.5" cx="454" cy="477" opacity="0.43"></circle><circle r="4.5" cx="384" cy="493" opacity="0.51"></circle><circle r="4.5" cx="323" cy="456" opacity="0.29"></circle><circle r="4.5" cx="305" cy="385" opacity="0.49"></circle><circle r="4.5" cx="342" cy="322" opacity="0.72"></circle><circle r="4.5" cx="414" cy="303" opacity="0.85"></circle><circle r="4.5" cx="479" cy="341" opacity="0.16"></circle><circle r="5" cx="499" cy="413" opacity="0.19"></circle><circle r="5" cx="461" cy="479" opacity="0.76"></circle><circle r="5" cx="388" cy="500" opacity="0.37"></circle><circle r="5" cx="320" cy="463" opacity="0.97"></circle><circle r="5" cx="298" cy="389" opacity="0.75"></circle><circle r="5" cx="335" cy="320" opacity="0.58"></circle><circle r="5" cx="410" cy="296" opacity="0.83"></circle><circle r="5" cx="481" cy="333" opacity="0.48"></circle><circle r="5" cx="505" cy="409" opacity="0.34"></circle><circle r="5" cx="469" cy="481" opacity="0.63"></circle><circle r="5" cx="392" cy="507" opacity="0.28"></circle><circle r="5" cx="318" cy="471" opacity="0.90"></circle><circle r="5" cx="292" cy="393" opacity="0.29"></circle><circle r="5" cx="328" cy="318" opacity="0.41"></circle><circle r="5" cx="406" cy="290" opacity="0.42"></circle><circle r="5" cx="482" cy="326" opacity="0.82"></circle><circle r="5" cx="512" cy="405" opacity="0.14"></circle><circle r="5" cx="476" cy="483" opacity="0.61"></circle><circle r="5" cx="396" cy="513" opacity="0.31"></circle><circle r="5" cx="317" cy="478" opacity="0.62"></circle><circle r="5" cx="285" cy="397" opacity="0.67"></circle><circle r="5" cx="320" cy="317" opacity="0.56"></circle><circle r="5.5" cx="402" cy="283" opacity="0.86"></circle><circle r="5.5" cx="484" cy="318" opacity="0.87"></circle><circle r="5.5" cx="518" cy="400" opacity="0.54"></circle><circle r="5.5" cx="484" cy="484" opacity="0.53"></circle><circle r="5.5" cx="401" cy="520" opacity="0.76"></circle><circle r="5.5" cx="316" cy="486" opacity="0.36"></circle><circle r="5.5" cx="279" cy="402" opacity="0.47"></circle><circle r="5.5" cx="312" cy="316" opacity="0.95"></circle><circle r="5.5" cx="396" cy="277" opacity="0.99"></circle><circle r="5.5" cx="484" cy="310" opacity="0.89"></circle><circle r="5.5" cx="524" cy="395" opacity="0.37"></circle><circle r="5.5" cx="492" cy="484" opacity="0.72"></circle><circle r="5.5" cx="406" cy="526" opacity="0.98"></circle><circle r="5.5" cx="316" cy="495" opacity="0.50"></circle><circle r="5.5" cx="273" cy="408" opacity="0.98"></circle><circle r="5.5" cx="303" cy="316" opacity="0.41"></circle><circle r="5.5" cx="391" cy="271" opacity="0.94"></circle><circle r="5.5" cx="484" cy="301" opacity="0.35"></circle><circle r="5.5" cx="530" cy="389" opacity="0.29"></circle><circle r="5.5" cx="501" cy="484" opacity="0.12"></circle><circle r="5.5" cx="412" cy="532" opacity="0.83"></circle><circle r="5.5" cx="316" cy="503" opacity="0.76"></circle><circle r="5.5" cx="267" cy="414" opacity="0.80"></circle><circle r="6" cx="295" cy="316" opacity="0.84"></circle><circle r="6" cx="384" cy="266" opacity="0.86"></circle><circle r="6" cx="484" cy="293" opacity="0.81"></circle><circle r="6" cx="536" cy="383" opacity="0.77"></circle><circle r="6" cx="509" cy="484" opacity="0.84"></circle><circle r="6" cx="419" cy="537" opacity="0.75"></circle><circle r="6" cx="317" cy="511" opacity="0.24"></circle><circle r="6" cx="262" cy="421" opacity="0.56"></circle><circle r="6" cx="286" cy="317" opacity="0.63"></circle><circle r="6" cx="378" cy="260" opacity="0.35"></circle><circle r="6" cx="483" cy="284" opacity="0.15"></circle><circle r="6" cx="541" cy="376" opacity="0.30"></circle><circle r="6" cx="518" cy="482" opacity="0.81"></circle><circle r="6" cx="426" cy="542" opacity="0.30"></circle><circle r="6" cx="318" cy="520" opacity="0.34"></circle><circle r="6" cx="256" cy="428" opacity="0.11"></circle><circle r="6" cx="278" cy="318" opacity="0.46"></circle><circle r="6" cx="370" cy="255" opacity="0.65"></circle><circle r="6" cx="481" cy="276" opacity="0.62"></circle><circle r="6" cx="546" cy="368" opacity="0.30"></circle><circle r="6" cx="527" cy="481" opacity="0.91"></circle><circle r="6" cx="434" cy="547" opacity="0.50"></circle><circle r="6" cx="320" cy="529" opacity="0.70"></circle><circle r="6.5" cx="252" cy="435" opacity="0.33"></circle><circle r="6.5" cx="269" cy="321" opacity="0.20"></circle><circle r="6.5" cx="363" cy="251" opacity="0.37"></circle><circle r="6.5" cx="479" cy="267" opacity="0.52"></circle><circle r="6.5" cx="550" cy="361" opacity="0.65"></circle><circle r="6.5" cx="535" cy="478" opacity="0.55"></circle><circle r="6.5" cx="441" cy="552" opacity="0.81"></circle><circle r="6.5" cx="323" cy="538" opacity="0.81"></circle><circle r="6.5" cx="247" cy="444" opacity="0.74"></circle><circle r="6.5" cx="260" cy="323" opacity="0.27"></circle><circle r="6.5" cx="354" cy="246" opacity="0.51"></circle><circle r="6.5" cx="476" cy="258" opacity="0.33"></circle><circle r="6.5" cx="555" cy="352" opacity="0.38"></circle><circle r="6.5" cx="544" cy="475" opacity="0.15"></circle><circle r="6.5" cx="450" cy="556" opacity="0.40"></circle><circle r="6.5" cx="326" cy="546" opacity="0.54"></circle><circle r="6.5" cx="244" cy="452" opacity="0.69"></circle><circle r="6.5" cx="251" cy="327" opacity="0.58"></circle><circle r="6.5" cx="346" cy="243" opacity="0.64"></circle><circle r="6.5" cx="472" cy="249" opacity="0.33"></circle><circle r="6.5" cx="558" cy="344" opacity="0.25"></circle><circle r="6.5" cx="553" cy="471" opacity="0.34"></circle><circle r="7" cx="459" cy="559" opacity="0.21"></circle><circle r="7" cx="330" cy="555" opacity="0.16"></circle><circle r="7" cx="240" cy="461" opacity="0.96"></circle><circle r="7" cx="243" cy="331" opacity="0.52"></circle><circle r="7" cx="337" cy="239" opacity="0.41"></circle><circle r="7" cx="468" cy="241" opacity="0.70"></circle><circle r="7" cx="561" cy="334" opacity="0.29"></circle><circle r="7" cx="562" cy="467" opacity="0.89"></circle><circle r="7" cx="468" cy="562" opacity="0.26"></circle><circle r="7" cx="334" cy="564" opacity="0.14"></circle><circle r="7" cx="237" cy="470" opacity="0.57"></circle><circle r="7" cx="234" cy="335" opacity="0.99"></circle><circle r="7" cx="327" cy="236" opacity="0.34"></circle><circle r="7" cx="464" cy="232" opacity="0.11"></circle><circle r="7" cx="564" cy="325" opacity="0.84"></circle><circle r="7" cx="570" cy="462" opacity="0.58"></circle><circle r="7" cx="478" cy="565" opacity="0.90"></circle><circle r="7" cx="339" cy="572" opacity="0.73"></circle><circle r="7" cx="235" cy="480" opacity="0.77"></circle><circle r="7" cx="226" cy="340" opacity="0.25"></circle><circle r="7" cx="318" cy="234" opacity="0.99"></circle><circle r="7" cx="458" cy="223" opacity="0.67"></circle><circle r="7" cx="566" cy="315" opacity="0.52"></circle><circle r="7.5" cx="579" cy="457" opacity="0.33"></circle><circle r="7.5" cx="487" cy="567" opacity="0.48"></circle><circle r="7.5" cx="345" cy="581" opacity="0.31"></circle><circle r="7.5" cx="233" cy="490" opacity="0.57"></circle><circle r="7.5" cx="217" cy="346" opacity="0.77"></circle><circle r="7.5" cx="307" cy="232" opacity="0.33"></circle><circle r="7.5" cx="452" cy="215" opacity="0.40"></circle><circle r="7.5" cx="568" cy="305" opacity="1.00"></circle><circle r="7.5" cx="587" cy="451" opacity="0.50"></circle><circle r="7.5" cx="498" cy="568" opacity="0.97"></circle><circle r="7.5" cx="351" cy="589" opacity="0.29"></circle><circle r="7.5" cx="232" cy="500" opacity="0.73"></circle><circle r="7.5" cx="209" cy="353" opacity="0.90"></circle><circle r="7.5" cx="297" cy="231" opacity="0.80"></circle><circle r="7.5" cx="446" cy="207" opacity="0.54"></circle><circle r="7.5" cx="569" cy="294" opacity="0.57"></circle><circle r="7.5" cx="595" cy="444" opacity="0.99"></circle><circle r="7.5" cx="508" cy="569" opacity="0.24"></circle><circle r="7.5" cx="358" cy="597" opacity="0.90"></circle><circle r="7.5" cx="231" cy="511" opacity="0.65"></circle><circle r="7.5" cx="201" cy="360" opacity="0.61"></circle><circle r="7.5" cx="286" cy="231" opacity="0.71"></circle><circle r="7.5" cx="438" cy="199" opacity="0.81"></circle><circle r="8" cx="569" cy="284" opacity="0.61"></circle><circle r="8" cx="603" cy="437" opacity="0.13"></circle><circle r="8" cx="519" cy="569" opacity="0.92"></circle><circle r="8" cx="365" cy="605" opacity="0.15"></circle><circle r="8" cx="231" cy="522" opacity="0.84"></circle><circle r="8" cx="193" cy="367" opacity="0.15"></circle><circle r="8" cx="275" cy="231" opacity="0.14"></circle><circle r="8" cx="431" cy="191" opacity="0.75"></circle><circle r="8" cx="569" cy="273" opacity="0.58"></circle><circle r="8" cx="611" cy="429" opacity="0.35"></circle><circle r="8" cx="530" cy="569" opacity="0.81"></circle><circle r="8" cx="374" cy="612" opacity="0.10"></circle><circle r="8" cx="231" cy="533" opacity="0.72"></circle><circle r="8" cx="186" cy="376" opacity="0.90"></circle><circle r="8" cx="264" cy="231" opacity="0.64"></circle><circle r="8" cx="422" cy="184" opacity="0.20"></circle><circle r="8" cx="568" cy="262" opacity="0.60"></circle><circle r="8" cx="618" cy="420" opacity="0.31"></circle><circle r="8" cx="541" cy="568" opacity="0.63"></circle><circle r="8" cx="382" cy="620" opacity="0.44"></circle><circle r="8" cx="232" cy="544" opacity="0.30"></circle><circle r="8" cx="179" cy="384" opacity="0.59"></circle><circle r="8.5" cx="253" cy="233" opacity="0.26"></circle><circle r="8.5" cx="413" cy="177" opacity="0.90"></circle><circle r="8.5" cx="567" cy="250" opacity="0.92"></circle><circle r="8.5" cx="625" cy="411" opacity="0.87"></circle><circle r="8.5" cx="553" cy="566" opacity="0.56"></circle><circle r="8.5" cx="391" cy="626" opacity="0.77"></circle><circle r="8.5" cx="234" cy="555" opacity="0.14"></circle><circle r="8.5" cx="172" cy="394" opacity="0.26"></circle><circle r="8.5" cx="242" cy="235" opacity="0.56"></circle><circle r="8.5" cx="404" cy="170" opacity="0.58"></circle><circle r="8.5" cx="565" cy="239" opacity="0.58"></circle><circle r="8.5" cx="631" cy="401" opacity="0.73"></circle><circle r="8.5" cx="564" cy="564" opacity="0.83"></circle><circle r="8.5" cx="401" cy="633" opacity="0.73"></circle><circle r="8.5" cx="237" cy="567" opacity="0.32"></circle><circle r="8.5" cx="166" cy="404" opacity="0.91"></circle><circle r="8.5" cx="230" cy="237" opacity="0.54"></circle><circle r="8.5" cx="394" cy="164" opacity="0.28"></circle><circle r="8.5" cx="562" cy="227" opacity="0.43"></circle><circle r="8.5" cx="637" cy="391" opacity="0.78"></circle><circle r="8.5" cx="576" cy="561" opacity="0.39"></circle><circle r="8.5" cx="412" cy="639" opacity="0.77"></circle><circle r="8.5" cx="240" cy="578" opacity="0.58"></circle><circle r="9" cx="160" cy="414" opacity="0.69"></circle><circle r="9" cx="219" cy="241" opacity="0.44"></circle><circle r="9" cx="383" cy="158" opacity="0.89"></circle><circle r="9" cx="558" cy="216" opacity="0.35"></circle><circle r="9" cx="643" cy="380" opacity="0.13"></circle><circle r="9" cx="587" cy="557" opacity="0.78"></circle><circle r="9" cx="422" cy="644" opacity="0.12"></circle><circle r="9" cx="244" cy="590" opacity="0.76"></circle><circle r="9" cx="154" cy="425" opacity="0.83"></circle><circle r="9" cx="207" cy="245" opacity="0.19"></circle><circle r="9" cx="372" cy="153" opacity="0.83"></circle><circle r="9" cx="554" cy="204" opacity="0.75"></circle><circle r="9" cx="648" cy="369" opacity="0.21"></circle><circle r="9" cx="599" cy="553" opacity="0.95"></circle><circle r="9" cx="434" cy="649" opacity="0.88"></circle><circle r="9" cx="248" cy="602" opacity="0.51"></circle><circle r="9" cx="150" cy="437" opacity="0.38"></circle><circle r="9" cx="196" cy="250" opacity="0.78"></circle><circle r="9" cx="360" cy="149" opacity="0.81"></circle><circle r="9" cx="549" cy="193" opacity="0.21"></circle><circle r="9" cx="653" cy="357" opacity="0.94"></circle><circle r="9" cx="610" cy="548" opacity="0.86"></circle><circle r="9" cx="446" cy="654" opacity="0.78"></circle><circle r="9.5" cx="254" cy="613" opacity="0.42"></circle><circle r="9.5" cx="145" cy="449" opacity="0.88"></circle><circle r="9.5" cx="184" cy="255" opacity="0.44"></circle><circle r="9.5" cx="348" cy="144" opacity="0.50"></circle><circle r="9.5" cx="543" cy="181" opacity="0.75"></circle><circle r="9.5" cx="657" cy="345" opacity="0.26"></circle><circle r="9.5" cx="622" cy="542" opacity="0.17"></circle><circle r="9.5" cx="458" cy="658" opacity="0.41"></circle><circle r="9.5" cx="260" cy="624" opacity="0.75"></circle><circle r="9.5" cx="142" cy="461" opacity="0.76"></circle><circle r="9.5" cx="173" cy="261" opacity="0.20"></circle><circle r="9.5" cx="336" cy="141" opacity="0.34"></circle><circle r="9.5" cx="537" cy="170" opacity="0.86"></circle><circle r="9.5" cx="660" cy="333" opacity="0.90"></circle><circle r="9.5" cx="633" cy="535" opacity="0.53"></circle><circle r="9.5" cx="471" cy="661" opacity="0.92"></circle><circle r="9.5" cx="266" cy="636" opacity="0.97"></circle><circle r="9.5" cx="138" cy="474" opacity="0.68"></circle><circle r="9.5" cx="161" cy="268" opacity="0.49"></circle><circle r="9.5" cx="323" cy="138" opacity="0.76"></circle><circle r="9.5" cx="530" cy="159" opacity="0.27"></circle><circle r="9.5" cx="663" cy="320" opacity="0.25"></circle><circle r="10" cx="644" cy="528" opacity="0.53"></circle><circle r="10" cx="484" cy="663" opacity="0.62"></circle><circle r="10" cx="274" cy="647" opacity="0.84"></circle><circle r="10" cx="136" cy="487" opacity="0.16"></circle><circle r="10" cx="150" cy="276" opacity="0.95"></circle><circle r="10" cx="310" cy="135" opacity="0.44"></circle><circle r="10" cx="522" cy="148" opacity="0.49"></circle><circle r="10" cx="665" cy="306" opacity="0.84"></circle><circle r="10" cx="655" cy="520" opacity="0.13"></circle><circle r="10" cx="497" cy="665" opacity="0.39"></circle><circle r="10" cx="282" cy="658" opacity="0.26"></circle><circle r="10" cx="134" cy="501" opacity="0.29"></circle><circle r="10" cx="140" cy="284" opacity="0.75"></circle><circle r="10" cx="296" cy="134" opacity="0.86"></circle><circle r="10" cx="514" cy="137" opacity="0.64"></circle><circle r="10" cx="667" cy="293" opacity="0.45"></circle><circle r="10" cx="666" cy="511" opacity="0.71"></circle><circle r="10" cx="511" cy="667" opacity="0.69"></circle><circle r="10" cx="291" cy="668" opacity="0.49"></circle><circle r="10" cx="133" cy="514" opacity="0.97"></circle><circle r="10" cx="129" cy="293" opacity="0.45"></circle><circle r="10" cx="282" cy="133" opacity="0.64"></circle><circle r="10" cx="504" cy="126" opacity="0.82"></circle><circle r="10.5" cx="667" cy="279" opacity="0.16"></circle><circle r="10.5" cx="676" cy="502" opacity="0.60"></circle><circle r="10.5" cx="525" cy="667" opacity="0.98"></circle><circle r="10.5" cx="301" cy="679" opacity="0.24"></circle><circle r="10.5" cx="133" cy="529" opacity="0.68"></circle><circle r="10.5" cx="119" cy="303" opacity="0.49"></circle><circle r="10.5" cx="268" cy="133" opacity="0.43"></circle><circle r="10.5" cx="494" cy="116" opacity="0.42"></circle><circle r="10.5" cx="667" cy="264" opacity="0.82"></circle><circle r="10.5" cx="686" cy="492" opacity="0.85"></circle><circle r="10.5" cx="539" cy="667" opacity="0.61"></circle><circle r="10.5" cx="311" cy="689" opacity="0.35"></circle><circle r="10.5" cx="133" cy="543" opacity="0.53"></circle><circle r="10.5" cx="109" cy="314" opacity="0.85"></circle><circle r="10.5" cx="253" cy="133" opacity="0.54"></circle><circle r="10.5" cx="484" cy="106" opacity="0.17"></circle><circle r="10.5" cx="667" cy="250" opacity="0.59"></circle><circle r="10.5" cx="696" cy="481" opacity="0.48"></circle><circle r="10.5" cx="554" cy="666" opacity="0.28"></circle><circle r="10.5" cx="322" cy="698" opacity="0.68"></circle><circle r="10.5" cx="134" cy="558" opacity="0.45"></circle><circle r="10.5" cx="99" cy="325" opacity="0.27"></circle><circle r="10.5" cx="239" cy="134" opacity="0.39"></circle><circle r="11" cx="472" cy="97" opacity="0.98"></circle><circle r="11" cx="665" cy="235" opacity="0.97"></circle><circle r="11" cx="705" cy="470" opacity="0.50"></circle><circle r="11" cx="569" cy="665" opacity="0.72"></circle><circle r="11" cx="333" cy="708" opacity="0.48"></circle><circle r="11" cx="136" cy="572" opacity="0.13"></circle><circle r="11" cx="90" cy="336" opacity="0.26"></circle><circle r="11" cx="224" cy="136" opacity="0.29"></circle><circle r="11" cx="460" cy="88" opacity="0.22"></circle><circle r="11" cx="663" cy="220" opacity="0.17"></circle><circle r="11" cx="714" cy="457" opacity="0.99"></circle><circle r="11" cx="583" cy="662" opacity="0.36"></circle><circle r="11" cx="346" cy="716" opacity="0.33"></circle><circle r="11" cx="138" cy="587" opacity="0.91"></circle><circle r="11" cx="82" cy="349" opacity="0.94"></circle><circle r="11" cx="209" cy="139" opacity="0.40"></circle><circle r="11" cx="448" cy="80" opacity="0.61"></circle><circle r="11" cx="660" cy="205" opacity="0.78"></circle><circle r="11" cx="723" cy="445" opacity="0.53"></circle><circle r="11" cx="598" cy="659" opacity="0.31"></circle><circle r="11" cx="359" cy="725" opacity="0.77"></circle><circle r="11" cx="142" cy="602" opacity="0.37"></circle><circle r="11.5" cx="74" cy="362" opacity="0.25"></circle><circle r="11.5" cx="194" cy="143" opacity="0.77"></circle><circle r="11.5" cx="435" cy="72" opacity="0.66"></circle><circle r="11.5" cx="656" cy="190" opacity="0.15"></circle><circle r="11.5" cx="730" cy="431" opacity="0.41"></circle><circle r="11.5" cx="613" cy="655" opacity="0.48"></circle><circle r="11.5" cx="372" cy="732" opacity="0.74"></circle><circle r="11.5" cx="146" cy="617" opacity="0.80"></circle><circle r="11.5" cx="66" cy="376" opacity="0.17"></circle><circle r="11.5" cx="179" cy="147" opacity="0.46"></circle><circle r="11.5" cx="421" cy="64" opacity="0.31"></circle><circle r="11.5" cx="652" cy="175" opacity="0.56"></circle><circle r="11.5" cx="738" cy="417" opacity="0.28"></circle><circle r="11.5" cx="628" cy="650" opacity="0.94"></circle><circle r="11.5" cx="386" cy="739" opacity="0.78"></circle><circle r="11.5" cx="151" cy="632" opacity="0.56"></circle><circle r="11.5" cx="59" cy="390" opacity="0.91"></circle><circle r="11.5" cx="164" cy="152" opacity="0.28"></circle><circle r="11.5" cx="406" cy="57" opacity="0.73"></circle><circle r="11.5" cx="646" cy="160" opacity="0.56"></circle><circle r="11.5" cx="744" cy="403" opacity="0.52"></circle><circle r="11.5" cx="643" cy="645" opacity="0.43"></circle><circle r="11.5" cx="401" cy="746" opacity="0.60"></circle><circle r="12" cx="157" cy="647" opacity="0.28"></circle><circle r="12" cx="53" cy="405" opacity="0.31"></circle><circle r="12" cx="149" cy="159" opacity="0.24"></circle><circle r="12" cx="391" cy="51" opacity="0.17"></circle><circle r="12" cx="640" cy="145" opacity="0.89"></circle><circle r="12" cx="750" cy="388" opacity="0.99"></circle><circle r="12" cx="658" cy="638" opacity="0.36"></circle><circle r="12" cx="416" cy="752" opacity="0.50"></circle><circle r="12" cx="164" cy="662" opacity="0.98"></circle><circle r="12" cx="47" cy="420" opacity="0.35"></circle><circle r="12" cx="134" cy="165" opacity="0.39"></circle><circle r="12" cx="376" cy="46" opacity="0.83"></circle><circle r="12" cx="633" cy="131" opacity="0.11"></circle><circle r="12" cx="756" cy="372" opacity="0.34"></circle><circle r="12" cx="673" cy="631" opacity="0.82"></circle><circle r="12" cx="432" cy="757" opacity="0.72"></circle><circle r="12" cx="171" cy="677" opacity="0.66"></circle><circle r="12" cx="42" cy="436" opacity="0.83"></circle><circle r="12" cx="120" cy="173" opacity="0.40"></circle><circle r="12" cx="360" cy="41" opacity="0.58"></circle><circle r="12" cx="625" cy="116" opacity="0.74"></circle><circle r="12" cx="760" cy="356" opacity="0.21"></circle><circle r="12" cx="688" cy="623" opacity="0.31"></circle><circle r="12.5" cx="448" cy="761" opacity="0.91"></circle><circle r="12.5" cx="180" cy="691" opacity="0.94"></circle><circle r="12.5" cx="38" cy="452" opacity="0.60"></circle><circle r="12.5" cx="105" cy="182" opacity="0.20"></circle><circle r="12.5" cx="344" cy="37" opacity="0.34"></circle><circle r="12.5" cx="616" cy="101" opacity="0.92"></circle><circle r="12.5" cx="764" cy="339" opacity="0.58"></circle><circle r="12.5" cx="702" cy="614" opacity="0.48"></circle><circle r="12.5" cx="465" cy="765" opacity="0.40"></circle><circle r="12.5" cx="189" cy="706" opacity="0.59"></circle><circle r="12.5" cx="34" cy="469" opacity="0.34"></circle></g></svg>