<svg xmlns="http://www.w3.org/2000/svg" version="1.1" xmlns:xlink="http://www.w3.org/1999/xlink" xmlns:svgjs="http://svgjs.dev/svgjs" viewBox="0 0 800 800" opacity="1"><defs><linearGradient gradientTransform="rotate(270)" x1="50%" y1="0%" x2="50%" y2="100%" id="sssquiggly-grad"><stop stop-color="hsl(1.4, 100%, 67%)" stop-opacity="1" offset="0%"></stop><stop stop-color="hsl(167, 52%, 78%)" stop-opacity="1" offset="100%"></stop></linearGradient></defs><g stroke-width="7.5" stroke="url(#sssquiggly-grad)" fill="none" stroke-linecap="round" transform="matrix(1,0,0,1,-5,-819.0828094482422)"><path d="M10,10C21.805555555555557,21.041666666666668,40.97222222222223,70.5,66.66666666666667,63C92.36111111111111,55.5,105.55555555555557,-27.875,133.33333333333334,-26C161.11111111111111,-24.125,172.22222222222223,67.83333333333333,200,72C227.77777777777777,76.16666666666667,238.8888888888889,-0.5833333333333339,266.6666666666667,-6C294.44444444444446,-11.416666666666666,305.5555555555556,55.583333333333336,333.33333333333337,46C361.11111111111114,36.416666666666664,372.22222222222223,-49.083333333333336,400,-52C427.77777777777777,-54.916666666666664,438.8888888888889,32.416666666666664,466.6666666666667,32C494.44444444444446,31.583333333333332,505.5555555555556,-65.04166666666667,533.3333333333334,-54C561.1111111111111,-42.95833333333333,572.2222222222222,82.29166666666667,600,85C627.7777777777778,87.70833333333333,638.8888888888889,-33.5,666.6666666666667,-41C694.4444444444446,-48.5,705.5555555555557,51.083333333333336,733.3333333333334,49C761.1111111111111,46.916666666666664,786.1111111111111,-30.166666666666664,800,-51"></path><path d="M10,10C21.805555555555557,21.041666666666668,40.97222222222223,70.5,66.66666666666667,63C92.36111111111111,55.5,105.55555555555557,-27.875,133.33333333333334,-26C161.11111111111111,-24.125,172.22222222222223,67.83333333333333,200,72C227.77777777777777,76.16666666666667,238.8888888888889,-0.5833333333333339,266.6666666666667,-6C294.44444444444446,-11.416666666666666,305.5555555555556,55.583333333333336,333.33333333333337,46C361.11111111111114,36.416666666666664,372.22222222222223,-49.083333333333336,400,-52C427.77777777777777,-54.916666666666664,438.8888888888889,32.416666666666664,466.6666666666667,32C494.44444444444446,31.583333333333332,505.5555555555556,-65.04166666666667,533.3333333333334,-54C561.1111111111111,-42.95833333333333,572.2222222222222,82.29166666666667,600,85C627.7777777777778,87.70833333333333,638.8888888888889,-33.5,666.6666666666667,-41C694.4444444444446,-48.5,705.5555555555557,51.083333333333336,733.3333333333334,49C761.1111111111111,46.916666666666664,786.1111111111111,-30.166666666666664,800,-51" transform="matrix(1,0,0,1,0,2408)"></path><path d="M10,10C21.805555555555557,21.041666666666668,40.97222222222223,70.5,66.66666666666667,63C92.36111111111111,55.5,105.55555555555557,-27.875,133.33333333333334,-26C161.11111111111111,-24.125,172.22222222222223,67.83333333333333,200,72C227.77777777777777,76.16666666666667,238.8888888888889,-0.5833333333333339,266.6666666666667,-6C294.44444444444446,-11.416666666666666,305.5555555555556,55.583333333333336,333.33333333333337,46C361.11111111111114,36.416666666666664,372.22222222222223,-49.083333333333336,400,-52C427.77777777777777,-54.916666666666664,438.8888888888889,32.416666666666664,466.6666666666667,32C494.44444444444446,31.583333333333332,505.5555555555556,-65.04166666666667,533.3333333333334,-54C561.1111111111111,-42.95833333333333,572.2222222222222,82.29166666666667,600,85C627.7777777777778,87.70833333333333,638.8888888888889,-33.5,666.6666666666667,-41C694.4444444444446,-48.5,705.5555555555557,51.083333333333336,733.3333333333334,49C761.1111111111111,46.916666666666664,786.1111111111111,-30.166666666666664,800,-51" transform="matrix(1,0,0,1,0,2365)"></path><path d="M10,10C21.805555555555557,21.041666666666668,40.97222222222223,70.5,66.66666666666667,63C92.36111111111111,55.5,105.55555555555557,-27.875,133.33333333333334,-26C161.11111111111111,-24.125,172.22222222222223,67.83333333333333,200,72C227.77777777777777,76.16666666666667,238.8888888888889,-0.5833333333333339,266.6666666666667,-6C294.44444444444446,-11.416666666666666,305.5555555555556,55.583333333333336,333.33333333333337,46C361.11111111111114,36.416666666666664,372.22222222222223,-49.083333333333336,400,-52C427.77777777777777,-54.916666666666664,438.8888888888889,32.416666666666664,466.6666666666667,32C494.44444444444446,31.583333333333332,505.5555555555556,-65.04166666666667,533.3333333333334,-54C561.1111111111111,-42.95833333333333,572.2222222222222,82.29166666666667,600,85C627.7777777777778,87.70833333333333,638.8888888888889,-33.5,666.6666666666667,-41C694.4444444444446,-48.5,705.5555555555557,51.083333333333336,733.3333333333334,49C761.1111111111111,46.916666666666664,786.1111111111111,-30.166666666666664,800,-51" transform="matrix(1,0,0,1,0,2322)"></path><path d="M10,10C21.805555555555557,21.041666666666668,40.97222222222223,70.5,66.66666666666667,63C92.36111111111111,55.5,105.55555555555557,-27.875,133.33333333333334,-26C161.11111111111111,-24.125,172.22222222222223,67.83333333333333,200,72C227.77777777777777,76.16666666666667,238.8888888888889,-0.5833333333333339,266.6666666666667,-6C294.44444444444446,-11.416666666666666,305.5555555555556,55.583333333333336,333.33333333333337,46C361.11111111111114,36.416666666666664,372.22222222222223,-49.083333333333336,400,-52C427.77777777777777,-54.916666666666664,438.8888888888889,32.416666666666664,466.6666666666667,32C494.44444444444446,31.583333333333332,505.5555555555556,-65.04166666666667,533.3333333333334,-54C561.1111111111111,-42.95833333333333,572.2222222222222,82.29166666666667,600,85C627.7777777777778,87.70833333333333,638.8888888888889,-33.5,666.6666666666667,-41C694.4444444444446,-48.5,705.5555555555557,51.083333333333336,733.3333333333334,49C761.1111111111111,46.916666666666664,786.1111111111111,-30.166666666666664,800,-51" transform="matrix(1,0,0,1,0,2279)"></path><path d="M10,10C21.805555555555557,21.041666666666668,40.97222222222223,70.5,66.66666666666667,63C92.36111111111111,55.5,105.55555555555557,-27.875,133.33333333333334,-26C161.11111111111111,-24.125,172.22222222222223,67.83333333333333,200,72C227.77777777777777,76.16666666666667,238.8888888888889,-0.5833333333333339,266.6666666666667,-6C294.44444444444446,-11.416666666666666,305.5555555555556,55.583333333333336,333.33333333333337,46C361.11111111111114,36.416666666666664,372.22222222222223,-49.083333333333336,400,-52C427.77777777777777,-54.916666666666664,438.8888888888889,32.416666666666664,466.6666666666667,32C494.44444444444446,31.583333333333332,505.5555555555556,-65.04166666666667,533.3333333333334,-54C561.1111111111111,-42.95833333333333,572.2222222222222,82.29166666666667,600,85C627.7777777777778,87.70833333333333,638.8888888888889,-33.5,666.6666666666667,-41C694.4444444444446,-48.5,705.5555555555557,51.083333333333336,733.3333333333334,49C761.1111111111111,46.916666666666664,786.1111111111111,-30.166666666666664,800,-51" transform="matrix(1,0,0,1,0,2236)"></path><path d="M10,10C21.805555555555557,21.041666666666668,40.97222222222223,70.5,66.66666666666667,63C92.36111111111111,55.5,105.55555555555557,-27.875,133.33333333333334,-26C161.11111111111111,-24.125,172.22222222222223,67.83333333333333,200,72C227.77777777777777,76.16666666666667,238.8888888888889,-0.5833333333333339,266.6666666666667,-6C294.44444444444446,-11.416666666666666,305.5555555555556,55.583333333333336,333.33333333333337,46C361.11111111111114,36.416666666666664,372.22222222222223,-49.083333333333336,400,-52C427.77777777777777,-54.916666666666664,438.8888888888889,32.416666666666664,466.6666666666667,32C494.44444444444446,31.583333333333332,505.5555555555556,-65.04166666666667,533.3333333333334,-54C561.1111111111111,-42.95833333333333,572.2222222222222,82.29166666666667,600,85C627.7777777777778,87.70833333333333,638.8888888888889,-33.5,666.6666666666667,-41C694.4444444444446,-48.5,705.5555555555557,51.083333333333336,733.3333333333334,49C761.1111111111111,46.916666666666664,786.1111111111111,-30.166666666666664,800,-51" transform="matrix(1,0,0,1,0,2193)"></path><path d="M10,10C21.805555555555557,21.041666666666668,40.97222222222223,70.5,66.66666666666667,63C92.36111111111111,55.5,105.55555555555557,-27.875,133.33333333333334,-26C161.11111111111111,-24.125,172.22222222222223,67.83333333333333,200,72C227.77777777777777,76.16666666666667,238.8888888888889,-0.5833333333333339,266.6666666666667,-6C294.44444444444446,-11.416666666666666,305.5555555555556,55.583333333333336,333.33333333333337,46C361.11111111111114,36.416666666666664,372.22222222222223,-49.083333333333336,400,-52C427.77777777777777,-54.916666666666664,438.8888888888889,32.416666666666664,466.6666666666667,32C494.44444444444446,31.583333333333332,505.5555555555556,-65.04166666666667,533.3333333333334,-54C561.1111111111111,-42.95833333333333,572.2222222222222,82.29166666666667,600,85C627.7777777777778,87.70833333333333,638.8888888888889,-33.5,666.6666666666667,-41C694.4444444444446,-48.5,705.5555555555557,51.083333333333336,733.3333333333334,49C761.1111111111111,46.916666666666664,786.1111111111111,-30.166666666666664,800,-51" transform="matrix(1,0,0,1,0,2150)"></path><path d="M10,10C21.805555555555557,21.041666666666668,40.97222222222223,70.5,66.66666666666667,63C92.36111111111111,55.5,105.55555555555557,-27.875,133.33333333333334,-26C161.11111111111111,-24.125,172.22222222222223,67.83333333333333,200,72C227.77777777777777,76.16666666666667,238.8888888888889,-0.5833333333333339,266.6666666666667,-6C294.44444444444446,-11.416666666666666,305.5555555555556,55.583333333333336,333.33333333333337,46C361.11111111111114,36.416666666666664,372.22222222222223,-49.083333333333336,400,-52C427.77777777777777,-54.916666666666664,438.8888888888889,32.416666666666664,466.6666666666667,32C494.44444444444446,31.583333333333332,505.5555555555556,-65.04166666666667,533.3333333333334,-54C561.1111111111111,-42.95833333333333,572.2222222222222,82.29166666666667,600,85C627.7777777777778,87.70833333333333,638.8888888888889,-33.5,666.6666666666667,-41C694.4444444444446,-48.5,705.5555555555557,51.083333333333336,733.3333333333334,49C761.1111111111111,46.916666666666664,786.1111111111111,-30.166666666666664,800,-51" transform="matrix(1,0,0,1,0,2107)"></path><path d="M10,10C21.805555555555557,21.041666666666668,40.97222222222223,70.5,66.66666666666667,63C92.36111111111111,55.5,105.55555555555557,-27.875,133.33333333333334,-26C161.11111111111111,-24.125,172.22222222222223,67.83333333333333,200,72C227.77777777777777,76.16666666666667,238.8888888888889,-0.5833333333333339,266.6666666666667,-6C294.44444444444446,-11.416666666666666,305.5555555555556,55.583333333333336,333.33333333333337,46C361.11111111111114,36.416666666666664,372.22222222222223,-49.083333333333336,400,-52C427.77777777777777,-54.916666666666664,438.8888888888889,32.416666666666664,466.6666666666667,32C494.44444444444446,31.583333333333332,505.5555555555556,-65.04166666666667,533.3333333333334,-54C561.1111111111111,-42.95833333333333,572.2222222222222,82.29166666666667,600,85C627.7777777777778,87.70833333333333,638.8888888888889,-33.5,666.6666666666667,-41C694.4444444444446,-48.5,705.5555555555557,51.083333333333336,733.3333333333334,49C761.1111111111111,46.916666666666664,786.1111111111111,-30.166666666666664,800,-51" transform="matrix(1,0,0,1,0,2064)"></path><path d="M10,10C21.805555555555557,21.041666666666668,40.97222222222223,70.5,66.66666666666667,63C92.36111111111111,55.5,105.55555555555557,-27.875,133.33333333333334,-26C161.11111111111111,-24.125,172.22222222222223,67.83333333333333,200,72C227.77777777777777,76.16666666666667,238.8888888888889,-0.5833333333333339,266.6666666666667,-6C294.44444444444446,-11.416666666666666,305.5555555555556,55.583333333333336,333.33333333333337,46C361.11111111111114,36.416666666666664,372.22222222222223,-49.083333333333336,400,-52C427.77777777777777,-54.916666666666664,438.8888888888889,32.416666666666664,466.6666666666667,32C494.44444444444446,31.583333333333332,505.5555555555556,-65.04166666666667,533.3333333333334,-54C561.1111111111111,-42.95833333333333,572.2222222222222,82.29166666666667,600,85C627.7777777777778,87.70833333333333,638.8888888888889,-33.5,666.6666666666667,-41C694.4444444444446,-48.5,705.5555555555557,51.083333333333336,733.3333333333334,49C761.1111111111111,46.916666666666664,786.1111111111111,-30.166666666666664,800,-51" transform="matrix(1,0,0,1,0,2021)"></path><path d="M10,10C21.805555555555557,21.041666666666668,40.97222222222223,70.5,66.66666666666667,63C92.36111111111111,55.5,105.55555555555557,-27.875,133.33333333333334,-26C161.11111111111111,-24.125,172.22222222222223,67.83333333333333,200,72C227.77777777777777,76.16666666666667,238.8888888888889,-0.5833333333333339,266.6666666666667,-6C294.44444444444446,-11.416666666666666,305.5555555555556,55.583333333333336,333.33333333333337,46C361.11111111111114,36.416666666666664,372.22222222222223,-49.083333333333336,400,-52C427.77777777777777,-54.916666666666664,438.8888888888889,32.416666666666664,466.6666666666667,32C494.44444444444446,31.583333333333332,505.5555555555556,-65.04166666666667,533.3333333333334,-54C561.1111111111111,-42.95833333333333,572.2222222222222,82.29166666666667,600,85C627.7777777777778,87.70833333333333,638.8888888888889,-33.5,666.6666666666667,-41C694.4444444444446,-48.5,705.5555555555557,51.083333333333336,733.3333333333334,49C761.1111111111111,46.916666666666664,786.1111111111111,-30.166666666666664,800,-51" transform="matrix(1,0,0,1,0,1978)"></path><path d="M10,10C21.805555555555557,21.041666666666668,40.97222222222223,70.5,66.66666666666667,63C92.36111111111111,55.5,105.55555555555557,-27.875,133.33333333333334,-26C161.11111111111111,-24.125,172.22222222222223,67.83333333333333,200,72C227.77777777777777,76.16666666666667,238.8888888888889,-0.5833333333333339,266.6666666666667,-6C294.44444444444446,-11.416666666666666,305.5555555555556,55.583333333333336,333.33333333333337,46C361.11111111111114,36.416666666666664,372.22222222222223,-49.083333333333336,400,-52C427.77777777777777,-54.916666666666664,438.8888888888889,32.416666666666664,466.6666666666667,32C494.44444444444446,31.583333333333332,505.5555555555556,-65.04166666666667,533.3333333333334,-54C561.1111111111111,-42.95833333333333,572.2222222222222,82.29166666666667,600,85C627.7777777777778,87.70833333333333,638.8888888888889,-33.5,666.6666666666667,-41C694.4444444444446,-48.5,705.5555555555557,51.083333333333336,733.3333333333334,49C761.1111111111111,46.916666666666664,786.1111111111111,-30.166666666666664,800,-51" transform="matrix(1,0,0,1,0,1935)"></path><path d="M10,10C21.805555555555557,21.041666666666668,40.97222222222223,70.5,66.66666666666667,63C92.36111111111111,55.5,105.55555555555557,-27.875,133.33333333333334,-26C161.11111111111111,-24.125,172.22222222222223,67.83333333333333,200,72C227.77777777777777,76.16666666666667,238.8888888888889,-0.5833333333333339,266.6666666666667,-6C294.44444444444446,-11.416666666666666,305.5555555555556,55.583333333333336,333.33333333333337,46C361.11111111111114,36.416666666666664,372.22222222222223,-49.083333333333336,400,-52C427.77777777777777,-54.916666666666664,438.8888888888889,32.416666666666664,466.6666666666667,32C494.44444444444446,31.583333333333332,505.5555555555556,-65.04166666666667,533.3333333333334,-54C561.1111111111111,-42.95833333333333,572.2222222222222,82.29166666666667,600,85C627.7777777777778,87.70833333333333,638.8888888888889,-33.5,666.6666666666667,-41C694.4444444444446,-48.5,705.5555555555557,51.083333333333336,733.3333333333334,49C761.1111111111111,46.916666666666664,786.1111111111111,-30.166666666666664,800,-51" transform="matrix(1,0,0,1,0,1892)"></path><path d="M10,10C21.805555555555557,21.041666666666668,40.97222222222223,70.5,66.66666666666667,63C92.36111111111111,55.5,105.55555555555557,-27.875,133.33333333333334,-26C161.11111111111111,-24.125,172.22222222222223,67.83333333333333,200,72C227.77777777777777,76.16666666666667,238.8888888888889,-0.5833333333333339,266.6666666666667,-6C294.44444444444446,-11.416666666666666,305.5555555555556,55.583333333333336,333.33333333333337,46C361.11111111111114,36.416666666666664,372.22222222222223,-49.083333333333336,400,-52C427.77777777777777,-54.916666666666664,438.8888888888889,32.416666666666664,466.6666666666667,32C494.44444444444446,31.583333333333332,505.5555555555556,-65.04166666666667,533.3333333333334,-54C561.1111111111111,-42.95833333333333,572.2222222222222,82.29166666666667,600,85C627.7777777777778,87.70833333333333,638.8888888888889,-33.5,666.6666666666667,-41C694.4444444444446,-48.5,705.5555555555557,51.083333333333336,733.3333333333334,49C761.1111111111111,46.916666666666664,786.1111111111111,-30.166666666666664,800,-51" transform="matrix(1,0,0,1,0,1849)"></path><path d="M10,10C21.805555555555557,21.041666666666668,40.97222222222223,70.5,66.66666666666667,63C92.36111111111111,55.5,105.55555555555557,-27.875,133.33333333333334,-26C161.11111111111111,-24.125,172.22222222222223,67.83333333333333,200,72C227.77777777777777,76.16666666666667,238.8888888888889,-0.5833333333333339,266.6666666666667,-6C294.44444444444446,-11.416666666666666,305.5555555555556,55.583333333333336,333.33333333333337,46C361.11111111111114,36.416666666666664,372.22222222222223,-49.083333333333336,400,-52C427.77777777777777,-54.916666666666664,438.8888888888889,32.416666666666664,466.6666666666667,32C494.44444444444446,31.583333333333332,505.5555555555556,-65.04166666666667,533.3333333333334,-54C561.1111111111111,-42.95833333333333,572.2222222222222,82.29166666666667,600,85C627.7777777777778,87.70833333333333,638.8888888888889,-33.5,666.6666666666667,-41C694.4444444444446,-48.5,705.5555555555557,51.083333333333336,733.3333333333334,49C761.1111111111111,46.916666666666664,786.1111111111111,-30.166666666666664,800,-51" transform="matrix(1,0,0,1,0,1806)"></path><path d="M10,10C21.805555555555557,21.041666666666668,40.97222222222223,70.5,66.66666666666667,63C92.36111111111111,55.5,105.55555555555557,-27.875,133.33333333333334,-26C161.11111111111111,-24.125,172.22222222222223,67.83333333333333,200,72C227.77777777777777,76.16666666666667,238.8888888888889,-0.5833333333333339,266.6666666666667,-6C294.44444444444446,-11.416666666666666,305.5555555555556,55.583333333333336,333.33333333333337,46C361.11111111111114,36.416666666666664,372.22222222222223,-49.083333333333336,400,-52C427.77777777777777,-54.916666666666664,438.8888888888889,32.416666666666664,466.6666666666667,32C494.44444444444446,31.583333333333332,505.5555555555556,-65.04166666666667,533.3333333333334,-54C561.1111111111111,-42.95833333333333,572.2222222222222,82.29166666666667,600,85C627.7777777777778,87.70833333333333,638.8888888888889,-33.5,666.6666666666667,-41C694.4444444444446,-48.5,705.5555555555557,51.083333333333336,733.3333333333334,49C761.1111111111111,46.916666666666664,786.1111111111111,-30.166666666666664,800,-51" transform="matrix(1,0,0,1,0,1763)"></path><path d="M10,10C21.805555555555557,21.041666666666668,40.97222222222223,70.5,66.66666666666667,63C92.36111111111111,55.5,105.55555555555557,-27.875,133.33333333333334,-26C161.11111111111111,-24.125,172.22222222222223,67.83333333333333,200,72C227.77777777777777,76.16666666666667,238.8888888888889,-0.5833333333333339,266.6666666666667,-6C294.44444444444446,-11.416666666666666,305.5555555555556,55.583333333333336,333.33333333333337,46C361.11111111111114,36.416666666666664,372.22222222222223,-49.083333333333336,400,-52C427.77777777777777,-54.916666666666664,438.8888888888889,32.416666666666664,466.6666666666667,32C494.44444444444446,31.583333333333332,505.5555555555556,-65.04166666666667,533.3333333333334,-54C561.1111111111111,-42.95833333333333,572.2222222222222,82.29166666666667,600,85C627.7777777777778,87.70833333333333,638.8888888888889,-33.5,666.6666666666667,-41C694.4444444444446,-48.5,705.5555555555557,51.083333333333336,733.3333333333334,49C761.1111111111111,46.916666666666664,786.1111111111111,-30.166666666666664,800,-51" transform="matrix(1,0,0,1,0,1720)"></path><path d="M10,10C21.805555555555557,21.041666666666668,40.97222222222223,70.5,66.66666666666667,63C92.36111111111111,55.5,105.55555555555557,-27.875,133.33333333333334,-26C161.11111111111111,-24.125,172.22222222222223,67.83333333333333,200,72C227.77777777777777,76.16666666666667,238.8888888888889,-0.5833333333333339,266.6666666666667,-6C294.44444444444446,-11.416666666666666,305.5555555555556,55.583333333333336,333.33333333333337,46C361.11111111111114,36.416666666666664,372.22222222222223,-49.083333333333336,400,-52C427.77777777777777,-54.916666666666664,438.8888888888889,32.416666666666664,466.6666666666667,32C494.44444444444446,31.583333333333332,505.5555555555556,-65.04166666666667,533.3333333333334,-54C561.1111111111111,-42.95833333333333,572.2222222222222,82.29166666666667,600,85C627.7777777777778,87.70833333333333,638.8888888888889,-33.5,666.6666666666667,-41C694.4444444444446,-48.5,705.5555555555557,51.083333333333336,733.3333333333334,49C761.1111111111111,46.916666666666664,786.1111111111111,-30.166666666666664,800,-51" transform="matrix(1,0,0,1,0,1677)"></path><path d="M10,10C21.805555555555557,21.041666666666668,40.97222222222223,70.5,66.66666666666667,63C92.36111111111111,55.5,105.55555555555557,-27.875,133.33333333333334,-26C161.11111111111111,-24.125,172.22222222222223,67.83333333333333,200,72C227.77777777777777,76.16666666666667,238.8888888888889,-0.5833333333333339,266.6666666666667,-6C294.44444444444446,-11.416666666666666,305.5555555555556,55.583333333333336,333.33333333333337,46C361.11111111111114,36.416666666666664,372.22222222222223,-49.083333333333336,400,-52C427.77777777777777,-54.916666666666664,438.8888888888889,32.416666666666664,466.6666666666667,32C494.44444444444446,31.583333333333332,505.5555555555556,-65.04166666666667,533.3333333333334,-54C561.1111111111111,-42.95833333333333,572.2222222222222,82.29166666666667,600,85C627.7777777777778,87.70833333333333,638.8888888888889,-33.5,666.6666666666667,-41C694.4444444444446,-48.5,705.5555555555557,51.083333333333336,733.3333333333334,49C761.1111111111111,46.916666666666664,786.1111111111111,-30.166666666666664,800,-51" transform="matrix(1,0,0,1,0,1634)"></path><path d="M10,10C21.805555555555557,21.041666666666668,40.97222222222223,70.5,66.66666666666667,63C92.36111111111111,55.5,105.55555555555557,-27.875,133.33333333333334,-26C161.11111111111111,-24.125,172.22222222222223,67.83333333333333,200,72C227.77777777777777,76.16666666666667,238.8888888888889,-0.5833333333333339,266.6666666666667,-6C294.44444444444446,-11.416666666666666,305.5555555555556,55.583333333333336,333.33333333333337,46C361.11111111111114,36.416666666666664,372.22222222222223,-49.083333333333336,400,-52C427.77777777777777,-54.916666666666664,438.8888888888889,32.416666666666664,466.6666666666667,32C494.44444444444446,31.583333333333332,505.5555555555556,-65.04166666666667,533.3333333333334,-54C561.1111111111111,-42.95833333333333,572.2222222222222,82.29166666666667,600,85C627.7777777777778,87.70833333333333,638.8888888888889,-33.5,666.6666666666667,-41C694.4444444444446,-48.5,705.5555555555557,51.083333333333336,733.3333333333334,49C761.1111111111111,46.916666666666664,786.1111111111111,-30.166666666666664,800,-51" transform="matrix(1,0,0,1,0,1591)"></path><path d="M10,10C21.805555555555557,21.041666666666668,40.97222222222223,70.5,66.66666666666667,63C92.36111111111111,55.5,105.55555555555557,-27.875,133.33333333333334,-26C161.11111111111111,-24.125,172.22222222222223,67.83333333333333,200,72C227.77777777777777,76.16666666666667,238.8888888888889,-0.5833333333333339,266.6666666666667,-6C294.44444444444446,-11.416666666666666,305.5555555555556,55.583333333333336,333.33333333333337,46C361.11111111111114,36.416666666666664,372.22222222222223,-49.083333333333336,400,-52C427.77777777777777,-54.916666666666664,438.8888888888889,32.416666666666664,466.6666666666667,32C494.44444444444446,31.583333333333332,505.5555555555556,-65.04166666666667,533.3333333333334,-54C561.1111111111111,-42.95833333333333,572.2222222222222,82.29166666666667,600,85C627.7777777777778,87.70833333333333,638.8888888888889,-33.5,666.6666666666667,-41C694.4444444444446,-48.5,705.5555555555557,51.083333333333336,733.3333333333334,49C761.1111111111111,46.916666666666664,786.1111111111111,-30.166666666666664,800,-51" transform="matrix(1,0,0,1,0,1548)"></path><path d="M10,10C21.805555555555557,21.041666666666668,40.97222222222223,70.5,66.66666666666667,63C92.36111111111111,55.5,105.55555555555557,-27.875,133.33333333333334,-26C161.11111111111111,-24.125,172.22222222222223,67.83333333333333,200,72C227.77777777777777,76.16666666666667,238.8888888888889,-0.5833333333333339,266.6666666666667,-6C294.44444444444446,-11.416666666666666,305.5555555555556,55.583333333333336,333.33333333333337,46C361.11111111111114,36.416666666666664,372.22222222222223,-49.083333333333336,400,-52C427.77777777777777,-54.916666666666664,438.8888888888889,32.416666666666664,466.6666666666667,32C494.44444444444446,31.583333333333332,505.5555555555556,-65.04166666666667,533.3333333333334,-54C561.1111111111111,-42.95833333333333,572.2222222222222,82.29166666666667,600,85C627.7777777777778,87.70833333333333,638.8888888888889,-33.5,666.6666666666667,-41C694.4444444444446,-48.5,705.5555555555557,51.083333333333336,733.3333333333334,49C761.1111111111111,46.916666666666664,786.1111111111111,-30.166666666666664,800,-51" transform="matrix(1,0,0,1,0,1505)"></path><path d="M10,10C21.805555555555557,21.041666666666668,40.97222222222223,70.5,66.66666666666667,63C92.36111111111111,55.5,105.55555555555557,-27.875,133.33333333333334,-26C161.11111111111111,-24.125,172.22222222222223,67.83333333333333,200,72C227.77777777777777,76.16666666666667,238.8888888888889,-0.5833333333333339,266.6666666666667,-6C294.44444444444446,-11.416666666666666,305.5555555555556,55.583333333333336,333.33333333333337,46C361.11111111111114,36.416666666666664,372.22222222222223,-49.083333333333336,400,-52C427.77777777777777,-54.916666666666664,438.8888888888889,32.416666666666664,466.6666666666667,32C494.44444444444446,31.583333333333332,505.5555555555556,-65.04166666666667,533.3333333333334,-54C561.1111111111111,-42.95833333333333,572.2222222222222,82.29166666666667,600,85C627.7777777777778,87.70833333333333,638.8888888888889,-33.5,666.6666666666667,-41C694.4444444444446,-48.5,705.5555555555557,51.083333333333336,733.3333333333334,49C761.1111111111111,46.916666666666664,786.1111111111111,-30.166666666666664,800,-51" transform="matrix(1,0,0,1,0,1462)"></path><path d="M10,10C21.805555555555557,21.041666666666668,40.97222222222223,70.5,66.66666666666667,63C92.36111111111111,55.5,105.55555555555557,-27.875,133.33333333333334,-26C161.11111111111111,-24.125,172.22222222222223,67.83333333333333,200,72C227.77777777777777,76.16666666666667,238.8888888888889,-0.5833333333333339,266.6666666666667,-6C294.44444444444446,-11.416666666666666,305.5555555555556,55.583333333333336,333.33333333333337,46C361.11111111111114,36.416666666666664,372.22222222222223,-49.083333333333336,400,-52C427.77777777777777,-54.916666666666664,438.8888888888889,32.416666666666664,466.6666666666667,32C494.44444444444446,31.583333333333332,505.5555555555556,-65.04166666666667,533.3333333333334,-54C561.1111111111111,-42.95833333333333,572.2222222222222,82.29166666666667,600,85C627.7777777777778,87.70833333333333,638.8888888888889,-33.5,666.6666666666667,-41C694.4444444444446,-48.5,705.5555555555557,51.083333333333336,733.3333333333334,49C761.1111111111111,46.916666666666664,786.1111111111111,-30.166666666666664,800,-51" transform="matrix(1,0,0,1,0,1419)"></path><path d="M10,10C21.805555555555557,21.041666666666668,40.97222222222223,70.5,66.66666666666667,63C92.36111111111111,55.5,105.55555555555557,-27.875,133.33333333333334,-26C161.11111111111111,-24.125,172.22222222222223,67.83333333333333,200,72C227.77777777777777,76.16666666666667,238.8888888888889,-0.5833333333333339,266.6666666666667,-6C294.44444444444446,-11.416666666666666,305.5555555555556,55.583333333333336,333.33333333333337,46C361.11111111111114,36.416666666666664,372.22222222222223,-49.083333333333336,400,-52C427.77777777777777,-54.916666666666664,438.8888888888889,32.416666666666664,466.6666666666667,32C494.44444444444446,31.583333333333332,505.5555555555556,-65.04166666666667,533.3333333333334,-54C561.1111111111111,-42.95833333333333,572.2222222222222,82.29166666666667,600,85C627.7777777777778,87.70833333333333,638.8888888888889,-33.5,666.6666666666667,-41C694.4444444444446,-48.5,705.5555555555557,51.083333333333336,733.3333333333334,49C761.1111111111111,46.916666666666664,786.1111111111111,-30.166666666666664,800,-51" transform="matrix(1,0,0,1,0,1376)"></path><path d="M10,10C21.805555555555557,21.041666666666668,40.97222222222223,70.5,66.66666666666667,63C92.36111111111111,55.5,105.55555555555557,-27.875,133.33333333333334,-26C161.11111111111111,-24.125,172.22222222222223,67.83333333333333,200,72C227.77777777777777,76.16666666666667,238.8888888888889,-0.5833333333333339,266.6666666666667,-6C294.44444444444446,-11.416666666666666,305.5555555555556,55.583333333333336,333.33333333333337,46C361.11111111111114,36.416666666666664,372.22222222222223,-49.083333333333336,400,-52C427.77777777777777,-54.916666666666664,438.8888888888889,32.416666666666664,466.6666666666667,32C494.44444444444446,31.583333333333332,505.5555555555556,-65.04166666666667,533.3333333333334,-54C561.1111111111111,-42.95833333333333,572.2222222222222,82.29166666666667,600,85C627.7777777777778,87.70833333333333,638.8888888888889,-33.5,666.6666666666667,-41C694.4444444444446,-48.5,705.5555555555557,51.083333333333336,733.3333333333334,49C761.1111111111111,46.916666666666664,786.1111111111111,-30.166666666666664,800,-51" transform="matrix(1,0,0,1,0,1333)"></path><path d="M10,10C21.805555555555557,21.041666666666668,40.97222222222223,70.5,66.66666666666667,63C92.36111111111111,55.5,105.55555555555557,-27.875,133.33333333333334,-26C161.11111111111111,-24.125,172.22222222222223,67.83333333333333,200,72C227.77777777777777,76.16666666666667,238.8888888888889,-0.5833333333333339,266.6666666666667,-6C294.44444444444446,-11.416666666666666,305.5555555555556,55.583333333333336,333.33333333333337,46C361.11111111111114,36.416666666666664,372.22222222222223,-49.083333333333336,400,-52C427.77777777777777,-54.916666666666664,438.8888888888889,32.416666666666664,466.6666666666667,32C494.44444444444446,31.583333333333332,505.5555555555556,-65.04166666666667,533.3333333333334,-54C561.1111111111111,-42.95833333333333,572.2222222222222,82.29166666666667,600,85C627.7777777777778,87.70833333333333,638.8888888888889,-33.5,666.6666666666667,-41C694.4444444444446,-48.5,705.5555555555557,51.083333333333336,733.3333333333334,49C761.1111111111111,46.916666666666664,786.1111111111111,-30.166666666666664,800,-51" transform="matrix(1,0,0,1,0,1290)"></path><path d="M10,10C21.805555555555557,21.041666666666668,40.97222222222223,70.5,66.66666666666667,63C92.36111111111111,55.5,105.55555555555557,-27.875,133.33333333333334,-26C161.11111111111111,-24.125,172.22222222222223,67.83333333333333,200,72C227.77777777777777,76.16666666666667,238.8888888888889,-0.5833333333333339,266.6666666666667,-6C294.44444444444446,-11.416666666666666,305.5555555555556,55.583333333333336,333.33333333333337,46C361.11111111111114,36.416666666666664,372.22222222222223,-49.083333333333336,400,-52C427.77777777777777,-54.916666666666664,438.8888888888889,32.416666666666664,466.6666666666667,32C494.44444444444446,31.583333333333332,505.5555555555556,-65.04166666666667,533.3333333333334,-54C561.1111111111111,-42.95833333333333,572.2222222222222,82.29166666666667,600,85C627.7777777777778,87.70833333333333,638.8888888888889,-33.5,666.6666666666667,-41C694.4444444444446,-48.5,705.5555555555557,51.083333333333336,733.3333333333334,49C761.1111111111111,46.916666666666664,786.1111111111111,-30.166666666666664,800,-51" transform="matrix(1,0,0,1,0,1247)"></path><path d="M10,10C21.805555555555557,21.041666666666668,40.97222222222223,70.5,66.66666666666667,63C92.36111111111111,55.5,105.55555555555557,-27.875,133.33333333333334,-26C161.11111111111111,-24.125,172.22222222222223,67.83333333333333,200,72C227.77777777777777,76.16666666666667,238.8888888888889,-0.5833333333333339,266.6666666666667,-6C294.44444444444446,-11.416666666666666,305.5555555555556,55.583333333333336,333.33333333333337,46C361.11111111111114,36.416666666666664,372.22222222222223,-49.083333333333336,400,-52C427.77777777777777,-54.916666666666664,438.8888888888889,32.416666666666664,466.6666666666667,32C494.44444444444446,31.583333333333332,505.5555555555556,-65.04166666666667,533.3333333333334,-54C561.1111111111111,-42.95833333333333,572.2222222222222,82.29166666666667,600,85C627.7777777777778,87.70833333333333,638.8888888888889,-33.5,666.6666666666667,-41C694.4444444444446,-48.5,705.5555555555557,51.083333333333336,733.3333333333334,49C761.1111111111111,46.916666666666664,786.1111111111111,-30.166666666666664,800,-51" transform="matrix(1,0,0,1,0,1204)"></path><path d="M10,10C21.805555555555557,21.041666666666668,40.97222222222223,70.5,66.66666666666667,63C92.36111111111111,55.5,105.55555555555557,-27.875,133.33333333333334,-26C161.11111111111111,-24.125,172.22222222222223,67.83333333333333,200,72C227.77777777777777,76.16666666666667,238.8888888888889,-0.5833333333333339,266.6666666666667,-6C294.44444444444446,-11.416666666666666,305.5555555555556,55.583333333333336,333.33333333333337,46C361.11111111111114,36.416666666666664,372.22222222222223,-49.083333333333336,400,-52C427.77777777777777,-54.916666666666664,438.8888888888889,32.416666666666664,466.6666666666667,32C494.44444444444446,31.583333333333332,505.5555555555556,-65.04166666666667,533.3333333333334,-54C561.1111111111111,-42.95833333333333,572.2222222222222,82.29166666666667,600,85C627.7777777777778,87.70833333333333,638.8888888888889,-33.5,666.6666666666667,-41C694.4444444444446,-48.5,705.5555555555557,51.083333333333336,733.3333333333334,49C761.1111111111111,46.916666666666664,786.1111111111111,-30.166666666666664,800,-51" transform="matrix(1,0,0,1,0,1161)"></path><path d="M10,10C21.805555555555557,21.041666666666668,40.97222222222223,70.5,66.66666666666667,63C92.36111111111111,55.5,105.55555555555557,-27.875,133.33333333333334,-26C161.11111111111111,-24.125,172.22222222222223,67.83333333333333,200,72C227.77777777777777,76.16666666666667,238.8888888888889,-0.5833333333333339,266.6666666666667,-6C294.44444444444446,-11.416666666666666,305.5555555555556,55.583333333333336,333.33333333333337,46C361.11111111111114,36.416666666666664,372.22222222222223,-49.083333333333336,400,-52C427.77777777777777,-54.916666666666664,438.8888888888889,32.416666666666664,466.6666666666667,32C494.44444444444446,31.583333333333332,505.5555555555556,-65.04166666666667,533.3333333333334,-54C561.1111111111111,-42.95833333333333,572.2222222222222,82.29166666666667,600,85C627.7777777777778,87.70833333333333,638.8888888888889,-33.5,666.6666666666667,-41C694.4444444444446,-48.5,705.5555555555557,51.083333333333336,733.3333333333334,49C761.1111111111111,46.916666666666664,786.1111111111111,-30.166666666666664,800,-51" transform="matrix(1,0,0,1,0,1118)"></path><path d="M10,10C21.805555555555557,21.041666666666668,40.97222222222223,70.5,66.66666666666667,63C92.36111111111111,55.5,105.55555555555557,-27.875,133.33333333333334,-26C161.11111111111111,-24.125,172.22222222222223,67.83333333333333,200,72C227.77777777777777,76.16666666666667,238.8888888888889,-0.5833333333333339,266.6666666666667,-6C294.44444444444446,-11.416666666666666,305.5555555555556,55.583333333333336,333.33333333333337,46C361.11111111111114,36.416666666666664,372.22222222222223,-49.083333333333336,400,-52C427.77777777777777,-54.916666666666664,438.8888888888889,32.416666666666664,466.6666666666667,32C494.44444444444446,31.583333333333332,505.5555555555556,-65.04166666666667,533.3333333333334,-54C561.1111111111111,-42.95833333333333,572.2222222222222,82.29166666666667,600,85C627.7777777777778,87.70833333333333,638.8888888888889,-33.5,666.6666666666667,-41C694.4444444444446,-48.5,705.5555555555557,51.083333333333336,733.3333333333334,49C761.1111111111111,46.916666666666664,786.1111111111111,-30.166666666666664,800,-51" transform="matrix(1,0,0,1,0,1075)"></path><path d="M10,10C21.805555555555557,21.041666666666668,40.97222222222223,70.5,66.66666666666667,63C92.36111111111111,55.5,105.55555555555557,-27.875,133.33333333333334,-26C161.11111111111111,-24.125,172.22222222222223,67.83333333333333,200,72C227.77777777777777,76.16666666666667,238.8888888888889,-0.5833333333333339,266.6666666666667,-6C294.44444444444446,-11.416666666666666,305.5555555555556,55.583333333333336,333.33333333333337,46C361.11111111111114,36.416666666666664,372.22222222222223,-49.083333333333336,400,-52C427.77777777777777,-54.916666666666664,438.8888888888889,32.416666666666664,466.6666666666667,32C494.44444444444446,31.583333333333332,505.5555555555556,-65.04166666666667,533.3333333333334,-54C561.1111111111111,-42.95833333333333,572.2222222222222,82.29166666666667,600,85C627.7777777777778,87.70833333333333,638.8888888888889,-33.5,666.6666666666667,-41C694.4444444444446,-48.5,705.5555555555557,51.083333333333336,733.3333333333334,49C761.1111111111111,46.916666666666664,786.1111111111111,-30.166666666666664,800,-51" transform="matrix(1,0,0,1,0,1032)"></path><path d="M10,10C21.805555555555557,21.041666666666668,40.97222222222223,70.5,66.66666666666667,63C92.36111111111111,55.5,105.55555555555557,-27.875,133.33333333333334,-26C161.11111111111111,-24.125,172.22222222222223,67.83333333333333,200,72C227.77777777777777,76.16666666666667,238.8888888888889,-0.5833333333333339,266.6666666666667,-6C294.44444444444446,-11.416666666666666,305.5555555555556,55.583333333333336,333.33333333333337,46C361.11111111111114,36.416666666666664,372.22222222222223,-49.083333333333336,400,-52C427.77777777777777,-54.916666666666664,438.8888888888889,32.416666666666664,466.6666666666667,32C494.44444444444446,31.583333333333332,505.5555555555556,-65.04166666666667,533.3333333333334,-54C561.1111111111111,-42.95833333333333,572.2222222222222,82.29166666666667,600,85C627.7777777777778,87.70833333333333,638.8888888888889,-33.5,666.6666666666667,-41C694.4444444444446,-48.5,705.5555555555557,51.083333333333336,733.3333333333334,49C761.1111111111111,46.916666666666664,786.1111111111111,-30.166666666666664,800,-51" transform="matrix(1,0,0,1,0,989)"></path><path d="M10,10C21.805555555555557,21.041666666666668,40.97222222222223,70.5,66.66666666666667,63C92.36111111111111,55.5,105.55555555555557,-27.875,133.33333333333334,-26C161.11111111111111,-24.125,172.22222222222223,67.83333333333333,200,72C227.77777777777777,76.16666666666667,238.8888888888889,-0.5833333333333339,266.6666666666667,-6C294.44444444444446,-11.416666666666666,305.5555555555556,55.583333333333336,333.33333333333337,46C361.11111111111114,36.416666666666664,372.22222222222223,-49.083333333333336,400,-52C427.77777777777777,-54.916666666666664,438.8888888888889,32.416666666666664,466.6666666666667,32C494.44444444444446,31.583333333333332,505.5555555555556,-65.04166666666667,533.3333333333334,-54C561.1111111111111,-42.95833333333333,572.2222222222222,82.29166666666667,600,85C627.7777777777778,87.70833333333333,638.8888888888889,-33.5,666.6666666666667,-41C694.4444444444446,-48.5,705.5555555555557,51.083333333333336,733.3333333333334,49C761.1111111111111,46.916666666666664,786.1111111111111,-30.166666666666664,800,-51" transform="matrix(1,0,0,1,0,946)"></path><path d="M10,10C21.805555555555557,21.041666666666668,40.97222222222223,70.5,66.66666666666667,63C92.36111111111111,55.5,105.55555555555557,-27.875,133.33333333333334,-26C161.11111111111111,-24.125,172.22222222222223,67.83333333333333,200,72C227.77777777777777,76.16666666666667,238.8888888888889,-0.5833333333333339,266.6666666666667,-6C294.44444444444446,-11.416666666666666,305.5555555555556,55.583333333333336,333.33333333333337,46C361.11111111111114,36.416666666666664,372.22222222222223,-49.083333333333336,400,-52C427.77777777777777,-54.916666666666664,438.8888888888889,32.416666666666664,466.6666666666667,32C494.44444444444446,31.583333333333332,505.5555555555556,-65.04166666666667,533.3333333333334,-54C561.1111111111111,-42.95833333333333,572.2222222222222,82.29166666666667,600,85C627.7777777777778,87.70833333333333,638.8888888888889,-33.5,666.6666666666667,-41C694.4444444444446,-48.5,705.5555555555557,51.083333333333336,733.3333333333334,49C761.1111111111111,46.916666666666664,786.1111111111111,-30.166666666666664,800,-51" transform="matrix(1,0,0,1,0,903)"></path><path d="M10,10C21.805555555555557,21.041666666666668,40.97222222222223,70.5,66.66666666666667,63C92.36111111111111,55.5,105.55555555555557,-27.875,133.33333333333334,-26C161.11111111111111,-24.125,172.22222222222223,67.83333333333333,200,72C227.77777777777777,76.16666666666667,238.8888888888889,-0.5833333333333339,266.6666666666667,-6C294.44444444444446,-11.416666666666666,305.5555555555556,55.583333333333336,333.33333333333337,46C361.11111111111114,36.416666666666664,372.22222222222223,-49.083333333333336,400,-52C427.77777777777777,-54.916666666666664,438.8888888888889,32.416666666666664,466.6666666666667,32C494.44444444444446,31.583333333333332,505.5555555555556,-65.04166666666667,533.3333333333334,-54C561.1111111111111,-42.95833333333333,572.2222222222222,82.29166666666667,600,85C627.7777777777778,87.70833333333333,638.8888888888889,-33.5,666.6666666666667,-41C694.4444444444446,-48.5,705.5555555555557,51.083333333333336,733.3333333333334,49C761.1111111111111,46.916666666666664,786.1111111111111,-30.166666666666664,800,-51" transform="matrix(1,0,0,1,0,860)"></path><path d="M10,10C21.805555555555557,21.041666666666668,40.97222222222223,70.5,66.66666666666667,63C92.36111111111111,55.5,105.55555555555557,-27.875,133.33333333333334,-26C161.11111111111111,-24.125,172.22222222222223,67.83333333333333,200,72C227.77777777777777,76.16666666666667,238.8888888888889,-0.5833333333333339,266.6666666666667,-6C294.44444444444446,-11.416666666666666,305.5555555555556,55.583333333333336,333.33333333333337,46C361.11111111111114,36.416666666666664,372.22222222222223,-49.083333333333336,400,-52C427.77777777777777,-54.916666666666664,438.8888888888889,32.416666666666664,466.6666666666667,32C494.44444444444446,31.583333333333332,505.5555555555556,-65.04166666666667,533.3333333333334,-54C561.1111111111111,-42.95833333333333,572.2222222222222,82.29166666666667,600,85C627.7777777777778,87.70833333333333,638.8888888888889,-33.5,666.6666666666667,-41C694.4444444444446,-48.5,705.5555555555557,51.083333333333336,733.3333333333334,49C761.1111111111111,46.916666666666664,786.1111111111111,-30.166666666666664,800,-51" transform="matrix(1,0,0,1,0,817)"></path><path d="M10,10C21.805555555555557,21.041666666666668,40.97222222222223,70.5,66.66666666666667,63C92.36111111111111,55.5,105.55555555555557,-27.875,133.33333333333334,-26C161.11111111111111,-24.125,172.22222222222223,67.83333333333333,200,72C227.77777777777777,76.16666666666667,238.8888888888889,-0.5833333333333339,266.6666666666667,-6C294.44444444444446,-11.416666666666666,305.5555555555556,55.583333333333336,333.33333333333337,46C361.11111111111114,36.416666666666664,372.22222222222223,-49.083333333333336,400,-52C427.77777777777777,-54.916666666666664,438.8888888888889,32.416666666666664,466.6666666666667,32C494.44444444444446,31.583333333333332,505.5555555555556,-65.04166666666667,533.3333333333334,-54C561.1111111111111,-42.95833333333333,572.2222222222222,82.29166666666667,600,85C627.7777777777778,87.70833333333333,638.8888888888889,-33.5,666.6666666666667,-41C694.4444444444446,-48.5,705.5555555555557,51.083333333333336,733.3333333333334,49C761.1111111111111,46.916666666666664,786.1111111111111,-30.166666666666664,800,-51" transform="matrix(1,0,0,1,0,774)"></path><path d="M10,10C21.805555555555557,21.041666666666668,40.97222222222223,70.5,66.66666666666667,63C92.36111111111111,55.5,105.55555555555557,-27.875,133.33333333333334,-26C161.11111111111111,-24.125,172.22222222222223,67.83333333333333,200,72C227.77777777777777,76.16666666666667,238.8888888888889,-0.5833333333333339,266.6666666666667,-6C294.44444444444446,-11.416666666666666,305.5555555555556,55.583333333333336,333.33333333333337,46C361.11111111111114,36.416666666666664,372.22222222222223,-49.083333333333336,400,-52C427.77777777777777,-54.916666666666664,438.8888888888889,32.416666666666664,466.6666666666667,32C494.44444444444446,31.583333333333332,505.5555555555556,-65.04166666666667,533.3333333333334,-54C561.1111111111111,-42.95833333333333,572.2222222222222,82.29166666666667,600,85C627.7777777777778,87.70833333333333,638.8888888888889,-33.5,666.6666666666667,-41C694.4444444444446,-48.5,705.5555555555557,51.083333333333336,733.3333333333334,49C761.1111111111111,46.916666666666664,786.1111111111111,-30.166666666666664,800,-51" transform="matrix(1,0,0,1,0,731)"></path><path d="M10,10C21.805555555555557,21.041666666666668,40.97222222222223,70.5,66.66666666666667,63C92.36111111111111,55.5,105.55555555555557,-27.875,133.33333333333334,-26C161.11111111111111,-24.125,172.22222222222223,67.83333333333333,200,72C227.77777777777777,76.16666666666667,238.8888888888889,-0.5833333333333339,266.6666666666667,-6C294.44444444444446,-11.416666666666666,305.5555555555556,55.583333333333336,333.33333333333337,46C361.11111111111114,36.416666666666664,372.22222222222223,-49.083333333333336,400,-52C427.77777777777777,-54.916666666666664,438.8888888888889,32.416666666666664,466.6666666666667,32C494.44444444444446,31.583333333333332,505.5555555555556,-65.04166666666667,533.3333333333334,-54C561.1111111111111,-42.95833333333333,572.2222222222222,82.29166666666667,600,85C627.7777777777778,87.70833333333333,638.8888888888889,-33.5,666.6666666666667,-41C694.4444444444446,-48.5,705.5555555555557,51.083333333333336,733.3333333333334,49C761.1111111111111,46.916666666666664,786.1111111111111,-30.166666666666664,800,-51" transform="matrix(1,0,0,1,0,688)"></path><path d="M10,10C21.805555555555557,21.041666666666668,40.97222222222223,70.5,66.66666666666667,63C92.36111111111111,55.5,105.55555555555557,-27.875,133.33333333333334,-26C161.11111111111111,-24.125,172.22222222222223,67.83333333333333,200,72C227.77777777777777,76.16666666666667,238.8888888888889,-0.5833333333333339,266.6666666666667,-6C294.44444444444446,-11.416666666666666,305.5555555555556,55.583333333333336,333.33333333333337,46C361.11111111111114,36.416666666666664,372.22222222222223,-49.083333333333336,400,-52C427.77777777777777,-54.916666666666664,438.8888888888889,32.416666666666664,466.6666666666667,32C494.44444444444446,31.583333333333332,505.5555555555556,-65.04166666666667,533.3333333333334,-54C561.1111111111111,-42.95833333333333,572.2222222222222,82.29166666666667,600,85C627.7777777777778,87.70833333333333,638.8888888888889,-33.5,666.6666666666667,-41C694.4444444444446,-48.5,705.5555555555557,51.083333333333336,733.3333333333334,49C761.1111111111111,46.916666666666664,786.1111111111111,-30.166666666666664,800,-51" transform="matrix(1,0,0,1,0,645)"></path><path d="M10,10C21.805555555555557,21.041666666666668,40.97222222222223,70.5,66.66666666666667,63C92.36111111111111,55.5,105.55555555555557,-27.875,133.33333333333334,-26C161.11111111111111,-24.125,172.22222222222223,67.83333333333333,200,72C227.77777777777777,76.16666666666667,238.8888888888889,-0.5833333333333339,266.6666666666667,-6C294.44444444444446,-11.416666666666666,305.5555555555556,55.583333333333336,333.33333333333337,46C361.11111111111114,36.416666666666664,372.22222222222223,-49.083333333333336,400,-52C427.77777777777777,-54.916666666666664,438.8888888888889,32.416666666666664,466.6666666666667,32C494.44444444444446,31.583333333333332,505.5555555555556,-65.04166666666667,533.3333333333334,-54C561.1111111111111,-42.95833333333333,572.2222222222222,82.29166666666667,600,85C627.7777777777778,87.70833333333333,638.8888888888889,-33.5,666.6666666666667,-41C694.4444444444446,-48.5,705.5555555555557,51.083333333333336,733.3333333333334,49C761.1111111111111,46.916666666666664,786.1111111111111,-30.166666666666664,800,-51" transform="matrix(1,0,0,1,0,602)"></path><path d="M10,10C21.805555555555557,21.041666666666668,40.97222222222223,70.5,66.66666666666667,63C92.36111111111111,55.5,105.55555555555557,-27.875,133.33333333333334,-26C161.11111111111111,-24.125,172.22222222222223,67.83333333333333,200,72C227.77777777777777,76.16666666666667,238.8888888888889,-0.5833333333333339,266.6666666666667,-6C294.44444444444446,-11.416666666666666,305.5555555555556,55.583333333333336,333.33333333333337,46C361.11111111111114,36.416666666666664,372.22222222222223,-49.083333333333336,400,-52C427.77777777777777,-54.916666666666664,438.8888888888889,32.416666666666664,466.6666666666667,32C494.44444444444446,31.583333333333332,505.5555555555556,-65.04166666666667,533.3333333333334,-54C561.1111111111111,-42.95833333333333,572.2222222222222,82.29166666666667,600,85C627.7777777777778,87.70833333333333,638.8888888888889,-33.5,666.6666666666667,-41C694.4444444444446,-48.5,705.5555555555557,51.083333333333336,733.3333333333334,49C761.1111111111111,46.916666666666664,786.1111111111111,-30.166666666666664,800,-51" transform="matrix(1,0,0,1,0,559)"></path><path d="M10,10C21.805555555555557,21.041666666666668,40.97222222222223,70.5,66.66666666666667,63C92.36111111111111,55.5,105.55555555555557,-27.875,133.33333333333334,-26C161.11111111111111,-24.125,172.22222222222223,67.83333333333333,200,72C227.77777777777777,76.16666666666667,238.8888888888889,-0.5833333333333339,266.6666666666667,-6C294.44444444444446,-11.416666666666666,305.5555555555556,55.583333333333336,333.33333333333337,46C361.11111111111114,36.416666666666664,372.22222222222223,-49.083333333333336,400,-52C427.77777777777777,-54.916666666666664,438.8888888888889,32.416666666666664,466.6666666666667,32C494.44444444444446,31.583333333333332,505.5555555555556,-65.04166666666667,533.3333333333334,-54C561.1111111111111,-42.95833333333333,572.2222222222222,82.29166666666667,600,85C627.7777777777778,87.70833333333333,638.8888888888889,-33.5,666.6666666666667,-41C694.4444444444446,-48.5,705.5555555555557,51.083333333333336,733.3333333333334,49C761.1111111111111,46.916666666666664,786.1111111111111,-30.166666666666664,800,-51" transform="matrix(1,0,0,1,0,516)"></path><path d="M10,10C21.805555555555557,21.041666666666668,40.97222222222223,70.5,66.66666666666667,63C92.36111111111111,55.5,105.55555555555557,-27.875,133.33333333333334,-26C161.11111111111111,-24.125,172.22222222222223,67.83333333333333,200,72C227.77777777777777,76.16666666666667,238.8888888888889,-0.5833333333333339,266.6666666666667,-6C294.44444444444446,-11.416666666666666,305.5555555555556,55.583333333333336,333.33333333333337,46C361.11111111111114,36.416666666666664,372.22222222222223,-49.083333333333336,400,-52C427.77777777777777,-54.916666666666664,438.8888888888889,32.416666666666664,466.6666666666667,32C494.44444444444446,31.583333333333332,505.5555555555556,-65.04166666666667,533.3333333333334,-54C561.1111111111111,-42.95833333333333,572.2222222222222,82.29166666666667,600,85C627.7777777777778,87.70833333333333,638.8888888888889,-33.5,666.6666666666667,-41C694.4444444444446,-48.5,705.5555555555557,51.083333333333336,733.3333333333334,49C761.1111111111111,46.916666666666664,786.1111111111111,-30.166666666666664,800,-51" transform="matrix(1,0,0,1,0,473)"></path><path d="M10,10C21.805555555555557,21.041666666666668,40.97222222222223,70.5,66.66666666666667,63C92.36111111111111,55.5,105.55555555555557,-27.875,133.33333333333334,-26C161.11111111111111,-24.125,172.22222222222223,67.83333333333333,200,72C227.77777777777777,76.16666666666667,238.8888888888889,-0.5833333333333339,266.6666666666667,-6C294.44444444444446,-11.416666666666666,305.5555555555556,55.583333333333336,333.33333333333337,46C361.11111111111114,36.416666666666664,372.22222222222223,-49.083333333333336,400,-52C427.77777777777777,-54.916666666666664,438.8888888888889,32.416666666666664,466.6666666666667,32C494.44444444444446,31.583333333333332,505.5555555555556,-65.04166666666667,533.3333333333334,-54C561.1111111111111,-42.95833333333333,572.2222222222222,82.29166666666667,600,85C627.7777777777778,87.70833333333333,638.8888888888889,-33.5,666.6666666666667,-41C694.4444444444446,-48.5,705.5555555555557,51.083333333333336,733.3333333333334,49C761.1111111111111,46.916666666666664,786.1111111111111,-30.166666666666664,800,-51" transform="matrix(1,0,0,1,0,430)"></path><path d="M10,10C21.805555555555557,21.041666666666668,40.97222222222223,70.5,66.66666666666667,63C92.36111111111111,55.5,105.55555555555557,-27.875,133.33333333333334,-26C161.11111111111111,-24.125,172.22222222222223,67.83333333333333,200,72C227.77777777777777,76.16666666666667,238.8888888888889,-0.5833333333333339,266.6666666666667,-6C294.44444444444446,-11.416666666666666,305.5555555555556,55.583333333333336,333.33333333333337,46C361.11111111111114,36.416666666666664,372.22222222222223,-49.083333333333336,400,-52C427.77777777777777,-54.916666666666664,438.8888888888889,32.416666666666664,466.6666666666667,32C494.44444444444446,31.583333333333332,505.5555555555556,-65.04166666666667,533.3333333333334,-54C561.1111111111111,-42.95833333333333,572.2222222222222,82.29166666666667,600,85C627.7777777777778,87.70833333333333,638.8888888888889,-33.5,666.6666666666667,-41C694.4444444444446,-48.5,705.5555555555557,51.083333333333336,733.3333333333334,49C761.1111111111111,46.916666666666664,786.1111111111111,-30.166666666666664,800,-51" transform="matrix(1,0,0,1,0,387)"></path><path d="M10,10C21.805555555555557,21.041666666666668,40.97222222222223,70.5,66.66666666666667,63C92.36111111111111,55.5,105.55555555555557,-27.875,133.33333333333334,-26C161.11111111111111,-24.125,172.22222222222223,67.83333333333333,200,72C227.77777777777777,76.16666666666667,238.8888888888889,-0.5833333333333339,266.6666666666667,-6C294.44444444444446,-11.416666666666666,305.5555555555556,55.583333333333336,333.33333333333337,46C361.11111111111114,36.416666666666664,372.22222222222223,-49.083333333333336,400,-52C427.77777777777777,-54.916666666666664,438.8888888888889,32.416666666666664,466.6666666666667,32C494.44444444444446,31.583333333333332,505.5555555555556,-65.04166666666667,533.3333333333334,-54C561.1111111111111,-42.95833333333333,572.2222222222222,82.29166666666667,600,85C627.7777777777778,87.70833333333333,638.8888888888889,-33.5,666.6666666666667,-41C694.4444444444446,-48.5,705.5555555555557,51.083333333333336,733.3333333333334,49C761.1111111111111,46.916666666666664,786.1111111111111,-30.166666666666664,800,-51" transform="matrix(1,0,0,1,0,344)"></path><path d="M10,10C21.805555555555557,21.041666666666668,40.97222222222223,70.5,66.66666666666667,63C92.36111111111111,55.5,105.55555555555557,-27.875,133.33333333333334,-26C161.11111111111111,-24.125,172.22222222222223,67.83333333333333,200,72C227.77777777777777,76.16666666666667,238.8888888888889,-0.5833333333333339,266.6666666666667,-6C294.44444444444446,-11.416666666666666,305.5555555555556,55.583333333333336,333.33333333333337,46C361.11111111111114,36.416666666666664,372.22222222222223,-49.083333333333336,400,-52C427.77777777777777,-54.916666666666664,438.8888888888889,32.416666666666664,466.6666666666667,32C494.44444444444446,31.583333333333332,505.5555555555556,-65.04166666666667,533.3333333333334,-54C561.1111111111111,-42.95833333333333,572.2222222222222,82.29166666666667,600,85C627.7777777777778,87.70833333333333,638.8888888888889,-33.5,666.6666666666667,-41C694.4444444444446,-48.5,705.5555555555557,51.083333333333336,733.3333333333334,49C761.1111111111111,46.916666666666664,786.1111111111111,-30.166666666666664,800,-51" transform="matrix(1,0,0,1,0,301)"></path><path d="M10,10C21.805555555555557,21.041666666666668,40.97222222222223,70.5,66.66666666666667,63C92.36111111111111,55.5,105.55555555555557,-27.875,133.33333333333334,-26C161.11111111111111,-24.125,172.22222222222223,67.83333333333333,200,72C227.77777777777777,76.16666666666667,238.8888888888889,-0.5833333333333339,266.6666666666667,-6C294.44444444444446,-11.416666666666666,305.5555555555556,55.583333333333336,333.33333333333337,46C361.11111111111114,36.416666666666664,372.22222222222223,-49.083333333333336,400,-52C427.77777777777777,-54.916666666666664,438.8888888888889,32.416666666666664,466.6666666666667,32C494.44444444444446,31.583333333333332,505.5555555555556,-65.04166666666667,533.3333333333334,-54C561.1111111111111,-42.95833333333333,572.2222222222222,82.29166666666667,600,85C627.7777777777778,87.70833333333333,638.8888888888889,-33.5,666.6666666666667,-41C694.4444444444446,-48.5,705.5555555555557,51.083333333333336,733.3333333333334,49C761.1111111111111,46.916666666666664,786.1111111111111,-30.166666666666664,800,-51" transform="matrix(1,0,0,1,0,258)"></path><path d="M10,10C21.805555555555557,21.041666666666668,40.97222222222223,70.5,66.66666666666667,63C92.36111111111111,55.5,105.55555555555557,-27.875,133.33333333333334,-26C161.11111111111111,-24.125,172.22222222222223,67.83333333333333,200,72C227.77777777777777,76.16666666666667,238.8888888888889,-0.5833333333333339,266.6666666666667,-6C294.44444444444446,-11.416666666666666,305.5555555555556,55.583333333333336,333.33333333333337,46C361.11111111111114,36.416666666666664,372.22222222222223,-49.083333333333336,400,-52C427.77777777777777,-54.916666666666664,438.8888888888889,32.416666666666664,466.6666666666667,32C494.44444444444446,31.583333333333332,505.5555555555556,-65.04166666666667,533.3333333333334,-54C561.1111111111111,-42.95833333333333,572.2222222222222,82.29166666666667,600,85C627.7777777777778,87.70833333333333,638.8888888888889,-33.5,666.6666666666667,-41C694.4444444444446,-48.5,705.5555555555557,51.083333333333336,733.3333333333334,49C761.1111111111111,46.916666666666664,786.1111111111111,-30.166666666666664,800,-51" transform="matrix(1,0,0,1,0,215)"></path><path d="M10,10C21.805555555555557,21.041666666666668,40.97222222222223,70.5,66.66666666666667,63C92.36111111111111,55.5,105.55555555555557,-27.875,133.33333333333334,-26C161.11111111111111,-24.125,172.22222222222223,67.83333333333333,200,72C227.77777777777777,76.16666666666667,238.8888888888889,-0.5833333333333339,266.6666666666667,-6C294.44444444444446,-11.416666666666666,305.5555555555556,55.583333333333336,333.33333333333337,46C361.11111111111114,36.416666666666664,372.22222222222223,-49.083333333333336,400,-52C427.77777777777777,-54.916666666666664,438.8888888888889,32.416666666666664,466.6666666666667,32C494.44444444444446,31.583333333333332,505.5555555555556,-65.04166666666667,533.3333333333334,-54C561.1111111111111,-42.95833333333333,572.2222222222222,82.29166666666667,600,85C627.7777777777778,87.70833333333333,638.8888888888889,-33.5,666.6666666666667,-41C694.4444444444446,-48.5,705.5555555555557,51.083333333333336,733.3333333333334,49C761.1111111111111,46.916666666666664,786.1111111111111,-30.166666666666664,800,-51" transform="matrix(1,0,0,1,0,172)"></path><path d="M10,10C21.805555555555557,21.041666666666668,40.97222222222223,70.5,66.66666666666667,63C92.36111111111111,55.5,105.55555555555557,-27.875,133.33333333333334,-26C161.11111111111111,-24.125,172.22222222222223,67.83333333333333,200,72C227.77777777777777,76.16666666666667,238.8888888888889,-0.5833333333333339,266.6666666666667,-6C294.44444444444446,-11.416666666666666,305.5555555555556,55.583333333333336,333.33333333333337,46C361.11111111111114,36.416666666666664,372.22222222222223,-49.083333333333336,400,-52C427.77777777777777,-54.916666666666664,438.8888888888889,32.416666666666664,466.6666666666667,32C494.44444444444446,31.583333333333332,505.5555555555556,-65.04166666666667,533.3333333333334,-54C561.1111111111111,-42.95833333333333,572.2222222222222,82.29166666666667,600,85C627.7777777777778,87.70833333333333,638.8888888888889,-33.5,666.6666666666667,-41C694.4444444444446,-48.5,705.5555555555557,51.083333333333336,733.3333333333334,49C761.1111111111111,46.916666666666664,786.1111111111111,-30.166666666666664,800,-51" transform="matrix(1,0,0,1,0,129)"></path><path d="M10,10C21.805555555555557,21.041666666666668,40.97222222222223,70.5,66.66666666666667,63C92.36111111111111,55.5,105.55555555555557,-27.875,133.33333333333334,-26C161.11111111111111,-24.125,172.22222222222223,67.83333333333333,200,72C227.77777777777777,76.16666666666667,238.8888888888889,-0.5833333333333339,266.6666666666667,-6C294.44444444444446,-11.416666666666666,305.5555555555556,55.583333333333336,333.33333333333337,46C361.11111111111114,36.416666666666664,372.22222222222223,-49.083333333333336,400,-52C427.77777777777777,-54.916666666666664,438.8888888888889,32.416666666666664,466.6666666666667,32C494.44444444444446,31.583333333333332,505.5555555555556,-65.04166666666667,533.3333333333334,-54C561.1111111111111,-42.95833333333333,572.2222222222222,82.29166666666667,600,85C627.7777777777778,87.70833333333333,638.8888888888889,-33.5,666.6666666666667,-41C694.4444444444446,-48.5,705.5555555555557,51.083333333333336,733.3333333333334,49C761.1111111111111,46.916666666666664,786.1111111111111,-30.166666666666664,800,-51" transform="matrix(1,0,0,1,0,86)"></path><path d="M10,10C21.805555555555557,21.041666666666668,40.97222222222223,70.5,66.66666666666667,63C92.36111111111111,55.5,105.55555555555557,-27.875,133.33333333333334,-26C161.11111111111111,-24.125,172.22222222222223,67.83333333333333,200,72C227.77777777777777,76.16666666666667,238.8888888888889,-0.5833333333333339,266.6666666666667,-6C294.44444444444446,-11.416666666666666,305.5555555555556,55.583333333333336,333.33333333333337,46C361.11111111111114,36.416666666666664,372.22222222222223,-49.083333333333336,400,-52C427.77777777777777,-54.916666666666664,438.8888888888889,32.416666666666664,466.6666666666667,32C494.44444444444446,31.583333333333332,505.5555555555556,-65.04166666666667,533.3333333333334,-54C561.1111111111111,-42.95833333333333,572.2222222222222,82.29166666666667,600,85C627.7777777777778,87.70833333333333,638.8888888888889,-33.5,666.6666666666667,-41C694.4444444444446,-48.5,705.5555555555557,51.083333333333336,733.3333333333334,49C761.1111111111111,46.916666666666664,786.1111111111111,-30.166666666666664,800,-51" transform="matrix(1,0,0,1,0,43)"></path></g></svg>