<svg xmlns="http://www.w3.org/2000/svg" version="1.1" xmlns:xlink="http://www.w3.org/1999/xlink" xmlns:svgjs="http://svgjs.dev/svgjs" viewBox="0 0 800 800" opacity="1"><defs><linearGradient x1="50%" y1="0%" x2="50%" y2="100%" id="uundulate-grad"><stop stop-color="hsl(1.4, 100%, 67%)" stop-opacity="1" offset="45%"></stop><stop stop-color="hsl(167, 52%, 78%)" stop-opacity="1" offset="100%"></stop></linearGradient></defs><g stroke-width="7" stroke="url(#uundulate-grad)" fill="none"><path d="M1369.2259780004451 -1086.4208266499863C1620.120580918468 -629.3449970819097 1722.1146348953466 391.57767520716425 1313.6390971071928 1058.5548696759151C905.163559319039 1725.5320641446656 -202.41010156196353 2348.7368406495725 -591.4566033826936 2115.069706800022C-980.503105203424 1881.4025729504701 -699.7844463163527 614.135714500333 -553.7841116323145 -63.04737280193194C-407.78377694827645 -740.2304601041972 -291.2820989061404 -922.2063093658381 109.34500310068461 -1135.409112250849C509.97210510750983 -1348.6119151358594 1118.3313750824218 -1543.4966562180628 1369.2259780004451 -1086.4208266499863C1620.120580918468 -629.3449970819097 1722.1146348953466 391.57767520716425 1313.6390971071928 1058.5548696759151 "></path><path d="M1352.5153062942818 -1060.7928219062567C1599.0841401964767 -611.597610089354 1699.3196760013402 391.72294716025317 1297.886819899189 1047.2005348278185C896.4539637970379 1702.6781224953838 -192.023599482568 2315.1379890605513 -574.3624029960444 2085.4995988980613C-956.7012065095206 1855.861208735571 -680.8225244998127 610.4437788794021 -537.3394369654993 -55.06373795213449C-393.8563494311861 -720.571254783671 -279.36332101046617 -899.4095894028698 114.35641716865507 -1108.9364818933113C508.0761553477764 -1318.4633743837528 1105.9464723920864 -1509.9880337231596 1352.5153062942818 -1060.7928219062567C1599.0841401964767 -611.597610089354 1699.3196760013402 391.72294716025317 1297.886819899189 1047.2005348278185 "></path><path d="M1335.8045735529622 -1035.1649392328395C1578.0476384393291 -593.8503451671106 1676.524656072177 391.8680970430305 1282.1344816560286 1035.8460779094098C887.7443072398805 1679.82405877579 -181.63715843832892 2281.5390154012175 -557.2682636445512 2055.929368925789C-932.8993688507735 1830.3197224503597 -661.8606637184289 606.7517211881586 -520.8948233338403 -47.08022517264931C-379.9289829492518 -700.912171533457 -267.4446041499481 -876.6129915102139 119.36777020146928 -1082.4639736060863C506.18014455288676 -1288.3149557019585 1093.5615086665948 -1476.4795332985686 1335.8045735529622 -1035.1649392328395C1578.0476384393291 -593.8503451671106 1676.524656072177 391.8680970430305 1282.1344816560286 1035.8460779094098 "></path><path d="M1319.0935661534395 -1009.5370565594226C1557.0108620239785 -576.1030802448672 1653.7293614848113 392.0132469258067 1266.3818687546654 1024.4916209910011C879.0343760245198 1656.9699950561958 -171.25099205229287 2247.9400417418833 -540.1743989512613 2026.3591389535159C-909.0978058502296 1804.778236165148 -642.8990775952483 603.0596634969152 -504.4504843603845 -39.096712393164125C-366.00189112552084 -681.2530882832433 -255.52616194763323 -853.816393617558 124.37884857608014 -1055.9914653188612C504.28385909979374 -1258.1665370201645 1081.1762702829 -1442.971032873978 1319.0935661534395 -1009.5370565594226C1557.0108620239785 -576.1030802448672 1653.7293614848113 392.0132469258067 1266.3818687546654 1024.4916209910011 "></path><path d="M1302.3829860000105 -983.9091128508493C1535.9745128547215 -558.3557542874678 1630.9344941435397 392.15845784373937 1250.629683099396 1013.1372251077487C870.3248720552531 1634.1159923717578 -160.86439842016318 2214.341129117706 -523.0801070118775 1996.7889700163992C-885.2958156035919 1779.236810915093 -623.9370642259739 599.3676668408275 -488.0057181408349 -31.11313857852292C-352.0743720556959 -661.5939439978733 -243.6072924992245 -831.019734689746 129.3903541967852 -1029.5188959964798C502.3880008927947 -1228.018057303214 1068.791459145299 -1409.4624714142308 1302.3829860000105 -983.9091128508493C1535.9745128547215 -558.3557542874678 1630.9344941435397 392.15845784373937 1250.629683099396 1013.1372251077487 "></path><path d="M1285.672039635644 -958.2810470719635C1514.937797474527 -540.6083062597559 1608.1392605913297 392.30379083198454 1234.8771312331892 1001.7829512948083C861.6150018750486 1611.2621117576318 -150.47817099897088 2180.7423385638403 -505.9861812834313 1967.2189231495954C-861.4941915678917 1753.69550773535 -604.975417067637 595.6757922550523 -471.5613181322228 -23.129442693569217C-338.1472191968087 -641.9346776421908 -231.6887892617533 -808.2229536916213 134.40149360655232 -1003.0462046037861C500.49177647485817 -1197.869455515951 1056.4062817967606 -1375.9537878841713 1285.672039635644 -958.2810470719635C1514.937797474527 -540.6083062597559 1608.1392605913297 392.30379083198454 1234.8771312331892 1001.7829512948083 "></path><path d="M1268.9612153415897 -932.6531033633902C1493.9012041646452 -522.860980302356 1585.3441491094327 392.44900174991767 1219.1247014372948 990.4285554115559C852.9052537651569 1588.4081090731943 -140.0918215074662 2147.143425939663 -488.8921334846725 1937.6487542124792C-837.6924454618791 1728.1540824852955 -586.0136478389876 591.9837955989656 -455.11679605329823 -15.145868878927558C-324.21994426760875 -622.2755333568207 -219.7701639539696 -785.4262947638091 139.41275508663216 -976.5736352814048C498.5956741272339 -1167.7209757990006 1044.0212265185346 -1342.4452264244244 1268.9612153415897 -932.6531033633902C1493.9012041646452 -522.860980302356 1585.3441491094327 392.44900174991767 1219.1247014372948 990.4285554115559 "></path><path d="M1252.2505741530044 -907.0252817251294C1472.864793960232 -505.11377641526894 1562.549220733004 392.59409059753784 1203.3724547468692 979.0740374579909C844.1956887607337 1565.5539843184438 -129.70528891049264 2113.5443912451724 -471.7979025804451 1908.07846320505C-813.8905162503976 1702.612535164927 -567.0516955048695 588.2916768725654 -438.6720908689049 -7.162417134598854C-310.2924862329403 -602.6165111417631 -207.85135554071724 -762.6297579063095 144.42419967218075 -950.1011880293361C496.6997548850786 -1137.5726181523626 1031.6363543457771 -1308.9367870349897 1252.2505741530044 -907.0252817251294C1472.864793960232 -505.11377641526894 1562.549220733004 392.59409059753784 1203.3724547468692 979.0740374579909 "></path><path d="M1235.5397498589505 -881.3972769813998C1451.8282006503496 -487.36638942271315 1539.754109251107 392.73936255062677 1187.6200249509748 967.7197026098943C835.4859406508419 1542.700042669162 -119.31893941898784 2079.945539656151 -454.70385478168635 1878.5083553030895C-790.0887701443849 1677.0711709500283 -548.08992627622 584.5997412516344 -422.2275687899803 0.8212177151985998C-296.36521130374047 -582.9573058212368 -195.93273023293364 -739.8330379433412 149.43546115226036 -923.6285576717985C494.8036525374546 -1107.424077400256 1019.2512990675511 -1275.4281645400865 1235.5397498589505 -881.3972769813998C1451.8282006503496 -487.36638942271315 1539.754109251107 392.73936255062677 1187.6200249509748 967.7197026098943 "></path><path d="M1218.8289560824746 -855.7692722376703C1430.7916378580458 -469.6190024301575 1516.959028286788 392.8846345037157 1171.8676256726585 956.3653677617976C826.7762230585281 1519.8461010198803 -108.93255940990502 2046.346688067129 -437.60977646534957 1848.938247401129C-766.286993520794 1651.5298067351291 -529.1281265299925 580.9078056307033 -405.7830161934776 8.804852564996281C-282.4379058569625 -563.2981005007106 -184.0140744075718 -717.0363179803727 154.44675314991855 -897.155927314261C492.90758070740867 -1077.2755366481492 1006.8662743069033 -1241.919542045183 1218.8289560824746 -855.7692722376703C1430.7916378580458 -469.6190024301575 1516.959028286788 392.8846345037157 1171.8676256726585 956.3653677617976 "></path><path d="M1202.1181623059983 -830.1413895642531C1409.755075065742 -451.8717375079141 1494.163947322469 393.02978438649234 1156.1152263943418 945.010910843389C818.0665054662145 1496.9920373002865 -98.54617940082221 2012.7477144077957 -420.5156981490127 1819.3680174288565C-742.4852168972031 1625.9883204499179 -510.166326783765 577.2157479394596 -389.33846359697475 16.788365344481463C-268.51060041018457 -543.6390172504966 -172.09541858220996 -694.2397200877168 159.45804514757629 -870.6834190270359C491.01150887736253 -1047.1271179663552 994.4812495462552 -1208.4110416205924 1202.1181623059983 -830.1413895642531C1409.755075065742 -451.8717375079141 1494.163947322469 393.02978438649234 1156.1152263943418 945.010910843389 "></path><path d="M1185.4073685295225 -804.5133848205236C1388.7185122734381 -434.1243505153582 1471.3688663581497 393.17505633958126 1140.362827116025 933.6565759952932C809.3567878739009 1474.1380956510047 -88.15979939173917 1979.148862818774 -403.4216198326758 1789.7979095268965C-718.6834402736124 1600.4469562350187 -491.20452703753745 573.5238123185284 -372.89391100047203 24.772000194278917C-254.58329496340662 -523.9798119299704 -160.17676275684812 -671.4430001247484 164.46933714523425 -844.2107886694985C489.1154370473166 -1016.9785772142484 982.0962247856075 -1174.902419125689 1185.4073685295225 -804.5133848205236C1388.7185122734381 -434.1243505153582 1471.3688663581497 393.17505633958126 1140.362827116025 933.6565759952932 "></path><path d="M1168.6965137178904 -778.8856852525753C1367.681888445978 -416.37726869858363 1448.5737243586746 393.32002311688916 1124.6103668025528 922.3019359714153C800.6470092464308 1451.2838488259417 -77.7734804178126 1945.5497060539715 -386.32760255149515 1760.2274964491548C-694.8817246851778 1574.9052868443387 -472.2427883264662 569.8315715218157 -356.44941943912556 32.75532986829512C-240.65605055178503 -504.32091178522546 -148.25816796664253 -648.6465853375613 169.48056810773596 -817.7384634877421C487.21930418211446 -986.830341637923 969.7111389898034 -1141.394101806567 1168.6965137178904 -778.8856852525753C1367.681888445978 -416.37726869858363 1448.5737243586746 393.32002311688916 1124.6103668025528 922.3019359714153 "></path><path d="M1151.985750458993 -753.2574363682209C1346.6453561712524 -398.62963756540285 1425.7786739119338 393.4655392106031 1108.8579980418144 910.9478452639441C791.9373221716951 1428.430151317285 -67.38706989115167 1911.9510986055748 -369.23349371758025 1730.6576326878194C-671.0799175440088 1549.364166770064 -453.28095806266055 566.1398800415097 -340.0048363250447 40.7392088587178C-226.72871458742895 -484.66146232407414 -136.33948162370268 -625.849621233968 174.49189062297182 -791.2655889895797C485.32326286964667 -956.6815567451913 957.3261447467337 -1107.8852351710386 1151.985750458993 -753.2574363682209C1346.6453561712524 -398.62963756540285 1425.7786739119338 393.4655392106031 1108.8579980418144 910.9478452639441 "></path><path d="M1135.274926164939 -727.6295842123818C1325.6087628613705 -380.88240316073757 1402.9835624300367 393.6106585758016 1093.10556824592 899.5933578279573C783.2275740618036 1405.5760570801126 -57.00072039964675 1878.352094428663 -352.1394459188215 1701.0873721979692C-647.2781714379962 1523.822649967275 -434.31918883401113 562.4477918326882 -323.56031424612013 48.72269112062486C-212.80143965822913 -465.00240959143844 -124.42085631591908 -603.0530538588902 179.5031521030519 -764.7931112199327C483.4271605220224 -926.5331685809753 944.9410894685075 -1074.376765264026 1135.274926164939 -727.6295842123818C1325.6087628613705 -380.88240316073757 1402.9835624300367 393.6106585758016 1093.10556824592 899.5933578279573 "></path><path d="M1118.564132388463 -702.0016710213866C1304.5722000690666 -363.13510772091615 1380.1884814657178 393.75583897615616 1077.3531689676038 888.2389314271268C774.5178564694897 1382.7220238780965 -46.61434039056394 1844.7531512869073 -335.04536760248465 1671.517172743274C-623.4763948144054 1498.2811941996415 -415.3573890877836 558.7557646590228 -307.1157616496174 56.70623441768794C-198.87413421145118 -445.3432958236465 -112.50220049055724 -580.2564254486562 184.51444410070962 -738.3205724151295C481.5310886919765 -896.384719381603 932.5560647078596 -1040.8682343218572 1118.564132388463 -702.0016710213866C1304.5722000690666 -363.13510772091615 1380.1884814657178 393.75583897615616 1077.3531689676038 888.2389314271268 "></path><path d="M1101.853338611987 -676.3739104182821C1283.5356372767628 -345.38796486898536 1357.393400501399 393.9008667886201 1061.6007696892875 876.8843524384051C765.8081388771759 1359.8678380881897 -36.227960381481125 1811.1540555572606 -317.9512892861478 1641.946820700689C-599.6746181908145 1472.7395858441178 -396.39558934155605 555.0635848974664 -290.6712090531147 64.68962512686062C-184.94682876467323 -425.68433464374516 -100.5835446651954 -557.4599496263128 189.5257360983676 -711.848186198217C479.6350168619306 -866.2364227701212 920.1710399472117 -1007.3598559675788 1101.853338611987 -676.3739104182821C1283.5356372767628 -345.38796486898536 1357.393400501399 393.9008667886201 1061.6007696892875 876.8843524384051 "></path><path d="M1085.142483800355 -650.7458141218182C1262.4990134493028 -327.6404863236951 1334.5982585019233 394.0462302944434 1045.8483093758146 865.5301091430429C757.0983602497058 1337.0139879916424 -25.841641407554448 1777.5552955209732 -300.8572720049672 1612.3768043514629C-575.87290260238 1447.1983131819525 -377.4338506304848 551.3717408292696 -274.2267174917681 72.67335152939268C-171.01958435305164 -406.02503777048446 -88.66494987498993 -534.66313811061 194.5369670608693 -685.3754642879451C477.7388839967284 -836.0877904652802 907.7859541514076 -973.8511419199413 1085.142483800355 -650.7458141218182C1262.4990134493028 -327.6404863236951 1334.5982585019233 394.0462302944434 1045.8483093758146 865.5301091430429 "></path><path d="M1068.4316900238791 -625.1177788605105C1241.4624506569985 -309.89306881356106 1311.8031775376048 394.1915327651109 1030.0959100974983 854.1758048125248C748.3886426573924 1314.1600768599392 -15.45526139847152 1743.95647444953 -283.76319368863034 1582.8067269670814C-552.0711259787892 1421.6569794846318 -358.47205088425727 547.6798357259167 -257.7821648952654 80.65701689676825C-157.09227890627358 -386.36580193238 -76.7462940496282 -511.8663876300634 199.54825905852715 -658.9028034128294C475.8428121666825 -805.9392191955953 895.4009293907595 -940.3424889074597 1068.4316900238791 -625.1177788605105C1241.4624506569985 -309.89306881356106 1311.8031775376048 394.1915327651109 1030.0959100974983 854.1758048125248 "></path><path d="M1051.7209572825593 -599.490018257406C1220.4259488998507 -292.1459259616304 1289.0081576084417 394.3365605775748 1014.3435718543383 842.8212258238036C739.6789861002349 1291.3058910700324 -5.068820354232457 1710.3573787198839 -266.66905433713725 1553.236374924496C-528.269288320042 1396.115371129108 -339.5101901028735 543.9876559643606 -241.33755126360643 88.64040760594094C-143.1649124243395 -366.7068407524788 -64.82757718911 -489.06991180772013 204.55961209134136 -632.4304171959169C473.9468013717926 -775.7909225841138 883.0159656652681 -906.8341105531815 1051.7209572825593 -599.490018257406C1220.4259488998507 -292.1459259616304 1289.0081576084417 394.3365605775748 1014.3435718543383 842.8212258238036 "></path><path d="M1035.0101024709272 -573.8619524785202C1199.3893250723909 -274.39847793391823 1266.2130156089663 394.48189356582 998.5911115408658 831.4669520108635C730.9692074727648 1268.452010455907 5.31749861969422 1676.7585881660184 -249.5750370559566 1523.6663280576918C-504.4675727316075 1370.5740679493651 -320.54845139180225 540.2957813785858 -224.89305970225996 96.62410349089487C-129.2376680127178 -347.04757439679634 -52.90898239890453 -466.2731308095955 209.57084305384296 -605.9577258032232C472.0506685065907 -745.6423207968508 870.630879869464 -873.325427023122 1035.0101024709272 -573.8619524785202C1199.3893250723909 -274.39847793391823 1266.2130156089663 394.48189356582 998.5911115408658 831.4669520108635 "></path><path d="M1018.2993697296076 -548.2339782523686C1178.352823315243 -256.65112145894045 1243.4179956798037 394.627135001331 982.8387732977055 820.1125866451891C722.2595509156074 1245.5980382890475 15.703939663933397 1643.159706059419 -232.48089770446353 1494.0961896381536C-480.6657350728604 1345.0326732168883 -301.58659061041845 536.6038152400768 -208.448446070601 104.6077078231142C-115.31030153078359 -327.388399593848 -40.99026553838644 -443.47644136420513 214.58219608665718 -579.4851259632637C470.1546577117008 -715.4938105623222 858.2459161439724 -839.8168350457968 1018.2993697296076 -548.2339782523686C1178.352823315243 -256.65112145894045 1243.4179956798037 394.627135001331 982.8387732977055 820.1125866451891 "></path><path d="M1001.5885454355537 -522.6060650613736C1157.3162300053611 -238.90382601911915 1220.6228841979064 394.7723154016858 967.0863435018109 808.7581602443584C713.5498028057154 1222.7440050870314 26.090289155438086 1609.5607629176634 -215.38684990570482 1464.5259901834588C-456.8639889668477 1319.4912174492547 -282.62482138176904 532.9117880664112 -192.0039239916764 112.5912511201775C-101.38302660158377 -307.7292858260562 -29.071640230602725 -420.67981295397124 219.5934575667369 -553.0125871584605C468.2585553640765 -685.3453613629499 845.8608608657462 -806.3083041036278 1001.5885454355537 -522.6060650613736C1157.3162300053611 -238.90382601911915 1220.6228841979064 394.7723154016858 967.0863435018109 808.7581602443584 "></path><path d="M984.8778126942341 -496.9781823879564C1136.2797282482136 -221.15656109687575 1197.8278642687437 394.9174652844622 951.3340052586509 797.4037033259497C704.8401462485581 1199.8899413674371 36.47673019967726 1575.9617892583292 -198.29271055421168 1434.9557602111863C-433.0621513081006 1293.949731164043 -263.6629606003853 529.2197303751673 -175.55931036001743 120.57476389966268C-87.45566011964956 -288.07020257584236 -17.15292337008475 -397.88321506131524 224.60481059955112 -526.5400788712356C466.36254456918687 -655.1969426811557 833.4758971402546 -772.799803679037 984.8778126942341 -496.9781823879564C1136.2797282482136 -221.15656109687575 1197.8278642687437 394.9174652844622 951.3340052586509 797.4037033259497 "></path><path d="M968.1669884001799 -471.35017764422685C1115.2431349383317 -203.40917410432007 1175.0327527868465 395.0627372375511 935.5815754627563 786.049368477853C696.1303981386664 1177.035999718155 46.86307969118195 1542.3629376693075 -181.19866275545297 1405.3856523092263C-409.26040520208795 1268.4083669491438 -244.7011913717359 525.5277947542363 -159.11478828109284 128.55839874946014C-73.52838519044974 -268.41099725531603 -5.23429806230115 -375.086495098347 229.61607207963095 -500.06744851369797C464.46644222156283 -625.0484019290491 821.0908418620286 -739.2911811841338 968.1669884001799 -471.35017764422685C1115.2431349383317 -203.40917410432007 1175.0327527868465 395.0627372375511 935.5815754627563 786.049368477853 "></path><path d="M951.456194623704 -445.7221729004973C1094.2065721460276 -185.66178711176417 1152.2376718225275 395.20800919064004 919.82917618444 774.6950336297568C687.4206805463525 1154.1820580688736 57.24945970026488 1508.7640860802862 -164.10458443911614 1375.8155444072659C-385.45862857849716 1242.867002734245 -225.73939162550835 521.8358591333053 -142.67023568459012 136.5420335992576C-59.60107974367179 -248.7517919347897 6.684357763060689 -352.2897751353786 234.6273640772888 -473.59481815616044C462.5703703915169 -594.8998611769423 808.7058171013807 -705.7825586892304 951.456194623704 -445.7221729004973C1094.2065721460276 -185.66178711176417 1152.2376718225275 395.20800919064004 919.82917618444 774.6950336297568 "></path><path d="M934.7454008472282 -420.09429022708025C1073.1700093537236 -167.91452218952077 1129.4425908582086 395.3531590734169 904.0767769061238 763.3405767113481C678.7109629540389 1131.3279943492794 67.6358397093478 1475.165112420952 -147.01050612277925 1346.245314434993C-361.6568519549063 1217.3255164490338 -206.7775918792808 518.1438014420617 -126.22568308808735 144.525546378743C-45.67377429689395 -229.09270868457588 18.603013588422527 -329.4931772427227 239.63865607494677 -447.1223098689354C460.674298561471 -564.7514424951482 796.3207923407326 -672.2740582646397 934.7454008472282 -420.09429022708025C1073.1700093537236 -167.91452218952077 1129.4425908582086 395.3531590734169 904.0767769061238 763.3405767113481 "></path><path d="M918.0346070707524 -394.4663770360851C1052.13344656142 -150.16722674969935 1106.6475098938895 395.49833947377147 888.3243776278073 751.9861503105174C670.0012453617251 1108.4739611472635 78.02221971843062 1441.5661692791964 -129.9164278064424 1316.6751149802985C-337.85507533131545 1191.7840606814002 -187.81579213305326 514.4517742683961 -109.78113049158463 152.50908967580608C-31.746468850116003 -209.43359491678405 30.521669413784366 -306.6965488324886 244.64994807260462 -420.64977106413227C458.77822673142487 -534.6029932957758 783.9357675800848 -638.7655273224708 918.0346070707524 -394.4663770360851C1052.13344656142 -150.16722674969935 1106.6475098938895 395.49833947377147 888.3243776278073 751.9861503105174 "></path><path d="M901.323691223964 -368.83840280993365C1031.0967616988034 -132.4198702747217 1083.852306859258 395.64358090928226 872.5718562791785 740.631784944843C661.291405699099 1085.6199889804038 88.40847765720105 1407.967287172597 -112.82247156041808 1287.1049765607604C-314.05342077803715 1166.2426659489236 -168.85411445713828 510.7598081298868 -93.33669996539442 160.4926940080254C-17.819285473650552 -189.77442011383584 42.440203168833705 -283.89985938709833 249.66111799994997 -394.17717122417287C456.88203283106645 -504.45448306124734 771.5506207491244 -605.2569353451456 901.323691223964 -368.83840280993365C1031.0967616988034 -132.4198702747217 1083.852306859258 395.64358090928226 872.5718562791785 740.631784944843 "></path><path d="M884.6129890002226 -343.2104896189385C1010.060290459234 -114.67257483490016 1061.0573174476733 395.7887613096368 856.8195485535964 729.2773585440123C652.5817796595195 1062.7659557783875 98.79494921901824 1374.368344030841 -95.72830169134681 1257.5347771060656C-290.251552601712 1140.7012101812898 -149.89222315817636 507.0677809562212 -76.89205581615727 168.47623730508872C-3.891888474138227 -170.1153063460439 54.358950546929805 -261.1032309768643 254.6725015503423 -367.7046324193697C454.9860525537549 -474.306033861875 759.1656875412109 -571.7484044029767 884.6129890002226 -343.2104896189385C1010.060290459234 -114.67257483490016 1061.0573174476733 395.7887613096368 856.8195485535964 729.2773585440123 "></path><path d="M867.9022867764811 -317.5824848752089C989.0238192196646 -96.92518784234437 1038.2623280360885 395.9340332627262 841.0672408280143 717.9230236959158C643.8721536199403 1039.912014129106 109.18142078083554 1340.7694924418197 -78.6341318222756 1227.9646692041051C-266.44968442538675 1115.1598459663908 -130.93033185921445 503.37584533529025 -60.447411666920175 176.45987215488628C10.035508525374098 -150.45610102551757 66.2776979250259 -238.30651101389594 259.68388510073464 -341.2320020618322C453.0900722764434 -444.1574931097683 746.7807543332974 -538.2397819080734 867.9022867764811 -317.5824848752089C989.0238192196646 -96.92518784234437 1038.2623280360885 395.9340332627262 841.0672408280143 717.9230236959158 "></path><path d="M851.1914930000053 -291.9545411666356C967.9872564273608 -79.17786188494483 1015.4672470717699 396.07924418065886 825.314841549698 706.5686278126634C635.1624360276264 1017.058011444668 119.56780078991846 1307.1705798176417 -61.54005350593877 1198.3945002669886C-242.64790780179595 1089.6184207163355 -111.96853211298696 499.6838486792028 -44.00285907041746 184.4434459695276C23.96281397215205 -130.7969567401476 78.19635375038774 -215.50985208608392 264.6951770983926 -314.75943273945086C451.19400044639735 -414.0090133928179 734.3957295726495 -504.7312204483264 851.1914930000053 -291.9545411666356C967.9872564273608 -79.17786188494483 1015.4672470717699 396.07924418065886 825.314841549698 706.5686278126634 "></path><path d="M834.4805161180605 -266.32656694048416C946.9505105295882 -61.430505409967054 992.671983001982 396.22448561616966 809.562259165913 695.2142624469889C626.4525353298441 994.2040392778081 129.95399769353253 1273.5716977110424 -44.44615829507063 1168.8243618474505C-218.8463142836739 1064.0770259838587 -93.00691547222817 495.9918825406937 -27.55848957938349 192.42705030174716C37.88993631346125 -111.1377819371994 90.11482647028083 -192.71316264069355 269.7062859905817 -288.28683289949146C449.2977455108826 -383.86050315828936 722.0105217065329 -471.2226284710012 834.4805161180605 -266.32656694048416C946.9505105295882 -61.430505409967054 992.671983001982 396.22448561616966 809.562259165913 695.2142624469889 "></path><path d="M817.7698749294752 -240.6986842670671C925.9141003251748 -43.683240487723765 969.8770546255535 396.3696354989461 793.8100124754874 683.85980552858C617.7429703254211 971.3499755582138 140.34053029050608 1239.9727240517084 -27.351927390843173 1139.2541318751776C-195.04438507219243 1038.535539698647 -74.04496313811 492.29982484945003 -11.113784394990148 200.4105630812321C51.81739434812971 -91.47869868698558 102.03363488353318 -169.91656474803779 274.7177305761302 -261.81432461226643C447.4018262687273 -353.7120844764952 709.6256495337757 -437.7141280464104 817.7698749294752 -240.6986842670671C925.9141003251748 -43.683240487723765 969.8770546255535 396.3696354989461 793.8100124754874 683.85980552858 "></path><path d="M801.0590811529992 -215.0706795233375C904.877537532871 -25.935853495167976 947.0819736612345 396.51490745203523 778.0576131971709 672.5054706804835C609.0332527331072 948.4960339089323 150.7269102995889 1206.373872462687 -10.257849074506339 1109.6840239732173C-171.24260844860157 1012.994175483748 -55.08316339188252 488.60788922851884 5.330768201512626 208.3941979310298C65.74469979490777 -71.81949336645926 113.95229070889502 -147.1198447850693 279.72902257378814 -235.3416942547289C445.50575443868127 -323.56354372438847 697.2406247731276 -404.20550555150714 801.0590811529992 -215.0706795233375C904.877537532871 -25.935853495167976 947.0819736612345 396.51490745203523 778.0576131971709 672.5054706804835 "></path><path d="M784.3482568589452 -189.4427358147642C883.840944222989 -8.188527537768323 924.2868621793373 396.66011836996813 762.3051834012763 661.1510747972311C600.3235046232153 925.6420312244943 161.1132597910937 1172.7749598385092 6.8361987242524265 1080.1138550361009C-147.4408623425889 987.4527502336928 -36.121394163233106 484.9158925724314 21.77529028043722 216.377771745671C79.67197472410749 -52.160349081089294 125.87091601667873 -124.32318585725716 284.740284053868 -208.86912493234763C443.6096520910572 -293.41506400743805 684.8555694949018 -370.6969440917601 784.3482568589452 -189.4427358147642C883.840944222989 -8.188527537768323 924.2868621793373 396.66011836996813 762.3051834012763 661.1510747972311 "></path><path d="M767.6374630824694 -163.8147921061909C862.8043814306852 9.558798419631216 901.4917812150184 396.8053292879008 746.55278412296 649.7966789139787C591.6137870309018 902.7880285400563 171.49963980017662 1139.1760472143314 23.93027704058926 1050.5436860989846C-123.6390857189981 961.9113249836375 -17.159594417005565 481.2238959163442 38.219842876939936 224.36134556031243C93.59928017088544 -32.50120479571922 137.78957184204046 -101.52652692944503 289.75157605152594 -182.39655560996636C441.7135802610112 -263.26658429048763 672.4705447342537 -337.18838263201303 767.6374630824694 -163.8147921061909C862.8043814306852 9.558798419631216 901.4917812150184 396.8053292879008 746.55278412296 649.7966789139787 "></path><path d="M750.9266693059935 -138.18690943277386C841.7678186383814 27.306063341874506 878.6967002506995 396.9504791706772 730.8003848446438 638.4422219955698C582.904069438588 879.933964820462 181.88601980925944 1105.5770735549975 41.024355356926094 1020.9734561267117C-99.83730909540725 936.3698386984261 1.8022053292219766 477.5318382251003 54.66439547344265 232.3448583397975C107.52658561766339 -12.842121545505393 149.7082276674023 -78.72992903678914 294.7628680491838 -155.92404732274133C439.8175084309653 -233.11816560869346 660.0855199736059 -303.6798822074222 750.9266693059935 -138.18690943277386C841.7678186383814 27.306063341874506 878.6967002506995 396.9504791706772 730.8003848446438 638.4422219955698 "></path><path d="M734.2158755295177 -112.55887417146619C820.7312558460774 45.05348085200853 855.9016192863805 397.0957816413445 715.0479855663273 627.0879176650515C574.1943518462743 857.0800536887587 192.27239981834236 1071.9782524835541 58.118433673262984 991.4033787423298C-76.03553247181645 910.828505001105 20.76400507544946 473.83993312174744 71.10894806994543 240.3285237071732C121.45389106444134 6.817114292599058 161.62688349276402 -55.93317855624264 299.77416004684164 -129.45138644762562C437.9214366009194 -202.9695943390086 647.7004952129579 -270.17122919494085 734.2158755295177 -112.55887417146619C820.7312558460774 45.05348085200853 855.9016192863805 397.0957816413445 715.0479855663273 627.0879176650515 "></path><path d="M717.5050512354637 -86.93099149804914C799.6946625361954 62.80074577425182 833.106507804483 397.2409315241209 699.2955557704329 615.7334607466428C565.4846037363824 834.2259899691644 202.65874930984705 1038.3792788242201 75.2124814720217 961.8331487700568C-52.233786365803724 885.2870187158935 39.72577430409888 470.14787543050386 87.55347014887002 248.31203648665837C135.3811659936411 26.47619754281277 173.54550880054774 -33.136580663586756 304.7854215269215 -102.97887816040065C436.02533425329534 -172.82117565721444 635.315439934732 -236.66272877035004 717.5050512354637 -86.93099149804914C799.6946625361954 62.80074577425182 833.106507804483 397.2409315241209 699.2955557704329 615.7334607466428 "></path><path d="M700.7943184941441 -61.30304778947584C778.6581607790476 80.54807173165136 810.3114878753204 397.3861424420538 683.5432175272726 604.3790648633901C556.7749471792249 811.3719872847266 213.04519035408623 1004.7803662000426 92.30662082351478 932.2629798329403C-28.431948707056677 859.7455934658383 58.68763508548267 466.45587877441653 103.99808378052899 256.2956103012997C149.3085324755753 46.135341828182845 185.46422566106583 -10.33992173577468 309.7967745597357 -76.50630883801932C434.12932345840545 -142.67269594026402 622.9304762092403 -203.154167310603 700.7943184941441 -61.30304778947584C778.6581607790476 80.54807173165136 810.3114878753204 397.3861424420538 683.5432175272726 604.3790648633901 "></path><path d="M684.0834636825118 -35.67513459848061C757.6215369515876 98.29536717147278 787.5163458758452 397.5313228424084 667.7907572138 593.0246384625593C548.065168551755 788.5179540827103 223.4315093280129 971.1814230582866 109.40063810469542 902.692780378246C-4.630233118622073 834.2041376982047 77.64937379655396 462.76385160075097 120.44257534187545 264.2791535983629C163.235776887197 65.7944555959748 197.3828204512713 12.456706674459326 314.8080055222374 -50.03377003321617C432.2331905932033 -112.52424674089173 610.5453904134362 -169.64563636843405 684.0834636825118 -35.67513459848061C757.6215369515876 98.29536717147278 787.5163458758452 397.5313228424084 667.7907572138 593.0246384625593 "></path><path d="M667.3727004236141 -10.047099337172938C736.5850046768619 116.0427846816068 764.7212954291044 397.67662531307565 652.0383884530619 581.6703341320413C539.3554814770195 765.6640429510069 233.81791985467385 937.5826019868432 126.49474693861038 873.1227029938636C19.17157402254685 808.6628040008841 96.61120406035957 459.071946497398 136.8871584559563 272.2628189657387C177.16311285155302 85.45369143407925 209.30150679421126 35.25345715500583 319.8193280374734 -23.56110915810052C430.3371492807355 -82.37567547120693 598.1603961703663 -136.13698335595268 667.3727004236141 -10.047099337172938C736.5850046768619 116.0427846816068 764.7212954291044 397.67662531307565 652.0383884530619 581.6703341320413 "></path><path d="M650.661845611982 15.58078333624411C715.5483808494017 133.7900496038501 741.926153429629 397.82177519585207 636.2859281395893 570.3158772136325C530.6457028495495 742.8099792314129 244.20423882860052 903.9836283275095 143.58876421979096 843.5524730215911C42.973289610981396 783.1213177156728 115.57294277143086 455.3798888061543 153.33165001730282 280.24633174522364C191.09035726317472 105.11277468429307 221.22010158441685 58.05005504766177 324.830558999975 2.9113991291245043C428.4410164155332 -52.227256789412706 585.7753103745622 -102.62848293136187 650.661845611982 15.58078333624411C715.5483808494017 133.7900496038501 741.926153429629 397.82177519585207 636.2859281395893 570.3158772136325 "></path><path d="M633.9511433882406 41.208788079973715C694.5119096098323 151.537436596406 719.1311640180443 397.9670471489412 620.5336204140071 558.961542365536C521.9360768099701 719.9560375821311 254.59071039041777 870.384776738488 160.68293408886217 813.9823651196307C66.77515778730663 757.5799535007736 134.53483407039278 451.68795318522325 169.7762941665399 288.2299665950213C205.01775426268705 124.7719800048194 233.13884896251295 80.84677501063015 329.8419425503673 29.38402948666203C426.5450361382217 -22.078716037306037 573.3903771666487 -69.11986043645857 633.9511433882406 41.208788079973715C694.5119096098323 151.537436596406 719.1311640180443 397.9670471489412 620.5336204140071 558.961542365536 "></path><path d="M617.2402580590302 66.83667075339076C673.4752552647941 169.28470151864929 696.335991500991 398.11219703171764 604.7811295829565 547.6070854471272C513.226267664922 697.1019738625369 264.97699884676626 836.785803079154 177.77692085246468 784.4121351473582C90.57684285816305 732.0384672155622 153.49654226388589 447.9958954939797 186.22075521030825 296.2134793745064C218.94496815673062 144.4310632550331 245.05741323514042 103.64337290328604 334.8531429952909 55.856537773887055C424.6488727554413 8.069702644488132 561.0052608532665 -35.611360011867816 617.2402580590302 66.83667075339076C673.4752552647941 169.28470151864929 696.335991500991 398.11219703171764 604.7811295829565 547.6070854471272 "></path><path d="M600.5295253177105 92.46461446196406C652.4387535076464 187.03202747604882 673.5409715718282 398.2574079496504 589.0287913397964 536.2526895638746C504.51661110776456 674.247971178099 275.3634398910054 803.1868904549763 194.87106020395777 754.8419662102415C114.37868051691015 706.4970419655069 172.45840304526968 444.30389883789223 202.66536884196722 304.1970531891477C232.87233463866482 164.09020754040318 256.97613009565845 126.44003183109817 339.864496028105 82.32910709626833C422.7528619605516 38.21818236143855 548.6202971277747 -2.1027985521207597 600.5295253177105 92.46461446196406C652.4387535076464 187.03202747604882 673.5409715718282 398.2574079496504 589.0287913397964 536.2526895638746 "></path><path d="M583.8187315412347 118.09261920569361C631.4021907153426 204.77941446860467 650.7458906075092 398.40267990273946 573.27639206148 524.8983547157784C495.80689351545084 651.3940295288172 285.7498199000883 769.5880388659548 211.9651385202946 725.2718583082815C138.18045714050095 680.9556777506078 191.42020279149722 440.61196321696116 219.10992143847 312.1806880389453C246.79964008544272 183.74941286092945 268.89478592102023 149.23675179406655 344.875788025763 108.80173745380591C420.8567901305056 68.36672311354528 536.2352723671269 31.405823942782547 583.8187315412347 118.09261920569361C631.4021907153426 204.77941446860467 650.7458906075092 398.40267990273946 573.27639206148 524.8983547157784 "></path><path d="M567.1079377647588 143.72053239668878C610.3656279230387 222.52670990842614 627.9508096431903 398.5478603030941 557.5239927831636 513.5439283149476C487.09717592313723 628.5399963268012 296.1361999091712 735.9890957241989 229.0592168366315 695.7016588535868C161.9822337640918 655.4142219829744 210.38200253772476 436.9199360432956 235.5544740349727 320.16423133600847C260.72694553222067 203.4085266287214 280.813441746382 172.03338020430056 349.8870800234208 135.27427625860906C418.9607183004597 98.51517231291757 523.8502476064789 64.91435488495148 567.1079377647588 143.72053239668878C610.3656279230387 222.52670990842614 627.9508096431903 398.5478603030941 557.5239927831636 513.5439283149476 "></path><path d="M550.3971745058611 169.34847610526208C589.3290956483129 240.27403586582568 605.1557591964493 398.6930712210269 541.7716240224254 502.18953243169506C478.3874888484015 605.6859936423633 306.5226104358322 702.3901831000213 246.15332567054645 666.1314899164702C185.78404090526072 629.8727967329191 229.34383280153037 433.22793938720827 251.99905714905356 328.1478051506499C274.6542814965767 223.06767091409142 292.732128089322 194.8300391321127 354.8984025386569 161.74684558099034C417.0646769879918 128.663652029868 511.46525336340915 98.42291634469848 550.3971745058611 169.34847610526208C589.3290956483129 240.27403586582568 605.1557591964493 398.6930712210269 541.7716240224254 502.18953243169506 "></path><path d="M533.6863654705961 194.97640455504632C568.29251759722 258.0213465644362 582.3606629733413 398.83826688017064 526.0192094853201 490.83512128965344C469.67775599729885 582.8319756991363 316.908975186126 668.7912552170544 263.2473887280942 636.5613057205646C209.58580227006246 604.3313562240749 248.30561728896885 429.5359274723319 268.4435944867672 336.13136370650216C288.5815716845656 242.72679994067244 304.6507686558947 217.62668280113576 359.90967927752575 188.21939964458255C415.1685898991568 158.81211648802935 499.0802133439722 131.93146254565647 533.6863654705961 194.97640455504632C568.29251759722 258.0213465644362 582.3606629733413 398.83826688017064 526.0192094853201 490.83512128965344 "></path><path d="M516.9755564353312 220.60436352240873C547.2559395461271 275.7686877806249 559.5655667502331 398.9834930568925 510.2667949482145 479.48074066518984C460.96802314619595 559.9779882734874 327.29533993641985 635.1923578516659 280.34145178564205 606.9911520422372C233.38756363486425 578.7899462328087 267.2674017764073 425.8439460750335 284.88813182448087 344.11495277993254C302.50886187255446 262.3859594848316 316.5694092224674 240.42335698773695 364.9209560163946 214.6919842257529C413.27250281032184 188.96061146376883 486.6951733245353 165.4400392641926 516.9755564353312 220.60436352240873C547.2559395461271 275.7686877806249 559.5655667502331 398.9834930568925 510.2667949482145 479.48074066518984 "></path><path d="M500.2647779176443 246.23233774856016C526.2193920126123 293.51604425560254 536.7705010447032 399.1287344924033 494.5144109286873 468.1263752995154C452.2583208126714 537.1240161066276 337.6817352042918 601.5934757450663 297.43554536076795 577.4210136226989C257.1893555172441 553.2485515003316 286.22921678142393 422.1519799365242 301.3326996797727 352.098557112152C316.4361825781215 282.0451342877797 328.48808030661826 263.2200464331272 369.93226327284157 241.1645840657123C411.3764462390649 219.10912169829743 474.3101638226765 198.94863124151777 500.2647779176443 246.23233774856016C526.2193920126123 293.51604425560254 536.7705010447032 399.1287344924033 494.5144109286873 468.1263752995154 "></path><path d="M483.5539688823794 271.86028145713345C505.1828139615193 311.26337021300213 513.9754048215951 399.2739454103362 478.76199639158176 456.77197941626287C443.5485879615686 514.2700134221897 348.0680999545856 567.9945631208885 314.5296084183157 547.8508446855824C280.9911168820459 527.7071262502762 305.19100126886235 418.45998328043686 317.77723701748636 360.0821309267933C330.3634727661103 301.70427857314974 340.40672087319103 286.01670536093934 374.9435400117104 267.63715338809357C409.48035915022984 249.25760141524785 461.92512380323944 232.45719270126477 483.5539688823794 271.86028145713345C505.1828139615193 311.26337021300213 513.9754048215951 399.2739454103362 478.76199639158176 456.77197941626287 "></path><path d="M466.8431598471145 297.48822516570675C484.1462359104264 329.01069617040173 491.18030859848704 399.4191563282689 463.00958185447644 445.4175835330103C434.83885511046583 491.4160107377518 358.4544647048794 534.3956504967108 331.62367147586355 518.2806757484659C304.79287824684764 502.165701000221 324.15278575630083 414.76798662434953 334.2217743552 368.0657047414347C344.2907629540992 321.3634228585198 352.32536143976375 308.8133642887515 379.95481675057925 294.10972271047484C407.5842720613948 279.40608113219827 449.5400837838025 265.96575416101183 466.8431598471145 297.48822516570675C484.1462359104264 329.01069617040173 491.18030859848704 399.4191563282689 463.00958185447644 445.4175835330103 "></path><path d="M450.13238132942763 323.11616887428005C463.1096883769116 346.75802212780127 468.3852428929571 399.56436724620164 447.2571978349491 434.0631876497577C426.12915277694117 468.5620080533138 368.84085997275133 500.7967378725332 348.71776505098944 488.71050681134943C328.59467012922755 476.6242757501658 343.11460076131743 411.0759899682621 350.6663422104918 376.049278556076C358.2180836596662 341.0225671438899 364.2440325239146 331.6100232165636 384.9661240070263 320.5822920328562C405.6882154901379 309.5545608491487 437.1550742819437 299.4743156207589 450.13238132942763 323.11616887428005C463.1096883769116 346.75802212780127 468.3852428929571 399.56436724620164 447.2571978349491 434.0631876497577 "></path><path d="M433.4215875529518 348.7441125828534C442.07312558460774 364.50534808520086 445.59016192863805 399.7095781641344 431.50479855663275 422.70879176650516C417.41943518462745 445.7080053688759 379.22723998183426 467.1978252483554 365.8118433673263 459.14033787423296C352.39644675281835 451.0828505001105 362.076400507545 407.38399331217477 367.11089480699457 384.0328523707173C372.14538910644416 360.6817114292599 376.16268834927644 354.40668214437574 389.9774160046842 347.05486135523745C403.79214366009194 339.70304056609916 424.7700495212958 332.98287708050594 433.4215875529518 348.7441125828534C442.07312558460774 364.50534808520086 445.59016192863805 399.7095781641344 431.50479855663275 422.70879176650516 "></path><path d="M416.71080903526496 374.3720562914267C421.03657805109293 382.2526740426004 422.7950962231081 399.8547890820672 415.75241453710544 411.35439588325255C408.7097328511028 422.85400268443794 389.6136352497062 433.59891262417773 382.90593694245223 429.5701689371165C376.19823863519827 425.5414252500553 381.0382155125615 403.6919966560874 383.55546266228635 392.0164261853587C386.0727098120111 380.3408557146299 388.0813594334273 377.20334107218787 394.98872326113116 373.5274306776187C401.89608708883503 369.8515202830496 412.38504001943693 366.49143854025294 416.71080903526496 374.3720562914267C421.03657805109293 382.2526740426004 422.7950962231081 399.8547890820672 415.75241453710544 411.35439588325255 "></path></g></svg>